<?xml version="1.0" standalone="no"?>
<!DOCTYPE svg PUBLIC "-//W3C//DTD SVG 20010904//EN"
 "http://www.w3.org/TR/2001/REC-SVG-20010904/DTD/svg10.dtd">
<svg version="1.0" xmlns="http://www.w3.org/2000/svg"
 width="700.000000pt" height="700.000000pt" viewBox="0 0 700.000000 700.000000"
 preserveAspectRatio="xMidYMid meet">
<metadata>
Created by potrace 1.14, written by Peter Selinger 2001-2017
</metadata>
<g transform="translate(0.000000,700.000000) scale(0.100000,-0.100000)"
fill="#000000" stroke="none">
<path d="M3278 6996 c-1 -2 -39 -6 -83 -10 -400 -31 -838 -151 -1213 -333
-177 -86 -446 -246 -552 -330 -8 -6 -51 -40 -95 -74 -425 -331 -812 -824
-1020 -1299 -25 -58 -52 -118 -59 -135 -51 -115 -148 -423 -171 -546 -3 -13
-11 -58 -20 -99 -22 -115 -30 -160 -41 -255 -26 -230 -26 -666 1 -826 2 -13 6
-46 9 -74 21 -182 109 -547 165 -680 5 -11 25 -65 46 -120 63 -166 249 -531
312 -610 4 -6 34 -49 65 -95 52 -78 214 -286 263 -336 198 -208 293 -297 445
-419 92 -74 370 -265 386 -265 4 0 15 -6 23 -14 26 -22 298 -158 411 -205 267
-111 589 -200 859 -237 25 -3 57 -8 71 -10 163 -25 682 -25 842 1 13 2 46 7
73 10 72 10 86 12 120 19 17 3 44 8 60 11 343 65 740 212 1039 384 49 28 91
51 93 51 10 0 268 180 353 247 152 119 324 280 450 422 36 41 70 79 75 85 62
67 240 317 320 450 179 298 346 717 411 1031 16 75 54 300 60 350 4 33 9 76
11 95 8 69 10 517 3 595 -14 151 -21 210 -25 225 -2 8 -7 35 -10 60 -17 129
-80 384 -136 552 -324 964 -1054 1742 -1999 2130 -223 92 -557 186 -760 213
-19 3 -46 7 -60 10 -13 2 -54 7 -90 11 -36 3 -76 8 -90 11 -27 5 -536 14 -542
9z m-951 -1022 c95 -19 140 -37 225 -87 165 -99 287 -274 324 -464 21 -111 19
-135 -17 -174 -110 -123 -199 -308 -224 -471 -5 -30 -14 -42 -58 -71 -119 -78
-242 -115 -387 -115 -107 0 -216 23 -300 65 -66 33 -65 33 -61 -37 l2 -25
-138 2 c-76 1 -153 2 -171 2 l-33 1 3 413 3 412 27 78 c68 201 221 364 413
438 39 15 93 31 121 35 27 3 51 8 53 10 11 10 149 2 218 -12z m1393 -659 c155
-48 300 -151 378 -268 l26 -38 -18 -67 c-26 -102 -28 -134 -29 -450 l0 -293
-73 -68 c-71 -66 -191 -138 -259 -156 -16 -5 -34 -9 -40 -11 -119 -34 -275
-27 -409 17 -215 71 -389 261 -447 487 -20 78 -26 209 -14 287 11 68 52 179
90 243 36 63 144 180 201 219 58 40 157 85 228 103 90 24 282 21 366 -5z
m1176 -162 l1 -183 -26 0 c-43 0 -120 -32 -161 -68 -21 -18 -51 -58 -67 -90
l-28 -57 -1 -383 c-1 -211 -4 -386 -8 -389 -4 -4 -261 -7 -324 -4 -11 1 -12
82 -9 429 2 235 6 434 8 442 61 192 136 300 271 387 90 58 222 101 303 99 l40
-1 1 -182z m-3024 -765 c4 -7 114 -188 244 -403 129 -214 243 -396 252 -402
36 -29 80 -2 117 70 9 18 39 70 68 117 29 47 90 148 137 224 l84 139 36 -44
c19 -24 62 -70 94 -101 l59 -58 -29 -22 c-183 -141 -314 -395 -331 -639 -6
-88 -8 -97 -52 -169 -25 -41 -53 -85 -61 -96 -36 -50 -111 -59 -157 -20 -15
13 -132 195 -258 405 -126 209 -233 381 -236 381 -4 0 -7 -261 -7 -581 -1
-320 -3 -583 -6 -586 -4 -4 -182 -6 -298 -4 l-38 1 0 899 c0 830 1 900 17 903
9 2 93 2 187 1 125 -2 172 -6 178 -15z m3795 -653 c-3 -754 2 -704 -83 -866
-45 -85 -161 -210 -237 -254 l-48 -27 -67 20 c-168 51 -346 51 -520 0 l-73
-21 -70 48 c-125 86 -233 239 -275 390 -25 91 -26 254 -3 345 33 129 90 231
182 324 87 87 152 130 261 171 163 61 378 51 536 -26 33 -16 61 -29 63 -29 1
0 2 133 1 295 l-1 294 51 3 c28 2 104 3 169 3 l118 0 -4 -670z m-2067 160
c184 -18 374 -138 488 -309 38 -56 38 -60 26 -96 -31 -89 -42 -168 -42 -294
l0 -131 -440 0 c-242 0 -443 -3 -447 -7 -9 -8 34 -75 76 -117 19 -19 62 -47
96 -63 139 -66 309 -34 412 76 l22 24 132 -75 c171 -98 166 -93 131 -134 -49
-58 -117 -119 -171 -155 -51 -34 -53 -34 -89 -19 -39 16 -48 18 -162 39 -73
13 -226 14 -292 2 -19 -4 -68 -16 -109 -27 l-73 -20 -67 49 c-346 252 -384
756 -81 1059 106 106 264 185 400 200 30 3 56 7 58 8 3 2 33 0 132 -10z m-961
-961 c4 -5 18 -36 31 -69 30 -76 79 -160 125 -215 20 -24 34 -45 31 -47 -2 -2
-60 -5 -128 -5 l-124 0 1 -737 c0 -405 -1 -745 -3 -756 -3 -19 -11 -20 -160
-19 -86 1 -163 2 -169 3 -10 1 -13 159 -13 757 l0 756 -37 -2 c-21 -1 -66 -2
-100 -1 l-63 1 0 169 c0 151 2 170 17 173 39 7 585 0 592 -8z m951 -499 c204
-33 393 -166 502 -353 l25 -43 -20 -72 c-15 -54 -20 -108 -22 -217 l-3 -145
-458 -1 c-253 -1 -460 -2 -462 -3 -4 -2 50 -85 72 -110 11 -13 39 -35 60 -48
140 -90 318 -75 438 35 l44 41 139 -80 c77 -44 143 -84 148 -88 12 -12 -131
-154 -193 -193 -131 -82 -231 -111 -380 -111 -125 0 -203 18 -315 72 -183 90
-322 265 -369 466 -16 68 -23 214 -12 265 17 80 29 126 36 135 4 6 12 24 18
42 16 48 78 140 135 201 156 165 391 244 617 207z m1492 2 c136 -18 282 -93
388 -199 49 -50 116 -136 108 -142 -7 -5 -244 -144 -266 -155 -22 -12 -27 -9
-58 27 -148 174 -426 166 -559 -16 -103 -141 -90 -334 30 -458 150 -153 384
-147 527 15 l43 49 133 -78 c73 -42 137 -81 143 -87 13 -13 -75 -127 -139
-181 -239 -200 -572 -223 -832 -57 -142 91 -234 210 -289 373 -28 83 -34 122
-33 222 1 252 133 477 353 604 54 31 167 72 223 80 22 4 41 8 42 9 4 4 139 0
186 -6z"/>
<path d="M2083 5636 c-148 -48 -240 -165 -250 -315 -7 -98 15 -174 67 -240
156 -197 442 -188 581 19 120 177 47 428 -149 518 -68 31 -184 40 -249 18z"/>
<path d="M3477 4989 c-102 -15 -212 -93 -259 -184 -95 -181 -24 -397 160 -487
173 -86 384 -14 474 160 10 20 24 67 30 103 41 235 -166 443 -405 408z"/>
<path d="M4869 3541 c-77 -25 -143 -74 -188 -143 -99 -146 -75 -338 56 -458
212 -193 553 -69 591 215 22 169 -82 335 -243 387 -57 18 -157 18 -216 -1z"/>
<path d="M3436 3548 c-89 -19 -180 -81 -227 -157 -16 -25 -29 -48 -29 -52 0
-4 149 -7 330 -8 l330 0 -19 37 c-67 131 -239 211 -385 180z"/>
<path d="M3430 2093 c-86 -12 -183 -72 -234 -143 -61 -84 -86 -78 285 -78 181
1 329 4 329 7 0 21 -66 105 -109 139 -72 57 -183 88 -271 75z"/>
</g>
</svg>
