<svg width="1092" height="700" viewBox="0 0 1092 700" fill="none" xmlns="http://www.w3.org/2000/svg">
<g clip-path="url(#clip0_1666_8317)">
<line x1="112" y1="499.5" x2="1092" y2="499.5" stroke="#A3CBDB"/>
<line x1="112" y1="599.5" x2="1092" y2="599.5" stroke="#80B7C6"/>
<line x1="112" y1="399.5" x2="1092" y2="399.5" stroke="#A3CBDB"/>
<line x1="112" y1="299.5" x2="1092" y2="299.5" stroke="#A3CBDB"/>
<line x1="112" y1="199.5" x2="1092" y2="199.5" stroke="#A3CBDB"/>
<line x1="112" y1="99.5" x2="1092" y2="99.4999" stroke="#A3CBDB"/>
<path d="M67.0538 198.72C68.0138 198.1 68.6538 197.1 68.6538 195.76C68.6538 193.06 66.5338 191.74 64.2138 191.74C61.8738 191.74 59.7738 193.06 59.7738 195.76C59.7738 197.1 60.4138 198.1 61.3538 198.72C60.0738 199.44 59.2938 200.66 59.2938 202.12C59.2938 204.72 61.2938 206.26 64.2138 206.26C67.1338 206.26 69.1138 204.72 69.1138 202.12C69.1138 200.64 68.3538 199.44 67.0538 198.72ZM64.2138 193.92C65.3738 193.92 66.3538 194.56 66.3538 195.86C66.3538 197.1 65.3738 197.8 64.2138 197.8C63.0338 197.8 62.0738 197.1 62.0738 195.86C62.0738 194.56 63.0338 193.92 64.2138 193.92ZM64.2138 204.08C62.6938 204.08 61.5938 203.32 61.5938 201.9C61.5938 200.46 62.6938 199.72 64.2138 199.72C65.7138 199.72 66.8138 200.46 66.8138 201.9C66.8138 203.32 65.7138 204.08 64.2138 204.08ZM76.1047 206.26C79.6247 206.26 81.6047 203.32 81.6047 199C81.6047 194.68 79.6247 191.74 76.1047 191.74C72.5847 191.74 70.6047 194.68 70.6047 199C70.6047 203.32 72.5847 206.26 76.1047 206.26ZM76.1047 204.02C74.0447 204.02 72.9047 202.22 72.9047 199C72.9047 195.78 74.0447 193.98 76.1047 193.98C78.1847 193.98 79.3047 195.78 79.3047 199C79.3047 202.22 78.1847 204.02 76.1047 204.02ZM88.7023 206.26C92.2223 206.26 94.2023 203.32 94.2023 199C94.2023 194.68 92.2223 191.74 88.7023 191.74C85.1823 191.74 83.2023 194.68 83.2023 199C83.2023 203.32 85.1823 206.26 88.7023 206.26ZM88.7023 204.02C86.6423 204.02 85.5023 202.22 85.5023 199C85.5023 195.78 86.6423 193.98 88.7023 193.98C90.7823 193.98 91.9023 195.78 91.9023 199C91.9023 202.22 90.7823 204.02 88.7023 204.02Z" fill="#80B7C6"/>
<path d="M49.0181 92L45.3381 93.3L45.8981 95.26L48.7181 94.46V106H51.0181V92H49.0181ZM56.7795 103.6H54.3795L53.5795 108.8H55.3795L56.7795 103.6ZM63.507 106.26C67.027 106.26 69.007 103.32 69.007 99C69.007 94.68 67.027 91.74 63.507 91.74C59.987 91.74 58.007 94.68 58.007 99C58.007 103.32 59.987 106.26 63.507 106.26ZM63.507 104.02C61.447 104.02 60.307 102.22 60.307 99C60.307 95.78 61.447 93.98 63.507 93.98C65.587 93.98 66.707 95.78 66.707 99C66.707 102.22 65.587 104.02 63.507 104.02ZM76.1047 106.26C79.6247 106.26 81.6047 103.32 81.6047 99C81.6047 94.68 79.6247 91.74 76.1047 91.74C72.5847 91.74 70.6047 94.68 70.6047 99C70.6047 103.32 72.5847 106.26 76.1047 106.26ZM76.1047 104.02C74.0447 104.02 72.9047 102.22 72.9047 99C72.9047 95.78 74.0447 93.98 76.1047 93.98C78.1847 93.98 79.3047 95.78 79.3047 99C79.3047 102.22 78.1847 104.02 76.1047 104.02ZM88.7023 106.26C92.2223 106.26 94.2023 103.32 94.2023 99C94.2023 94.68 92.2223 91.74 88.7023 91.74C85.1823 91.74 83.2023 94.68 83.2023 99C83.2023 103.32 85.1823 106.26 88.7023 106.26ZM88.7023 104.02C86.6423 104.02 85.5023 102.22 85.5023 99C85.5023 95.78 86.6423 93.98 88.7023 93.98C90.7823 93.98 91.9023 95.78 91.9023 99C91.9023 102.22 90.7823 104.02 88.7023 104.02Z" fill="#80B7C6"/>
<path d="M64.3663 296.7H64.1063L67.3063 292H64.6863L60.2463 298.66C59.7063 299.44 59.4063 300.4 59.4063 301.48C59.4063 304.3 61.4463 306.26 64.3663 306.26C67.2663 306.26 69.3063 304.3 69.3063 301.48C69.3063 298.66 67.2663 296.7 64.3663 296.7ZM64.3663 304.08C62.8263 304.08 61.7063 303.08 61.7063 301.48C61.7063 299.88 62.8263 298.88 64.3663 298.88C65.8863 298.88 67.0063 299.88 67.0063 301.48C67.0063 303.06 65.8863 304.08 64.3663 304.08ZM76.1047 306.26C79.6247 306.26 81.6047 303.32 81.6047 299C81.6047 294.68 79.6247 291.74 76.1047 291.74C72.5847 291.74 70.6047 294.68 70.6047 299C70.6047 303.32 72.5847 306.26 76.1047 306.26ZM76.1047 304.02C74.0447 304.02 72.9047 302.22 72.9047 299C72.9047 295.78 74.0447 293.98 76.1047 293.98C78.1847 293.98 79.3047 295.78 79.3047 299C79.3047 302.22 78.1847 304.02 76.1047 304.02ZM88.7023 306.26C92.2223 306.26 94.2023 303.32 94.2023 299C94.2023 294.68 92.2223 291.74 88.7023 291.74C85.1823 291.74 83.2023 294.68 83.2023 299C83.2023 303.32 85.1823 306.26 88.7023 306.26ZM88.7023 304.02C86.6423 304.02 85.5023 302.22 85.5023 299C85.5023 295.78 86.6423 293.98 88.7023 293.98C90.7823 293.98 91.9023 295.78 91.9023 299C91.9023 302.22 90.7823 304.02 88.7023 304.02Z" fill="#80B7C6"/>
<path d="M69.4631 401.34H67.8631V397.7H65.5431V401.34H61.1631L65.9831 392H63.4831L58.6631 401.34V403.48H65.5431V406H67.8631V403.48H69.4631V401.34ZM76.1047 406.26C79.6247 406.26 81.6047 403.32 81.6047 399C81.6047 394.68 79.6247 391.74 76.1047 391.74C72.5847 391.74 70.6047 394.68 70.6047 399C70.6047 403.32 72.5847 406.26 76.1047 406.26ZM76.1047 404.02C74.0447 404.02 72.9047 402.22 72.9047 399C72.9047 395.78 74.0447 393.98 76.1047 393.98C78.1847 393.98 79.3047 395.78 79.3047 399C79.3047 402.22 78.1847 404.02 76.1047 404.02ZM88.7023 406.26C92.2223 406.26 94.2023 403.32 94.2023 399C94.2023 394.68 92.2223 391.74 88.7023 391.74C85.1823 391.74 83.2023 394.68 83.2023 399C83.2023 403.32 85.1823 406.26 88.7023 406.26ZM88.7023 404.02C86.6423 404.02 85.5023 402.22 85.5023 399C85.5023 395.78 86.6423 393.98 88.7023 393.98C90.7823 393.98 91.9023 395.78 91.9023 399C91.9023 402.22 90.7823 404.02 88.7023 404.02Z" fill="#80B7C6"/>
<path d="M60.0341 506H69.2541V503.78H63.4541L66.6141 500.62C67.9541 499.26 68.9941 497.8 68.9941 496.06C68.9941 493.28 66.8141 491.74 64.5141 491.74C62.6541 491.74 60.8941 492.66 59.9941 494.58L61.9341 495.72C62.4741 494.6 63.3741 493.98 64.5341 493.98C65.7341 493.98 66.6941 494.74 66.6941 496.14C66.6941 497.2 65.9141 498.22 64.9141 499.22L60.0341 504.2V506ZM76.1047 506.26C79.6247 506.26 81.6047 503.32 81.6047 499C81.6047 494.68 79.6247 491.74 76.1047 491.74C72.5847 491.74 70.6047 494.68 70.6047 499C70.6047 503.32 72.5847 506.26 76.1047 506.26ZM76.1047 504.02C74.0447 504.02 72.9047 502.22 72.9047 499C72.9047 495.78 74.0447 493.98 76.1047 493.98C78.1847 493.98 79.3047 495.78 79.3047 499C79.3047 502.22 78.1847 504.02 76.1047 504.02ZM88.7023 506.26C92.2223 506.26 94.2023 503.32 94.2023 499C94.2023 494.68 92.2223 491.74 88.7023 491.74C85.1823 491.74 83.2023 494.68 83.2023 499C83.2023 503.32 85.1823 506.26 88.7023 506.26ZM88.7023 504.02C86.6423 504.02 85.5023 502.22 85.5023 499C85.5023 495.78 86.6423 493.98 88.7023 493.98C90.7823 493.98 91.9023 495.78 91.9023 499C91.9023 502.22 90.7823 504.02 88.7023 504.02Z" fill="#80B7C6"/>
<path d="M88.7023 606.26C92.2223 606.26 94.2023 603.32 94.2023 599C94.2023 594.68 92.2223 591.74 88.7023 591.74C85.1823 591.74 83.2023 594.68 83.2023 599C83.2023 603.32 85.1823 606.26 88.7023 606.26ZM88.7023 604.02C86.6423 604.02 85.5023 602.22 85.5023 599C85.5023 595.78 86.6423 593.98 88.7023 593.98C90.7823 593.98 91.9023 595.78 91.9023 599C91.9023 602.22 90.7823 604.02 88.7023 604.02Z" fill="#80B7C6"/>
<path d="M195.48 625.792L194.04 628.216C196.512 628.864 199.584 630.232 201.408 631.432L202.944 628.792C200.904 627.544 197.832 626.344 195.48 625.792ZM196.848 631.216L193.776 631.024C193.8 631.192 193.824 631.48 193.824 631.696L193.8 643.768C193.8 645.52 194.04 646.432 194.736 646.912C195.336 647.368 196.344 647.584 199.008 647.584C203.688 647.584 204.648 646.024 204.888 641.944C204.168 641.536 202.824 640.696 201.984 640.192C201.984 642.736 201.84 643.624 201.456 644.128C201 644.608 200.4 644.8 199.248 644.8C198.072 644.8 197.664 644.776 197.376 644.704C197.016 644.608 196.8 644.392 196.8 643.84V631.768C196.8 631.552 196.824 631.312 196.848 631.216ZM206.184 633.448L203.64 634.72C204.912 637 206.376 640.408 207.168 643.336C207.888 642.88 209.208 642.184 209.976 641.776C208.968 638.584 207.48 635.416 206.184 633.448ZM192.648 634.96L189.888 633.808C189.504 637.024 188.352 640.36 187.224 642.16C187.968 642.664 189.144 643.48 189.648 643.936C190.8 642.016 191.904 638.968 192.48 635.296C192.528 635.176 192.6 635.056 192.648 634.96ZM231.624 641.848C231.6 644.488 231.432 645.328 231.12 645.352C230.784 645.352 230.304 644.68 229.896 642.52C230.856 640.888 231.576 638.92 232.176 636.496C232.2 636.424 232.248 636.352 232.296 636.304L230.592 635.056C230.304 636.616 229.944 637.984 229.464 639.184C229.32 637.744 229.248 636.016 229.2 633.904H230.856C231.432 633.904 231.912 633.904 232.344 633.952V631.816C232.128 631.84 231.864 631.864 231.624 631.864L232.296 631.192C231.816 630.664 231.192 630.088 230.712 629.728H230.808C231.408 629.728 231.912 629.728 232.368 629.752V627.592C231.912 627.64 231.408 627.64 230.808 627.64H228.84V626.656C228.84 626.512 228.84 626.296 228.864 626.104C228.36 626.056 226.944 626.008 226.44 626.008C226.464 626.224 226.464 626.464 226.464 626.656V627.64H223.824V626.656C223.824 626.512 223.824 626.296 223.848 626.104C223.344 626.056 221.928 626.008 221.448 626.008C221.472 626.224 221.472 626.464 221.472 626.656V627.64H219.72C219.096 627.64 218.616 627.64 218.136 627.592V629.752C218.616 629.728 219.096 629.728 219.72 629.728H221.472V630.28C221.472 630.52 221.448 630.76 221.424 630.952H223.872C223.848 630.76 223.824 630.544 223.824 630.28V629.728H226.464V630.28C226.464 630.52 226.44 630.76 226.416 630.952H227.04C227.04 631.072 227.064 631.192 227.064 631.336V631.864H218.304C218.328 632.08 218.352 632.392 218.352 632.56V639.256C218.352 641.968 217.992 643.72 217.416 644.992C217.392 644.416 217.368 643.528 217.368 643.24V627.952C217.368 627.568 217.368 627.184 217.416 626.776H211.68C211.704 626.968 211.728 627.28 211.728 627.424V635.824C211.728 640.912 211.128 644.224 210.384 646C210.96 646.552 211.824 647.464 212.16 647.872C212.88 646.336 213.384 643.624 213.624 640.288H215.328V643.24V644.512C215.328 644.896 215.16 645.016 214.56 645.016C214.128 645.016 213.624 644.944 213.6 644.944L214.584 647.632C216.048 647.632 217.008 646.984 217.32 646.048C217.728 646.576 218.256 647.248 218.496 647.656C219.816 646.072 220.536 643.072 220.536 639.376V633.904H227.136C227.28 637.432 227.52 640.096 227.832 642.112C227.424 642.664 226.992 643.144 226.488 643.6V642.808C226.176 642.832 225.912 642.832 225.648 642.832H225.336V641.608H226.392L226.368 641.056V638.68C226.368 638.464 226.368 638.296 226.392 638.128H225.336V636.928H225.672C225.936 636.928 226.2 636.928 226.512 636.952V635.128C226.2 635.152 225.936 635.152 225.672 635.152H221.232C221.256 635.392 221.256 635.68 221.256 635.968V643.792C221.256 644.08 221.256 644.344 221.232 644.608H225.216C224.4 645.16 223.488 645.64 222.456 646.048C222.984 646.504 223.8 647.224 224.16 647.608C225.888 646.744 227.256 645.76 228.36 644.56C229.08 647.056 230.016 647.752 231.072 647.752C232.536 647.752 233.064 646.312 233.184 643.672C232.752 643.288 232.032 642.4 231.624 641.848ZM215.328 629.32V632.416H213.768V629.32H215.328ZM229.176 631.408C229.176 631.096 229.176 630.832 229.2 630.712C229.176 630.688 229.032 630.688 228.84 630.664V630.28V629.728H230.136C229.848 629.968 229.536 630.232 229.296 630.472C229.728 630.808 230.304 631.336 230.784 631.864H229.176V631.408ZM213.744 637.888C213.768 637.216 213.768 636.544 213.768 635.848V634.84H215.328V637.888H213.744ZM223.968 636.928V638.128H223.008V636.928H223.968ZM223.008 639.424H224.952V640.312H223.008V639.424ZM223.008 641.608H223.968V642.832H223.008V641.608Z" fill="#4F91B0"/>
<path d="M790.238 45.862C790.238 45.84 790.348 45.708 790.436 45.62L788.72 44.41C788.082 45.73 785.728 47.996 783.946 49.03C784.32 49.514 784.892 50.35 785.134 50.834C786.542 50.042 788.896 47.842 790.238 45.862ZM802.382 51.186H798.246V48.854H801.59C802.096 48.854 802.536 48.854 802.91 48.876V46.896C802.514 46.918 802.096 46.918 801.59 46.918H798.246V45.312C798.246 45.158 798.268 44.872 798.29 44.696C797.828 44.652 796.508 44.608 796.002 44.608C796.024 44.806 796.046 45.158 796.046 45.312V46.918H792.856C792.328 46.918 791.91 46.918 791.514 46.896V48.876C791.91 48.854 792.328 48.854 792.856 48.854H796.046V51.186H792.064C791.492 51.186 791.008 51.186 790.568 51.142V53.254C791.008 53.21 791.492 53.21 792.064 53.21H802.382C802.976 53.21 803.46 53.21 803.9 53.254V51.142C803.46 51.186 802.976 51.186 802.382 51.186ZM790.436 50.812C790.502 50.724 790.568 50.636 790.612 50.592L788.83 49.426C788.06 51.384 785.772 54.222 783.77 55.652C784.078 56.202 784.562 57.148 784.738 57.72C785.31 57.324 786.036 56.642 786.674 55.894C786.608 58.688 786.52 62.538 786.52 63.528C786.52 63.902 786.498 64.254 786.476 64.562H788.764C788.742 64.254 788.72 63.88 788.72 63.528V53.474C789.314 52.66 789.908 51.78 790.436 50.812ZM800.754 55.454V54.178C800.754 54.024 800.776 53.76 800.798 53.584C800.336 53.54 799.016 53.496 798.51 53.496C798.532 53.694 798.554 54.024 798.554 54.178V55.454H791.998C791.404 55.454 790.92 55.454 790.48 55.41V57.566C790.92 57.522 791.404 57.522 791.998 57.522H798.554V60.778V61.768C798.554 62.252 798.18 62.494 796.992 62.494C796.244 62.494 795.364 62.406 794.902 62.34C795.232 63 795.782 64.056 796.002 64.562C799.61 64.562 800.798 63.748 800.798 62.318C800.798 62.076 800.754 61.086 800.754 60.778V57.522H802.228C802.822 57.522 803.306 57.522 803.746 57.566V55.41C803.306 55.454 802.822 55.454 802.228 55.454H800.754ZM795.122 61.834L796.772 60.14C795.628 59.084 794.176 58.16 793.34 57.698L791.888 59.216C792.724 59.766 794.264 60.91 795.122 61.834ZM823.744 59.722C823.7 61.878 823.524 62.758 823.04 62.758C822.556 62.758 822.006 62.274 821.434 61.284C822.248 60.602 822.974 59.854 823.612 58.996C823.634 58.952 823.722 58.886 823.766 58.864L822.358 57.456C821.918 58.248 821.346 58.952 820.664 59.546C820.422 58.864 820.18 58.072 819.96 57.17H823.436C824.03 57.17 824.492 57.17 824.932 57.214V55.322C824.558 55.366 824.162 55.366 823.678 55.366C823.106 54.706 822.424 54.046 821.984 53.694L820.818 54.42C821.038 54.64 821.368 54.992 821.698 55.366H819.586C819.498 54.926 819.432 54.464 819.344 54.002C819.476 53.98 819.564 53.958 819.608 53.958C820.532 53.87 822.798 53.584 823.788 53.496C823.876 53.76 823.942 54.024 824.008 54.266L825.35 53.76C824.976 52.55 824.426 51.34 824.03 50.702L822.776 51.076C822.908 51.318 823.04 51.604 823.194 51.934C822.754 52 822.226 52.066 821.676 52.11C823.04 50.482 824.294 48.766 824.91 47.71C824.998 47.622 825.064 47.534 825.152 47.424L823.546 46.698C823.326 47.336 822.6 48.458 821.742 49.624C821.544 49.338 821.302 49.052 821.06 48.744C821.764 47.688 822.534 46.456 822.974 45.532L823.15 45.29L821.478 44.564C821.28 45.268 820.752 46.346 820.004 47.468C819.806 47.248 819.652 47.05 819.498 46.896L818.816 47.952C818.772 47.138 818.75 46.302 818.75 45.422C818.75 45.092 818.772 44.85 818.772 44.74C818.376 44.696 817.32 44.652 816.638 44.63C816.66 44.784 816.704 45.092 816.704 45.422C816.726 46.214 816.77 46.984 816.814 47.71L815.362 47.028C815.164 47.622 814.614 48.568 813.954 49.558L813.338 48.766C814.02 47.754 814.746 46.478 815.23 45.576L815.428 45.334L813.69 44.608C813.514 45.268 812.854 46.456 812.238 47.446C812.062 47.226 811.886 47.028 811.754 46.874L810.764 48.37C811.446 49.074 812.282 49.954 813.008 50.878C812.59 51.45 812.172 51.978 811.82 52.418H811.754C811.622 52.44 811.094 52.462 810.742 52.462L811.028 54.244C811.314 54.2 811.754 54.134 811.842 54.112C812.788 54.024 815.12 53.738 816.11 53.628C816.198 53.914 816.286 54.2 816.33 54.442C816.704 54.31 817.056 54.156 817.43 54.024L817.628 55.366H812.524C811.93 55.366 811.468 55.366 811.028 55.322V57.214C811.468 57.17 811.93 57.17 812.524 57.17H812.832C812.502 59.502 811.292 61.504 809.796 62.67C810.346 63.132 811.138 63.858 811.336 64.188C812.546 63.11 813.492 61.548 814.108 59.7C814.878 60.206 815.736 60.822 816.264 61.35C816.594 60.932 817.122 60.184 817.43 59.744C816.528 59.04 815.428 58.402 814.57 57.984C814.614 57.72 814.68 57.434 814.702 57.17H818.002C818.31 58.578 818.662 59.744 819.058 60.734C817.452 61.702 815.582 62.34 813.822 62.758C814.35 63.308 815.076 64.166 815.23 64.474C816.88 64.012 818.464 63.33 819.894 62.428C820.862 64.056 821.984 64.738 823.128 64.738C824.646 64.738 825.174 63.66 825.394 60.998C824.954 60.668 824.184 60.074 823.744 59.722ZM809.268 54.816C809.598 55.784 809.95 56.62 810.28 57.192C810.412 56.686 810.83 55.74 811.094 55.146C810.522 54.31 809.818 52.726 809.4 51.054H809.84C810.17 51.054 810.434 51.054 810.742 51.076V49.052C810.434 49.074 810.17 49.074 809.84 49.074H809.378V45.268C809.378 45.114 809.4 44.872 809.422 44.718C808.982 44.674 807.772 44.63 807.31 44.63C807.332 44.806 807.354 45.136 807.354 45.246V49.074H806.1C805.77 49.074 805.506 49.074 805.198 49.052V51.076C805.506 51.054 805.77 51.054 806.1 51.054H807.266C806.738 53.716 805.616 56.334 804.78 57.588C805.11 58.27 805.594 59.414 805.748 60.008C806.364 58.886 806.98 57.148 807.464 55.08C807.398 58.402 807.354 62.45 807.354 63.572C807.354 63.946 807.332 64.364 807.31 64.694H809.422C809.4 64.364 809.378 63.968 809.378 63.572C809.378 62.428 809.334 58.182 809.268 54.816ZM816.374 50.812L815.098 51.186C815.23 51.428 815.384 51.736 815.538 52.066C815.054 52.132 814.438 52.198 813.822 52.264C814.966 50.79 816.088 49.184 816.66 48.062C816.726 47.996 816.77 47.93 816.814 47.864C816.924 49.58 817.056 51.142 817.232 52.55C816.946 51.846 816.616 51.208 816.374 50.812ZM820.774 50.878C820.356 51.406 819.938 51.89 819.564 52.286H819.498C819.454 52.286 819.3 52.308 819.124 52.308C819.014 51.186 818.904 49.976 818.838 48.678C819.454 49.316 820.158 50.086 820.774 50.878ZM827.924 56.378H835.074V56.664C835.074 56.884 835.074 57.126 835.052 57.346L834.018 58.05C834.744 58.6 836.152 59.832 836.856 60.756C837.406 60.338 838.154 59.766 838.572 59.436C838 58.864 837.296 58.248 836.658 57.742H837.406C837.384 57.412 837.362 57.038 837.362 56.664V56.378H844.622L844.6 55.784V52.44C844.6 52.22 844.6 52.044 844.622 51.846H837.362V50.658H843.83L843.808 50.064V46.676C843.808 46.456 843.808 46.28 843.83 46.082H837.362V45.488C837.362 45.268 837.362 44.96 837.406 44.718C836.9 44.674 835.514 44.63 835.03 44.63C835.052 44.872 835.074 45.224 835.074 45.488V46.082H828.65C828.672 46.258 828.694 46.456 828.694 46.676V50.064C828.694 50.284 828.672 50.504 828.65 50.658H835.074V51.846H827.924C827.946 52.022 827.968 52.22 827.968 52.44V55.784C827.968 55.982 827.946 56.202 827.924 56.378ZM830.982 48.986V47.754H835.074V48.986H830.982ZM841.52 47.754V48.986H837.362V47.754H841.52ZM835.074 53.518V54.706H830.256V53.518H835.074ZM842.312 53.518V54.706H837.362V53.518H842.312ZM843.016 57.566L841.322 58.556C842.202 59.568 843.764 61.68 844.512 63.264L846.404 61.988C845.348 60.228 843.918 58.468 843.016 57.566ZM839.012 61.856C838.528 62.23 837.846 62.296 836.614 62.296C834.986 62.296 834.502 62.274 834.238 62.23C833.996 62.164 833.864 62.054 833.864 61.636V58.336C833.864 58.204 833.886 58.072 833.908 58.006L831.532 57.852C831.554 57.94 831.576 58.116 831.576 58.27V61.68C831.576 62.868 831.686 63.484 832.214 63.858C832.676 64.188 833.402 64.32 836.394 64.32C840.442 64.32 841.564 63.572 841.806 60.866C841.234 60.602 840.2 60.052 839.562 59.722C839.562 60.976 839.408 61.548 839.012 61.856ZM825.9 62.032C826.45 62.494 827.33 63.242 827.66 63.638C828.65 62.626 829.838 60.976 830.586 59.084C830.63 58.996 830.652 58.952 830.718 58.886L828.694 58.116C828.122 59.678 826.824 61.284 825.9 62.032ZM865.368 50.724H862.002C863.388 49.47 864.686 48.062 865.896 46.478C865.94 46.412 866.028 46.346 866.072 46.302L864.268 45.114C863.41 46.324 862.442 47.468 861.386 48.524V46.742C860.968 46.786 860.55 46.786 860 46.786H857.822V45.224C857.822 45.07 857.844 44.806 857.866 44.63C857.382 44.586 856.04 44.542 855.534 44.542C855.556 44.74 855.578 45.07 855.578 45.224V46.786H851.002C850.474 46.786 850.034 46.786 849.638 46.742V48.766C850.056 48.722 850.474 48.722 851.002 48.722H855.578V50.724H849.572C848.758 50.724 848.142 50.724 847.592 50.68V52.704C848.142 52.66 848.758 52.66 849.572 52.66H856.15C853.378 54.376 850.298 55.608 847.086 56.268C847.592 56.884 848.318 57.852 848.472 58.248C849.792 57.808 851.09 57.346 852.322 56.818V63.682C852.322 63.99 852.3 64.32 852.278 64.562H854.522V63.528H861.98V64.562H864.334L864.312 63.682V55.74C864.312 55.432 864.312 55.168 864.334 54.86H856.282C857.448 54.2 858.57 53.452 859.648 52.66H865.368C866.16 52.66 866.798 52.66 867.348 52.704V50.68C866.798 50.724 866.16 50.724 865.368 50.724ZM857.822 48.722H860C860.462 48.722 860.814 48.722 861.166 48.744C860.44 49.448 859.692 50.108 858.922 50.724H857.822V48.722ZM861.98 58.292H854.522V56.62H861.98V58.292ZM854.522 61.768V59.964H861.98V61.768H854.522ZM884.728 58.71C885.85 56.422 886.73 53.914 887.038 50.328H887.368C887.742 50.328 888.05 50.328 888.38 50.35V48.326C888.05 48.348 887.742 48.348 887.368 48.348H882.264C882.594 47.38 882.88 46.346 883.1 45.246C883.122 45.18 883.166 45.07 883.21 45.004L881.23 44.542C880.746 47.314 879.646 50.13 878.568 51.736C877.798 51.296 876.962 50.702 876.39 50.064H877.842C878.304 50.064 878.7 50.064 879.074 50.086V48.238C878.7 48.26 878.304 48.26 877.842 48.26H875.048V45.202C875.048 45.07 875.07 44.828 875.092 44.696C874.674 44.652 873.464 44.608 873.024 44.608C873.046 44.784 873.068 45.092 873.068 45.202V48.26H869.988C869.526 48.26 869.13 48.26 868.756 48.238V50.086C869.13 50.064 869.526 50.064 869.988 50.064H871.902C870.978 51.362 869.438 52.638 868.162 53.254C868.558 53.782 869.13 54.596 869.284 54.948C870.626 54.156 872.078 52.726 873.112 51.098L873.068 53.276C873.068 53.496 873.068 53.76 873.024 53.936H875.092C875.048 53.738 875.048 53.518 875.048 53.276L875.004 50.812C875.928 52.22 877.314 53.43 878.37 54.09C878.414 53.892 878.568 53.562 878.744 53.21C878.986 53.518 879.184 53.848 879.272 54.068C879.646 53.628 880.02 53.078 880.394 52.462C880.79 54.948 881.494 56.95 882.352 58.622C881.23 60.404 879.624 61.812 878.018 62.516C878.216 62.098 878.458 61.636 878.634 61.284C878.062 60.998 877.358 60.668 876.61 60.338C877.072 59.524 877.402 58.644 877.644 57.72H878.04C878.524 57.72 878.942 57.72 879.316 57.742V55.806C878.942 55.828 878.524 55.828 878.04 55.828H874.212C874.366 55.432 874.52 55.058 874.63 54.75C874.674 54.64 874.784 54.442 874.85 54.332C874.41 54.266 873.288 54.134 872.584 54.068C872.474 54.508 872.232 55.146 871.924 55.828H869.856C869.372 55.828 868.976 55.828 868.58 55.806V57.742C868.976 57.72 869.372 57.72 869.856 57.72H871.022C870.626 58.512 870.23 59.238 869.9 59.744C870.692 60.03 871.968 60.536 873.288 61.108C872.078 61.966 870.45 62.494 868.448 62.714C868.778 63.352 869.284 64.342 869.438 64.694C872.122 64.298 874.014 63.352 875.334 62.01C876.28 62.45 877.116 62.89 877.644 63.22C877.732 63.088 877.82 62.89 877.93 62.67C878.37 63.286 878.942 64.188 879.096 64.562C880.878 63.726 882.506 61.988 883.584 60.492C884.662 61.966 886.312 63.594 887.896 64.54C888.028 64.144 888.446 63.11 888.71 62.428C887.258 61.57 885.718 60.184 884.728 58.71ZM878.898 45.752C878.92 45.73 878.986 45.598 879.052 45.532L877.16 44.828C877.006 45.378 876.258 46.676 875.774 47.314C876.302 47.556 877.138 47.908 877.468 48.062C877.952 47.402 878.524 46.456 878.898 45.752ZM872.32 47.16C871.968 46.456 871.308 45.444 870.934 44.894L869.24 45.642C869.658 46.236 870.428 47.27 870.758 48.04C871.132 47.886 871.858 47.446 872.32 47.16ZM883.54 56.444C882.814 54.75 882.286 52.77 882.044 50.328H885.102C884.882 52.88 884.31 54.728 883.54 56.444ZM875.642 57.72C875.444 58.424 875.158 59.04 874.784 59.59C874.08 59.326 873.376 59.062 872.716 58.864C872.914 58.512 873.112 58.116 873.31 57.72H875.642Z" fill="#4F91B0"/>
<path d="M965.636 51.296C966.934 50.658 968.298 49.69 969.508 48.524H973.358C972.764 49.272 971.994 50.02 971.092 50.68C970.454 50.196 969.684 49.69 969.046 49.36L967.902 50.57C968.408 50.9 968.98 51.274 969.53 51.714C968.122 52.528 966.582 53.188 965.086 53.584C965.57 54.068 966.318 54.86 966.516 55.234C970.63 53.936 974.238 51.076 975.998 47.93C976.086 47.908 976.174 47.864 976.262 47.82C975.668 47.314 974.942 46.808 974.546 46.588L974.414 46.72H971.092C971.444 46.258 971.752 45.796 972.016 45.312L972.17 45.114L970.058 44.674C968.958 46.83 966.406 48.854 964.294 49.734C964.712 50.174 965.372 50.9 965.636 51.296ZM965.35 56.862C964.514 55.96 963.392 54.266 962.666 52.616H963.92C964.294 52.616 964.624 52.616 964.976 52.638V50.658C964.624 50.68 964.294 50.68 963.92 50.68H962.49V47.358C963.172 47.094 963.832 46.83 964.448 46.544C964.58 46.5 964.822 46.412 964.954 46.368L963.568 44.806C962.094 45.664 959.366 46.588 957.276 46.896C957.54 47.468 957.958 48.37 958.09 48.7C958.86 48.546 959.63 48.326 960.378 48.106V50.68H958.156C957.76 50.68 957.43 50.68 957.078 50.658V52.638C957.43 52.616 957.76 52.616 958.156 52.616H959.982C959.19 55.146 957.738 57.632 956.594 58.842C956.924 59.436 957.452 60.382 957.606 60.866C958.64 59.7 959.696 57.742 960.51 55.498C960.4 58.292 960.334 62.032 960.334 63.44C960.334 63.814 960.312 64.188 960.29 64.496H962.578C962.556 64.188 962.534 63.814 962.534 63.44C962.534 62.01 962.468 58.116 962.358 55.322C962.974 56.708 963.678 57.94 964.338 58.732C964.47 58.27 964.998 57.39 965.35 56.862ZM977.604 55.828C976.988 55.256 976.262 54.728 975.866 54.486L975.69 54.662H973.204C973.6 54.2 973.974 53.694 974.282 53.21C974.304 53.166 974.392 53.078 974.436 53.034L972.368 52.506C970.938 54.816 967.814 56.972 965.218 57.874C965.658 58.358 966.318 59.15 966.516 59.524C968.188 58.864 969.926 57.786 971.422 56.466H974.788C974.194 57.544 973.336 58.534 972.302 59.414C971.444 58.776 970.564 58.226 969.97 57.94L968.716 59.04C969.222 59.348 970.058 59.92 970.784 60.536C969.024 61.636 966.89 62.45 964.448 62.868C964.932 63.418 965.636 64.298 965.834 64.716C971.576 63.352 975.228 60.558 977.318 55.96L977.604 55.828ZM983.786 51.12C984.138 51.12 984.446 51.12 984.776 51.142V49.074C984.446 49.096 984.138 49.096 983.786 49.096H982.906V45.312C982.906 45.158 982.928 44.916 982.95 44.762C982.51 44.718 981.256 44.674 980.794 44.674C980.816 44.85 980.838 45.18 980.838 45.29V49.096H979.188C978.836 49.096 978.528 49.096 978.22 49.074V51.142C978.55 51.12 978.836 51.12 979.188 51.12H980.662C980.024 53.848 978.704 56.466 977.78 57.764C978.11 58.446 978.638 59.568 978.814 60.162C979.606 58.952 980.354 57.016 980.948 54.75C980.882 58.116 980.838 62.384 980.838 63.484C980.838 63.858 980.816 64.276 980.794 64.584H982.95C982.928 64.254 982.906 63.858 982.906 63.484C982.906 62.34 982.862 57.808 982.796 54.398C983.236 55.608 983.764 56.664 984.248 57.346C984.38 56.818 984.82 55.828 985.128 55.234C984.424 54.42 983.544 52.814 983.016 51.12H983.786ZM996.876 46.632H993.466L993.664 45.026C993.686 44.938 993.708 44.85 993.708 44.784C993.114 44.762 992.146 44.718 991.618 44.718C991.618 44.784 991.618 44.872 991.596 44.96C991.574 45.334 991.508 45.928 991.42 46.632H986.844C986.272 46.632 985.832 46.632 985.392 46.588V48.568C985.832 48.524 986.272 48.524 986.844 48.524H991.178C991.112 49.074 991.024 49.624 990.958 50.108H988.956C988.978 50.35 989 50.658 989 50.966V59.458C989 59.766 988.978 60.074 988.956 60.316H997.426L997.404 59.458V50.966C997.404 50.658 997.404 50.394 997.426 50.108H993.048C993.092 49.624 993.158 49.074 993.224 48.524H996.876C997.426 48.524 997.888 48.524 998.328 48.568V46.588C997.888 46.632 997.426 46.632 996.876 46.632ZM987.526 61.592V50.944C987.526 50.724 987.526 50.416 987.57 50.174C987.13 50.13 985.898 50.086 985.458 50.086C985.48 50.328 985.502 50.68 985.502 50.944V63.44C985.502 63.814 985.48 64.21 985.458 64.54H987.57C987.548 64.232 987.526 63.902 987.526 63.572H996.898C997.426 63.572 997.866 63.572 998.284 63.616V61.548C997.866 61.592 997.426 61.592 996.898 61.592H987.526ZM995.512 53.078H990.892V51.824H995.512V53.078ZM990.892 54.574H995.512V55.806H990.892V54.574ZM990.892 58.6V57.302H995.512V58.6H990.892ZM1003.96 49.646C1004.55 48.37 1005.13 46.962 1005.59 45.51C1005.63 45.444 1005.68 45.378 1005.72 45.312L1003.56 44.498C1002.86 47.204 1000.68 51.582 998.724 53.496C999.098 54.178 999.648 55.256 999.846 55.828C1000.51 55.102 1001.28 54.068 1001.98 52.858C1001.85 56.378 1001.72 61.196 1001.72 63.44C1001.72 63.858 1001.69 64.298 1001.67 64.672H1004C1003.98 64.298 1003.96 63.858 1003.96 63.44V49.646ZM1017.73 55.63H1013.79V51.296H1017.01C1017.51 51.296 1017.95 51.296 1018.35 51.318V49.162C1017.95 49.184 1017.51 49.184 1017.01 49.184H1013.79V45.796C1013.79 45.51 1013.79 45.136 1013.84 44.828C1013.33 44.784 1011.95 44.74 1011.46 44.74C1011.48 45.004 1011.51 45.466 1011.51 45.796V49.184H1009C1009.33 48.194 1009.61 47.16 1009.83 46.104L1009.92 45.84L1007.83 45.224C1007.44 47.974 1006.12 51.274 1004.84 52.88C1005.37 53.254 1006.18 53.892 1006.51 54.244C1007.08 53.43 1007.66 52.44 1008.16 51.296H1011.51V55.63H1006.78C1006.14 55.63 1005.61 55.63 1005.17 55.586V57.874C1005.61 57.83 1006.14 57.83 1006.78 57.83H1011.51V63.198C1011.51 63.704 1011.48 64.21 1011.46 64.65H1013.84C1013.82 64.21 1013.79 63.704 1013.79 63.198V57.83H1017.73C1018.37 57.83 1018.88 57.83 1019.34 57.874V55.586C1018.88 55.63 1018.37 55.63 1017.73 55.63ZM1036.61 58.71C1037.73 56.422 1038.61 53.914 1038.92 50.328H1039.25C1039.62 50.328 1039.93 50.328 1040.26 50.35V48.326C1039.93 48.348 1039.62 48.348 1039.25 48.348H1034.14C1034.47 47.38 1034.76 46.346 1034.98 45.246C1035 45.18 1035.05 45.07 1035.09 45.004L1033.11 44.542C1032.63 47.314 1031.53 50.13 1030.45 51.736C1029.68 51.296 1028.84 50.702 1028.27 50.064H1029.72C1030.18 50.064 1030.58 50.064 1030.95 50.086V48.238C1030.58 48.26 1030.18 48.26 1029.72 48.26H1026.93V45.202C1026.93 45.07 1026.95 44.828 1026.97 44.696C1026.55 44.652 1025.34 44.608 1024.9 44.608C1024.93 44.784 1024.95 45.092 1024.95 45.202V48.26H1021.87C1021.41 48.26 1021.01 48.26 1020.64 48.238V50.086C1021.01 50.064 1021.41 50.064 1021.87 50.064H1023.78C1022.86 51.362 1021.32 52.638 1020.04 53.254C1020.44 53.782 1021.01 54.596 1021.16 54.948C1022.51 54.156 1023.96 52.726 1024.99 51.098L1024.95 53.276C1024.95 53.496 1024.95 53.76 1024.9 53.936H1026.97C1026.93 53.738 1026.93 53.518 1026.93 53.276L1026.88 50.812C1027.81 52.22 1029.19 53.43 1030.25 54.09C1030.29 53.892 1030.45 53.562 1030.62 53.21C1030.87 53.518 1031.06 53.848 1031.15 54.068C1031.53 53.628 1031.9 53.078 1032.27 52.462C1032.67 54.948 1033.37 56.95 1034.23 58.622C1033.11 60.404 1031.5 61.812 1029.9 62.516C1030.1 62.098 1030.34 61.636 1030.51 61.284C1029.94 60.998 1029.24 60.668 1028.49 60.338C1028.95 59.524 1029.28 58.644 1029.52 57.72H1029.92C1030.4 57.72 1030.82 57.72 1031.2 57.742V55.806C1030.82 55.828 1030.4 55.828 1029.92 55.828H1026.09C1026.25 55.432 1026.4 55.058 1026.51 54.75C1026.55 54.64 1026.66 54.442 1026.73 54.332C1026.29 54.266 1025.17 54.134 1024.46 54.068C1024.35 54.508 1024.11 55.146 1023.8 55.828H1021.74C1021.25 55.828 1020.86 55.828 1020.46 55.806V57.742C1020.86 57.72 1021.25 57.72 1021.74 57.72H1022.9C1022.51 58.512 1022.11 59.238 1021.78 59.744C1022.57 60.03 1023.85 60.536 1025.17 61.108C1023.96 61.966 1022.33 62.494 1020.33 62.714C1020.66 63.352 1021.16 64.342 1021.32 64.694C1024 64.298 1025.89 63.352 1027.21 62.01C1028.16 62.45 1029 62.89 1029.52 63.22C1029.61 63.088 1029.7 62.89 1029.81 62.67C1030.25 63.286 1030.82 64.188 1030.98 64.562C1032.76 63.726 1034.39 61.988 1035.46 60.492C1036.54 61.966 1038.19 63.594 1039.78 64.54C1039.91 64.144 1040.33 63.11 1040.59 62.428C1039.14 61.57 1037.6 60.184 1036.61 58.71ZM1030.78 45.752C1030.8 45.73 1030.87 45.598 1030.93 45.532L1029.04 44.828C1028.89 45.378 1028.14 46.676 1027.65 47.314C1028.18 47.556 1029.02 47.908 1029.35 48.062C1029.83 47.402 1030.4 46.456 1030.78 45.752ZM1024.2 47.16C1023.85 46.456 1023.19 45.444 1022.81 44.894L1021.12 45.642C1021.54 46.236 1022.31 47.27 1022.64 48.04C1023.01 47.886 1023.74 47.446 1024.2 47.16ZM1035.42 56.444C1034.69 54.75 1034.17 52.77 1033.92 50.328H1036.98C1036.76 52.88 1036.19 54.728 1035.42 56.444ZM1027.52 57.72C1027.32 58.424 1027.04 59.04 1026.66 59.59C1025.96 59.326 1025.26 59.062 1024.6 58.864C1024.79 58.512 1024.99 58.116 1025.19 57.72H1027.52Z" fill="#4F91B0"/>
<path d="M415.456 629.128H411.832V626.56C411.832 626.416 411.856 626.176 411.88 626.008C411.304 625.96 409.648 625.912 409.048 625.912C409.072 626.104 409.096 626.416 409.096 626.536V629.128H405.664C405.064 629.128 404.536 629.128 404.08 629.08V631.576C404.536 631.528 405.064 631.528 405.664 631.528H415.456C416.056 631.528 416.512 631.528 416.968 631.576V629.08C416.512 629.128 416.056 629.128 415.456 629.128ZM403.288 626.776H396.52C396.544 626.992 396.568 627.328 396.568 627.472V635.896C396.568 640.912 395.896 644.248 394.864 646.096C395.488 646.624 396.448 647.488 396.856 647.92C397.744 646.384 398.368 643.648 398.656 640.312H400.984V643.312V644.56C400.984 644.968 400.768 645.136 400.072 645.136C399.64 645.136 399.136 645.064 398.896 645.04C399.256 645.88 399.784 647.248 399.976 647.8C402.16 647.8 403.288 646.792 403.288 645.448C403.288 645.184 403.24 643.696 403.24 643.312V628.024C403.24 627.592 403.264 627.184 403.288 626.776ZM400.984 629.32V632.44H398.848V629.32H400.984ZM416.296 634.912C416.296 634.624 416.296 634.408 416.32 634.144H411.832V632.896C411.832 632.632 411.832 632.296 411.88 631.984C411.304 631.936 409.744 631.888 409.168 631.888C409.192 632.152 409.216 632.584 409.216 632.896V634.144H404.8C404.824 634.384 404.848 634.72 404.848 634.888V644.44C404.848 644.8 404.848 645.184 404.8 645.472H407.368C407.32 645.184 407.32 644.8 407.32 644.44V636.616H409.216V646.552C409.216 647.008 409.192 647.488 409.168 647.848H411.88C411.856 647.488 411.832 647.008 411.832 646.552V643.264C412.12 644.032 412.552 645.112 412.744 645.592C415.192 645.592 416.344 644.656 416.344 643.36C416.344 643.048 416.296 641.704 416.296 641.32V634.912ZM398.824 637.888C398.848 637.264 398.848 636.616 398.848 635.944V634.84H400.984V637.888H398.824ZM413.728 642.592C413.728 643.024 413.536 643.192 412.888 643.192C412.528 643.192 412.096 643.144 411.832 643.096V636.616H413.728V641.32V642.592Z" fill="#4F91B0"/>
<path d="M588.848 626.656H581.048C581.072 626.896 581.096 627.256 581.096 627.424V635.872C581.096 640.768 580.28 644.176 578.984 646.024C579.656 646.528 580.736 647.368 581.192 647.824C582.272 646.288 583.04 643.528 583.4 640.216H586.328V643.264V644.488C586.328 644.944 586.064 645.112 585.272 645.112C584.624 645.112 583.904 645.016 583.88 645.016C584.24 645.832 584.792 647.176 584.984 647.752C587.624 647.752 588.848 646.744 588.848 645.328C588.848 645.04 588.8 643.648 588.8 643.264V627.952C588.8 627.52 588.824 627.112 588.848 626.656ZM600.056 634.96H597.08V629.728H599.624C600.152 629.728 600.608 629.728 601.016 629.752V627.184C600.608 627.208 600.152 627.208 599.624 627.208H591.704C591.176 627.208 590.72 627.208 590.312 627.184V629.752C590.72 629.728 591.176 629.728 591.704 629.728H594.248V634.96H591.44C590.84 634.96 590.36 634.96 589.952 634.936V637.624C590.36 637.6 590.84 637.6 591.44 637.6H594.248V646.216C594.248 646.744 594.248 647.32 594.2 647.776H597.128C597.104 647.32 597.08 646.744 597.08 646.216V637.6H600.056C600.608 637.6 601.112 637.6 601.52 637.624V634.936C601.088 634.96 600.608 634.96 600.056 634.96ZM586.328 629.2V632.344H583.592V629.2H586.328ZM583.568 637.792C583.592 637.192 583.616 636.568 583.616 635.944V634.744H586.328V637.792H583.568ZM623.624 641.848C623.6 644.488 623.432 645.328 623.12 645.352C622.784 645.352 622.304 644.68 621.896 642.52C622.856 640.888 623.576 638.92 624.176 636.496C624.2 636.424 624.248 636.352 624.296 636.304L622.592 635.056C622.304 636.616 621.944 637.984 621.464 639.184C621.32 637.744 621.248 636.016 621.2 633.904H622.856C623.432 633.904 623.912 633.904 624.344 633.952V631.816C624.128 631.84 623.864 631.864 623.624 631.864L624.296 631.192C623.816 630.664 623.192 630.088 622.712 629.728H622.808C623.408 629.728 623.912 629.728 624.368 629.752V627.592C623.912 627.64 623.408 627.64 622.808 627.64H620.84V626.656C620.84 626.512 620.84 626.296 620.864 626.104C620.36 626.056 618.944 626.008 618.44 626.008C618.464 626.224 618.464 626.464 618.464 626.656V627.64H615.824V626.656C615.824 626.512 615.824 626.296 615.848 626.104C615.344 626.056 613.928 626.008 613.448 626.008C613.472 626.224 613.472 626.464 613.472 626.656V627.64H611.72C611.096 627.64 610.616 627.64 610.136 627.592V629.752C610.616 629.728 611.096 629.728 611.72 629.728H613.472V630.28C613.472 630.52 613.448 630.76 613.424 630.952H615.872C615.848 630.76 615.824 630.544 615.824 630.28V629.728H618.464V630.28C618.464 630.52 618.44 630.76 618.416 630.952H619.04C619.04 631.072 619.064 631.192 619.064 631.336V631.864H610.304C610.328 632.08 610.352 632.392 610.352 632.56V639.256C610.352 641.968 609.992 643.72 609.416 644.992C609.392 644.416 609.368 643.528 609.368 643.24V627.952C609.368 627.568 609.368 627.184 609.416 626.776H603.68C603.704 626.968 603.728 627.28 603.728 627.424V635.824C603.728 640.912 603.128 644.224 602.384 646C602.96 646.552 603.824 647.464 604.16 647.872C604.88 646.336 605.384 643.624 605.624 640.288H607.328V643.24V644.512C607.328 644.896 607.16 645.016 606.56 645.016C606.128 645.016 605.624 644.944 605.6 644.944L606.584 647.632C608.048 647.632 609.008 646.984 609.32 646.048C609.728 646.576 610.256 647.248 610.496 647.656C611.816 646.072 612.536 643.072 612.536 639.376V633.904H619.136C619.28 637.432 619.52 640.096 619.832 642.112C619.424 642.664 618.992 643.144 618.488 643.6V642.808C618.176 642.832 617.912 642.832 617.648 642.832H617.336V641.608H618.392L618.368 641.056V638.68C618.368 638.464 618.368 638.296 618.392 638.128H617.336V636.928H617.672C617.936 636.928 618.2 636.928 618.512 636.952V635.128C618.2 635.152 617.936 635.152 617.672 635.152H613.232C613.256 635.392 613.256 635.68 613.256 635.968V643.792C613.256 644.08 613.256 644.344 613.232 644.608H617.216C616.4 645.16 615.488 645.64 614.456 646.048C614.984 646.504 615.8 647.224 616.16 647.608C617.888 646.744 619.256 645.76 620.36 644.56C621.08 647.056 622.016 647.752 623.072 647.752C624.536 647.752 625.064 646.312 625.184 643.672C624.752 643.288 624.032 642.4 623.624 641.848ZM607.328 629.32V632.416H605.768V629.32H607.328ZM621.176 631.408C621.176 631.096 621.176 630.832 621.2 630.712C621.176 630.688 621.032 630.688 620.84 630.664V630.28V629.728H622.136C621.848 629.968 621.536 630.232 621.296 630.472C621.728 630.808 622.304 631.336 622.784 631.864H621.176V631.408ZM605.744 637.888C605.768 637.216 605.768 636.544 605.768 635.848V634.84H607.328V637.888H605.744ZM615.968 636.928V638.128H615.008V636.928H615.968ZM615.008 639.424H616.952V640.312H615.008V639.424ZM615.008 641.608H615.968V642.832H615.008V641.608Z" fill="#4F91B0"/>
<path d="M794.112 632.848C795.384 631.552 796.32 629.944 796.848 627.952C796.944 627.904 797.016 627.88 797.088 627.856C796.416 627.304 795.528 626.776 795.048 626.536L794.808 626.752H788.376C787.944 626.752 787.608 626.752 787.248 626.728V628.96C787.608 628.936 787.92 628.936 788.328 628.936C788.76 630.352 789.48 631.624 790.392 632.704C789.216 633.328 787.872 633.76 786.432 634C786.864 634.72 787.536 635.824 787.752 636.28C789.384 635.848 790.896 635.224 792.192 634.408C793.488 635.368 795.048 636.112 796.8 636.496C797.04 635.944 797.496 634.84 797.76 634.168C796.368 633.904 795.144 633.472 794.112 632.848ZM786.384 636.04V634.144C786 634.168 785.664 634.168 785.256 634.168H783.552V633.184H785.928L785.904 632.608V630.112C785.904 629.896 785.904 629.728 785.928 629.536H783.552V628.6H785.28C785.664 628.6 786.024 628.6 786.408 628.624V626.728C786.024 626.752 785.664 626.752 785.28 626.752H776.688C776.712 626.992 776.736 627.304 776.736 627.616V635.128C776.736 635.464 776.712 635.752 776.688 636.016H785.256C785.664 636.016 786.024 636.016 786.384 636.04ZM781.392 628.6V629.536H779.04V628.6H781.392ZM790.752 628.936H793.992C793.632 629.896 793.032 630.712 792.264 631.408C791.616 630.688 791.112 629.872 790.752 628.936ZM783.792 631.744H779.04V631H783.792V631.744ZM779.04 633.184H781.392V634.168H779.04V633.184ZM793.848 637.672C793.848 637.408 793.848 637.168 793.872 636.928H779.232C779.256 637.168 779.28 637.552 779.28 637.744V646.648C779.28 647.008 779.28 647.392 779.232 647.656H781.992C781.944 647.392 781.944 647.008 781.944 646.648V643.936H791.184V644.56C791.184 645.088 790.728 645.352 789.408 645.352C788.496 645.352 787.416 645.232 786.96 645.16C787.344 645.904 787.968 647.08 788.232 647.68C792.528 647.68 793.896 646.768 793.896 645.16C793.896 644.848 793.848 643.792 793.848 643.456V637.672ZM791.184 638.728V639.616H781.944V638.728H791.184ZM781.944 641.344H791.184V642.232H781.944V641.344ZM819.624 641.848C819.6 644.488 819.432 645.328 819.12 645.352C818.784 645.352 818.304 644.68 817.896 642.52C818.856 640.888 819.576 638.92 820.176 636.496C820.2 636.424 820.248 636.352 820.296 636.304L818.592 635.056C818.304 636.616 817.944 637.984 817.464 639.184C817.32 637.744 817.248 636.016 817.2 633.904H818.856C819.432 633.904 819.912 633.904 820.344 633.952V631.816C820.128 631.84 819.864 631.864 819.624 631.864L820.296 631.192C819.816 630.664 819.192 630.088 818.712 629.728H818.808C819.408 629.728 819.912 629.728 820.368 629.752V627.592C819.912 627.64 819.408 627.64 818.808 627.64H816.84V626.656C816.84 626.512 816.84 626.296 816.864 626.104C816.36 626.056 814.944 626.008 814.44 626.008C814.464 626.224 814.464 626.464 814.464 626.656V627.64H811.824V626.656C811.824 626.512 811.824 626.296 811.848 626.104C811.344 626.056 809.928 626.008 809.448 626.008C809.472 626.224 809.472 626.464 809.472 626.656V627.64H807.72C807.096 627.64 806.616 627.64 806.136 627.592V629.752C806.616 629.728 807.096 629.728 807.72 629.728H809.472V630.28C809.472 630.52 809.448 630.76 809.424 630.952H811.872C811.848 630.76 811.824 630.544 811.824 630.28V629.728H814.464V630.28C814.464 630.52 814.44 630.76 814.416 630.952H815.04C815.04 631.072 815.064 631.192 815.064 631.336V631.864H806.304C806.328 632.08 806.352 632.392 806.352 632.56V639.256C806.352 641.968 805.992 643.72 805.416 644.992C805.392 644.416 805.368 643.528 805.368 643.24V627.952C805.368 627.568 805.368 627.184 805.416 626.776H799.68C799.704 626.968 799.728 627.28 799.728 627.424V635.824C799.728 640.912 799.128 644.224 798.384 646C798.96 646.552 799.824 647.464 800.16 647.872C800.88 646.336 801.384 643.624 801.624 640.288H803.328V643.24V644.512C803.328 644.896 803.16 645.016 802.56 645.016C802.128 645.016 801.624 644.944 801.6 644.944L802.584 647.632C804.048 647.632 805.008 646.984 805.32 646.048C805.728 646.576 806.256 647.248 806.496 647.656C807.816 646.072 808.536 643.072 808.536 639.376V633.904H815.136C815.28 637.432 815.52 640.096 815.832 642.112C815.424 642.664 814.992 643.144 814.488 643.6V642.808C814.176 642.832 813.912 642.832 813.648 642.832H813.336V641.608H814.392L814.368 641.056V638.68C814.368 638.464 814.368 638.296 814.392 638.128H813.336V636.928H813.672C813.936 636.928 814.2 636.928 814.512 636.952V635.128C814.2 635.152 813.936 635.152 813.672 635.152H809.232C809.256 635.392 809.256 635.68 809.256 635.968V643.792C809.256 644.08 809.256 644.344 809.232 644.608H813.216C812.4 645.16 811.488 645.64 810.456 646.048C810.984 646.504 811.8 647.224 812.16 647.608C813.888 646.744 815.256 645.76 816.36 644.56C817.08 647.056 818.016 647.752 819.072 647.752C820.536 647.752 821.064 646.312 821.184 643.672C820.752 643.288 820.032 642.4 819.624 641.848ZM803.328 629.32V632.416H801.768V629.32H803.328ZM817.176 631.408C817.176 631.096 817.176 630.832 817.2 630.712C817.176 630.688 817.032 630.688 816.84 630.664V630.28V629.728H818.136C817.848 629.968 817.536 630.232 817.296 630.472C817.728 630.808 818.304 631.336 818.784 631.864H817.176V631.408ZM801.744 637.888C801.768 637.216 801.768 636.544 801.768 635.848V634.84H803.328V637.888H801.744ZM811.968 636.928V638.128H811.008V636.928H811.968ZM811.008 639.424H812.952V640.312H811.008V639.424ZM811.008 641.608H811.968V642.832H811.008V641.608Z" fill="#4F91B0"/>
<path d="M982.744 629.44V630.04C982.744 630.28 982.744 630.544 982.72 630.712H985.168C985.144 630.52 985.144 630.304 985.144 630.04V629.44H987.808V630.04C987.808 630.28 987.808 630.544 987.784 630.712H990.232C990.208 630.52 990.208 630.304 990.208 630.04V629.44H991.888C992.512 629.44 992.992 629.44 993.448 629.464V627.232C992.992 627.256 992.512 627.256 991.888 627.256H990.208V626.656C990.208 626.512 990.208 626.272 990.232 626.104C989.728 626.056 988.288 626.008 987.784 625.984C987.808 626.224 987.808 626.464 987.808 626.656V627.256H985.144V626.656C985.144 626.512 985.144 626.272 985.168 626.104C984.664 626.056 983.224 626.008 982.72 625.984C982.744 626.224 982.744 626.464 982.744 626.656V627.256H981.208C980.584 627.256 980.08 627.256 979.624 627.232V629.464C980.08 629.44 980.584 629.44 981.208 629.44H982.744ZM979.168 626.608H972.592C972.616 626.824 972.64 627.136 972.64 627.304V635.776C972.64 640.72 971.92 644.224 970.984 646.024C971.56 646.528 972.496 647.368 972.88 647.776C973.768 646.24 974.392 643.48 974.68 640.096H976.912V643.216V644.464C976.912 644.872 976.72 645.04 976.048 645.04C975.64 645.04 975.136 644.992 974.896 644.944C975.208 645.76 975.712 647.056 975.928 647.584C978.064 647.584 979.168 646.624 979.168 645.304C979.168 645.064 979.12 643.624 979.12 643.216V627.856C979.12 627.424 979.144 627.016 979.168 626.608ZM976.912 629.128V632.224H974.848V629.128H976.912ZM981.232 640.408C982.048 639.736 982.888 638.776 983.608 637.624C984.16 638.416 984.832 639.112 985.552 639.64C985.72 639.376 986.056 638.944 986.392 638.536C986.872 638.944 987.424 639.448 987.664 639.736C988.288 639.136 988.912 638.392 989.464 637.528C990.256 638.704 991.288 639.736 992.296 640.336C992.512 639.784 993.088 638.872 993.472 638.344C992.272 637.792 991.192 636.808 990.472 635.536C990.616 635.176 990.736 634.816 990.856 634.456C990.88 634.384 990.952 634.24 991.024 634.168L989.44 633.808H991.576C992.2 633.808 992.68 633.808 993.136 633.832V631.528C992.68 631.576 992.2 631.576 991.576 631.576H987.736V630.856C987.736 630.712 987.76 630.496 987.784 630.352C987.232 630.304 985.744 630.256 985.192 630.256C985.216 630.448 985.24 630.736 985.24 630.832V631.576H981.376C980.776 631.576 980.272 631.576 979.816 631.528V633.832C980.272 633.808 980.776 633.808 981.376 633.808H982.888C982.288 635.968 980.824 637.792 979.456 638.704C980.032 639.232 980.896 640.048 981.232 640.408ZM988.888 633.808C988.456 635.368 987.736 636.736 986.704 637.72C985.792 637.264 985.024 636.424 984.64 635.656C984.784 635.296 984.928 634.936 985.048 634.552C985.072 634.504 985.12 634.36 985.168 634.288L983.368 633.808H988.888ZM974.824 637.672C974.848 637.072 974.848 636.448 974.848 635.824V634.648H976.912V637.672H974.824ZM987.856 641.416V640.672C987.856 640.48 987.856 640.216 987.88 640.024C987.328 639.976 985.768 639.928 985.216 639.928C985.24 640.168 985.24 640.432 985.24 640.672V641.416H981.448C980.824 641.416 980.32 641.416 979.864 641.368V643.792C980.32 643.744 980.824 643.744 981.448 643.744H985.24V646.96C985.24 647.224 985.216 647.536 985.192 647.776H987.904C987.88 647.536 987.856 647.248 987.856 646.96V643.744H991.792C992.416 643.744 992.92 643.744 993.376 643.792V641.368C992.92 641.416 992.416 641.416 991.792 641.416H987.856ZM1015.62 641.848C1015.6 644.488 1015.43 645.328 1015.12 645.352C1014.78 645.352 1014.3 644.68 1013.9 642.52C1014.86 640.888 1015.58 638.92 1016.18 636.496C1016.2 636.424 1016.25 636.352 1016.3 636.304L1014.59 635.056C1014.3 636.616 1013.94 637.984 1013.46 639.184C1013.32 637.744 1013.25 636.016 1013.2 633.904H1014.86C1015.43 633.904 1015.91 633.904 1016.34 633.952V631.816C1016.13 631.84 1015.86 631.864 1015.62 631.864L1016.3 631.192C1015.82 630.664 1015.19 630.088 1014.71 629.728H1014.81C1015.41 629.728 1015.91 629.728 1016.37 629.752V627.592C1015.91 627.64 1015.41 627.64 1014.81 627.64H1012.84V626.656C1012.84 626.512 1012.84 626.296 1012.86 626.104C1012.36 626.056 1010.94 626.008 1010.44 626.008C1010.46 626.224 1010.46 626.464 1010.46 626.656V627.64H1007.82V626.656C1007.82 626.512 1007.82 626.296 1007.85 626.104C1007.34 626.056 1005.93 626.008 1005.45 626.008C1005.47 626.224 1005.47 626.464 1005.47 626.656V627.64H1003.72C1003.1 627.64 1002.62 627.64 1002.14 627.592V629.752C1002.62 629.728 1003.1 629.728 1003.72 629.728H1005.47V630.28C1005.47 630.52 1005.45 630.76 1005.42 630.952H1007.87C1007.85 630.76 1007.82 630.544 1007.82 630.28V629.728H1010.46V630.28C1010.46 630.52 1010.44 630.76 1010.42 630.952H1011.04C1011.04 631.072 1011.06 631.192 1011.06 631.336V631.864H1002.3C1002.33 632.08 1002.35 632.392 1002.35 632.56V639.256C1002.35 641.968 1001.99 643.72 1001.42 644.992C1001.39 644.416 1001.37 643.528 1001.37 643.24V627.952C1001.37 627.568 1001.37 627.184 1001.42 626.776H995.68C995.704 626.968 995.728 627.28 995.728 627.424V635.824C995.728 640.912 995.128 644.224 994.384 646C994.96 646.552 995.824 647.464 996.16 647.872C996.88 646.336 997.384 643.624 997.624 640.288H999.328V643.24V644.512C999.328 644.896 999.16 645.016 998.56 645.016C998.128 645.016 997.624 644.944 997.6 644.944L998.584 647.632C1000.05 647.632 1001.01 646.984 1001.32 646.048C1001.73 646.576 1002.26 647.248 1002.5 647.656C1003.82 646.072 1004.54 643.072 1004.54 639.376V633.904H1011.14C1011.28 637.432 1011.52 640.096 1011.83 642.112C1011.42 642.664 1010.99 643.144 1010.49 643.6V642.808C1010.18 642.832 1009.91 642.832 1009.65 642.832H1009.34V641.608H1010.39L1010.37 641.056V638.68C1010.37 638.464 1010.37 638.296 1010.39 638.128H1009.34V636.928H1009.67C1009.94 636.928 1010.2 636.928 1010.51 636.952V635.128C1010.2 635.152 1009.94 635.152 1009.67 635.152H1005.23C1005.26 635.392 1005.26 635.68 1005.26 635.968V643.792C1005.26 644.08 1005.26 644.344 1005.23 644.608H1009.22C1008.4 645.16 1007.49 645.64 1006.46 646.048C1006.98 646.504 1007.8 647.224 1008.16 647.608C1009.89 646.744 1011.26 645.76 1012.36 644.56C1013.08 647.056 1014.02 647.752 1015.07 647.752C1016.54 647.752 1017.06 646.312 1017.18 643.672C1016.75 643.288 1016.03 642.4 1015.62 641.848ZM999.328 629.32V632.416H997.768V629.32H999.328ZM1013.18 631.408C1013.18 631.096 1013.18 630.832 1013.2 630.712C1013.18 630.688 1013.03 630.688 1012.84 630.664V630.28V629.728H1014.14C1013.85 629.968 1013.54 630.232 1013.3 630.472C1013.73 630.808 1014.3 631.336 1014.78 631.864H1013.18V631.408ZM997.744 637.888C997.768 637.216 997.768 636.544 997.768 635.848V634.84H999.328V637.888H997.744ZM1007.97 636.928V638.128H1007.01V636.928H1007.97ZM1007.01 639.424H1008.95V640.312H1007.01V639.424ZM1007.01 641.608H1007.97V642.832H1007.01V641.608Z" fill="#4F91B0"/>
<path d="M166 233C166 221.954 174.954 213 186 213V213C197.046 213 206 221.954 206 233V600H166V233Z" fill="#1D7998"/>
<path d="M362 433C362 421.954 370.954 413 382 413V413C393.046 413 402 421.954 402 433V600H362V433Z" fill="#1D7998"/>
<path d="M558 455C558 443.954 566.954 435 578 435V435C589.046 435 598 443.954 598 455V600H558V455Z" fill="#1D7998"/>
<path d="M754 120C754 108.954 762.954 100 774 100V100C785.046 100 794 108.954 794 120V600H754V120Z" fill="#1D7998"/>
<path d="M950 512C950 500.954 958.954 492 970 492V492C981.046 492 990 500.954 990 512V600H950V512Z" fill="#1D7998"/>
<path d="M214 590C214 578.954 222.954 570 234 570V570C245.046 570 254 578.954 254 590V600H214V590Z" fill="#23A2C5"/>
<path d="M410 595C410 583.954 418.954 575 430 575V575C441.046 575 450 583.954 450 595V600H410V595Z" fill="#23A2C5"/>
<path d="M606 590C606 578.954 614.954 570 626 570V570C637.046 570 646 578.954 646 590V600H606V590Z" fill="#23A2C5"/>
<path d="M802 562C802 550.954 810.954 542 822 542V542C833.046 542 842 550.954 842 562V600H802V562Z" fill="#23A2C5"/>
<path d="M998 600C998 596.686 1000.69 594 1004 594H1032C1035.31 594 1038 596.686 1038 600V600H998V600Z" fill="#23A2C5"/>
<circle cx="759" cy="55" r="11" fill="#1D7998"/>
<circle cx="932" cy="55" r="11" fill="#23A2C5"/>
</g>
<defs>
<clipPath id="clip0_1666_8317">
<rect width="1092" height="700" fill="white"/>
</clipPath>
</defs>
</svg>
