<svg width="1092" height="700" viewBox="0 0 1092 700" fill="none" xmlns="http://www.w3.org/2000/svg">
<g clip-path="url(#clip0_1666_8513)">
<line x1="112" y1="499.5" x2="1092" y2="499.5" stroke="#A3CBDB"/>
<line x1="112" y1="599.5" x2="1092" y2="599.5" stroke="#80B7C6"/>
<line x1="112" y1="399.5" x2="1092" y2="399.5" stroke="#A3CBDB"/>
<line x1="112" y1="299.5" x2="1092" y2="299.5" stroke="#A3CBDB"/>
<line x1="112" y1="199.5" x2="1092" y2="199.5" stroke="#A3CBDB"/>
<line x1="112" y1="99.5" x2="1092" y2="99.4999" stroke="#A3CBDB"/>
<path d="M37.7764 198.72C38.7364 198.1 39.3764 197.1 39.3764 195.76C39.3764 193.06 37.2564 191.74 34.9364 191.74C32.5964 191.74 30.4964 193.06 30.4964 195.76C30.4964 197.1 31.1364 198.1 32.0764 198.72C30.7964 199.44 30.0164 200.66 30.0164 202.12C30.0164 204.72 32.0164 206.26 34.9364 206.26C37.8564 206.26 39.8364 204.72 39.8364 202.12C39.8364 200.64 39.0764 199.44 37.7764 198.72ZM34.9364 193.92C36.0964 193.92 37.0764 194.56 37.0764 195.86C37.0764 197.1 36.0964 197.8 34.9364 197.8C33.7564 197.8 32.7964 197.1 32.7964 195.86C32.7964 194.56 33.7564 193.92 34.9364 193.92ZM34.9364 204.08C33.4164 204.08 32.3164 203.32 32.3164 201.9C32.3164 200.46 33.4164 199.72 34.9364 199.72C36.4364 199.72 37.5364 200.46 37.5364 201.9C37.5364 203.32 36.4364 204.08 34.9364 204.08ZM46.8273 206.26C50.3473 206.26 52.3273 203.32 52.3273 199C52.3273 194.68 50.3473 191.74 46.8273 191.74C43.3073 191.74 41.3273 194.68 41.3273 199C41.3273 203.32 43.3073 206.26 46.8273 206.26ZM46.8273 204.02C44.7673 204.02 43.6273 202.22 43.6273 199C43.6273 195.78 44.7673 193.98 46.8273 193.98C48.9073 193.98 50.0273 195.78 50.0273 199C50.0273 202.22 48.9073 204.02 46.8273 204.02ZM56.7795 203.6H54.3795L53.5795 208.8H55.3795L56.7795 203.6ZM63.507 206.26C67.027 206.26 69.007 203.32 69.007 199C69.007 194.68 67.027 191.74 63.507 191.74C59.987 191.74 58.007 194.68 58.007 199C58.007 203.32 59.987 206.26 63.507 206.26ZM63.507 204.02C61.447 204.02 60.307 202.22 60.307 199C60.307 195.78 61.447 193.98 63.507 193.98C65.587 193.98 66.707 195.78 66.707 199C66.707 202.22 65.587 204.02 63.507 204.02ZM76.1047 206.26C79.6247 206.26 81.6047 203.32 81.6047 199C81.6047 194.68 79.6247 191.74 76.1047 191.74C72.5847 191.74 70.6047 194.68 70.6047 199C70.6047 203.32 72.5847 206.26 76.1047 206.26ZM76.1047 204.02C74.0447 204.02 72.9047 202.22 72.9047 199C72.9047 195.78 74.0447 193.98 76.1047 193.98C78.1847 193.98 79.3047 195.78 79.3047 199C79.3047 202.22 78.1847 204.02 76.1047 204.02ZM88.7023 206.26C92.2223 206.26 94.2023 203.32 94.2023 199C94.2023 194.68 92.2223 191.74 88.7023 191.74C85.1823 191.74 83.2023 194.68 83.2023 199C83.2023 203.32 85.1823 206.26 88.7023 206.26ZM88.7023 204.02C86.6423 204.02 85.5023 202.22 85.5023 199C85.5023 195.78 86.6423 193.98 88.7023 193.98C90.7823 193.98 91.9023 195.78 91.9023 199C91.9023 202.22 90.7823 204.02 88.7023 204.02Z" fill="#80B7C6"/>
<path d="M24.4283 92L20.7483 93.3L21.3083 95.26L24.1283 94.46V106H26.4283V92H24.4283ZM34.2297 106.26C37.7497 106.26 39.7297 103.32 39.7297 99C39.7297 94.68 37.7497 91.74 34.2297 91.74C30.7097 91.74 28.7297 94.68 28.7297 99C28.7297 103.32 30.7097 106.26 34.2297 106.26ZM34.2297 104.02C32.1697 104.02 31.0297 102.22 31.0297 99C31.0297 95.78 32.1697 93.98 34.2297 93.98C36.3097 93.98 37.4297 95.78 37.4297 99C37.4297 102.22 36.3097 104.02 34.2297 104.02ZM46.8273 106.26C50.3473 106.26 52.3273 103.32 52.3273 99C52.3273 94.68 50.3473 91.74 46.8273 91.74C43.3073 91.74 41.3273 94.68 41.3273 99C41.3273 103.32 43.3073 106.26 46.8273 106.26ZM46.8273 104.02C44.7673 104.02 43.6273 102.22 43.6273 99C43.6273 95.78 44.7673 93.98 46.8273 93.98C48.9073 93.98 50.0273 95.78 50.0273 99C50.0273 102.22 48.9073 104.02 46.8273 104.02ZM56.7795 103.6H54.3795L53.5795 108.8H55.3795L56.7795 103.6ZM63.507 106.26C67.027 106.26 69.007 103.32 69.007 99C69.007 94.68 67.027 91.74 63.507 91.74C59.987 91.74 58.007 94.68 58.007 99C58.007 103.32 59.987 106.26 63.507 106.26ZM63.507 104.02C61.447 104.02 60.307 102.22 60.307 99C60.307 95.78 61.447 93.98 63.507 93.98C65.587 93.98 66.707 95.78 66.707 99C66.707 102.22 65.587 104.02 63.507 104.02ZM76.1047 106.26C79.6247 106.26 81.6047 103.32 81.6047 99C81.6047 94.68 79.6247 91.74 76.1047 91.74C72.5847 91.74 70.6047 94.68 70.6047 99C70.6047 103.32 72.5847 106.26 76.1047 106.26ZM76.1047 104.02C74.0447 104.02 72.9047 102.22 72.9047 99C72.9047 95.78 74.0447 93.98 76.1047 93.98C78.1847 93.98 79.3047 95.78 79.3047 99C79.3047 102.22 78.1847 104.02 76.1047 104.02ZM88.7023 106.26C92.2223 106.26 94.2023 103.32 94.2023 99C94.2023 94.68 92.2223 91.74 88.7023 91.74C85.1823 91.74 83.2023 94.68 83.2023 99C83.2023 103.32 85.1823 106.26 88.7023 106.26ZM88.7023 104.02C86.6423 104.02 85.5023 102.22 85.5023 99C85.5023 95.78 86.6423 93.98 88.7023 93.98C90.7823 93.98 91.9023 95.78 91.9023 99C91.9023 102.22 90.7823 104.02 88.7023 104.02Z" fill="#80B7C6"/>
<path d="M35.0889 296.7H34.8289L38.0289 292H35.4089L30.9689 298.66C30.4289 299.44 30.1289 300.4 30.1289 301.48C30.1289 304.3 32.1689 306.26 35.0889 306.26C37.9889 306.26 40.0289 304.3 40.0289 301.48C40.0289 298.66 37.9889 296.7 35.0889 296.7ZM35.0889 304.08C33.5489 304.08 32.4289 303.08 32.4289 301.48C32.4289 299.88 33.5489 298.88 35.0889 298.88C36.6089 298.88 37.7289 299.88 37.7289 301.48C37.7289 303.06 36.6089 304.08 35.0889 304.08ZM46.8273 306.26C50.3473 306.26 52.3273 303.32 52.3273 299C52.3273 294.68 50.3473 291.74 46.8273 291.74C43.3073 291.74 41.3273 294.68 41.3273 299C41.3273 303.32 43.3073 306.26 46.8273 306.26ZM46.8273 304.02C44.7673 304.02 43.6273 302.22 43.6273 299C43.6273 295.78 44.7673 293.98 46.8273 293.98C48.9073 293.98 50.0273 295.78 50.0273 299C50.0273 302.22 48.9073 304.02 46.8273 304.02ZM56.7795 303.6H54.3795L53.5795 308.8H55.3795L56.7795 303.6ZM63.507 306.26C67.027 306.26 69.007 303.32 69.007 299C69.007 294.68 67.027 291.74 63.507 291.74C59.987 291.74 58.007 294.68 58.007 299C58.007 303.32 59.987 306.26 63.507 306.26ZM63.507 304.02C61.447 304.02 60.307 302.22 60.307 299C60.307 295.78 61.447 293.98 63.507 293.98C65.587 293.98 66.707 295.78 66.707 299C66.707 302.22 65.587 304.02 63.507 304.02ZM76.1047 306.26C79.6247 306.26 81.6047 303.32 81.6047 299C81.6047 294.68 79.6247 291.74 76.1047 291.74C72.5847 291.74 70.6047 294.68 70.6047 299C70.6047 303.32 72.5847 306.26 76.1047 306.26ZM76.1047 304.02C74.0447 304.02 72.9047 302.22 72.9047 299C72.9047 295.78 74.0447 293.98 76.1047 293.98C78.1847 293.98 79.3047 295.78 79.3047 299C79.3047 302.22 78.1847 304.02 76.1047 304.02ZM88.7023 306.26C92.2223 306.26 94.2023 303.32 94.2023 299C94.2023 294.68 92.2223 291.74 88.7023 291.74C85.1823 291.74 83.2023 294.68 83.2023 299C83.2023 303.32 85.1823 306.26 88.7023 306.26ZM88.7023 304.02C86.6423 304.02 85.5023 302.22 85.5023 299C85.5023 295.78 86.6423 293.98 88.7023 293.98C90.7823 293.98 91.9023 295.78 91.9023 299C91.9023 302.22 90.7823 304.02 88.7023 304.02Z" fill="#80B7C6"/>
<path d="M40.1858 401.34H38.5858V397.7H36.2658V401.34H31.8858L36.7058 392H34.2058L29.3858 401.34V403.48H36.2658V406H38.5858V403.48H40.1858V401.34ZM46.8273 406.26C50.3473 406.26 52.3273 403.32 52.3273 399C52.3273 394.68 50.3473 391.74 46.8273 391.74C43.3073 391.74 41.3273 394.68 41.3273 399C41.3273 403.32 43.3073 406.26 46.8273 406.26ZM46.8273 404.02C44.7673 404.02 43.6273 402.22 43.6273 399C43.6273 395.78 44.7673 393.98 46.8273 393.98C48.9073 393.98 50.0273 395.78 50.0273 399C50.0273 402.22 48.9073 404.02 46.8273 404.02ZM56.7795 403.6H54.3795L53.5795 408.8H55.3795L56.7795 403.6ZM63.507 406.26C67.027 406.26 69.007 403.32 69.007 399C69.007 394.68 67.027 391.74 63.507 391.74C59.987 391.74 58.007 394.68 58.007 399C58.007 403.32 59.987 406.26 63.507 406.26ZM63.507 404.02C61.447 404.02 60.307 402.22 60.307 399C60.307 395.78 61.447 393.98 63.507 393.98C65.587 393.98 66.707 395.78 66.707 399C66.707 402.22 65.587 404.02 63.507 404.02ZM76.1047 406.26C79.6247 406.26 81.6047 403.32 81.6047 399C81.6047 394.68 79.6247 391.74 76.1047 391.74C72.5847 391.74 70.6047 394.68 70.6047 399C70.6047 403.32 72.5847 406.26 76.1047 406.26ZM76.1047 404.02C74.0447 404.02 72.9047 402.22 72.9047 399C72.9047 395.78 74.0447 393.98 76.1047 393.98C78.1847 393.98 79.3047 395.78 79.3047 399C79.3047 402.22 78.1847 404.02 76.1047 404.02ZM88.7023 406.26C92.2223 406.26 94.2023 403.32 94.2023 399C94.2023 394.68 92.2223 391.74 88.7023 391.74C85.1823 391.74 83.2023 394.68 83.2023 399C83.2023 403.32 85.1823 406.26 88.7023 406.26ZM88.7023 404.02C86.6423 404.02 85.5023 402.22 85.5023 399C85.5023 395.78 86.6423 393.98 88.7023 393.98C90.7823 393.98 91.9023 395.78 91.9023 399C91.9023 402.22 90.7823 404.02 88.7023 404.02Z" fill="#80B7C6"/>
<path d="M30.7567 506H39.9767V503.78H34.1767L37.3367 500.62C38.6767 499.26 39.7167 497.8 39.7167 496.06C39.7167 493.28 37.5367 491.74 35.2367 491.74C33.3767 491.74 31.6167 492.66 30.7167 494.58L32.6567 495.72C33.1967 494.6 34.0967 493.98 35.2567 493.98C36.4567 493.98 37.4167 494.74 37.4167 496.14C37.4167 497.2 36.6367 498.22 35.6367 499.22L30.7567 504.2V506ZM46.8273 506.26C50.3473 506.26 52.3273 503.32 52.3273 499C52.3273 494.68 50.3473 491.74 46.8273 491.74C43.3073 491.74 41.3273 494.68 41.3273 499C41.3273 503.32 43.3073 506.26 46.8273 506.26ZM46.8273 504.02C44.7673 504.02 43.6273 502.22 43.6273 499C43.6273 495.78 44.7673 493.98 46.8273 493.98C48.9073 493.98 50.0273 495.78 50.0273 499C50.0273 502.22 48.9073 504.02 46.8273 504.02ZM56.7795 503.6H54.3795L53.5795 508.8H55.3795L56.7795 503.6ZM63.507 506.26C67.027 506.26 69.007 503.32 69.007 499C69.007 494.68 67.027 491.74 63.507 491.74C59.987 491.74 58.007 494.68 58.007 499C58.007 503.32 59.987 506.26 63.507 506.26ZM63.507 504.02C61.447 504.02 60.307 502.22 60.307 499C60.307 495.78 61.447 493.98 63.507 493.98C65.587 493.98 66.707 495.78 66.707 499C66.707 502.22 65.587 504.02 63.507 504.02ZM76.1047 506.26C79.6247 506.26 81.6047 503.32 81.6047 499C81.6047 494.68 79.6247 491.74 76.1047 491.74C72.5847 491.74 70.6047 494.68 70.6047 499C70.6047 503.32 72.5847 506.26 76.1047 506.26ZM76.1047 504.02C74.0447 504.02 72.9047 502.22 72.9047 499C72.9047 495.78 74.0447 493.98 76.1047 493.98C78.1847 493.98 79.3047 495.78 79.3047 499C79.3047 502.22 78.1847 504.02 76.1047 504.02ZM88.7023 506.26C92.2223 506.26 94.2023 503.32 94.2023 499C94.2023 494.68 92.2223 491.74 88.7023 491.74C85.1823 491.74 83.2023 494.68 83.2023 499C83.2023 503.32 85.1823 506.26 88.7023 506.26ZM88.7023 504.02C86.6423 504.02 85.5023 502.22 85.5023 499C85.5023 495.78 86.6423 493.98 88.7023 493.98C90.7823 493.98 91.9023 495.78 91.9023 499C91.9023 502.22 90.7823 504.02 88.7023 504.02Z" fill="#80B7C6"/>
<path opacity="0.8" d="M424.111 684.8L422.291 684.9L423.351 683.42L422.211 682.74L421.311 684.38L420.411 682.74L419.291 683.42L420.331 684.9L418.531 684.8V686.08L420.331 686L419.291 687.46L420.411 688.14L421.311 686.5L422.211 688.14L423.351 687.46L422.291 686L424.111 686.08V684.8ZM432.441 697.26C436.501 697.26 439.701 694.02 439.701 690C439.701 685.96 436.501 682.74 432.441 682.74C428.381 682.74 425.201 685.96 425.201 690C425.201 694.02 428.381 697.26 432.441 697.26ZM432.441 695.44C429.381 695.44 427.041 693.06 427.041 690C427.041 686.92 429.381 684.54 432.441 684.54C435.501 684.54 437.841 686.92 437.841 690C437.841 693.06 435.501 695.44 432.441 695.44ZM447.198 688.68V687H444.538V684.2L442.798 684.72V687H440.818V688.68H442.798V694.1C442.798 696.6 444.198 697.4 447.198 697V695.44C445.418 695.52 444.538 695.62 444.538 694.1V688.68H447.198ZM454.238 686.74C452.838 686.74 451.738 687.26 450.998 688.44V683H449.257V697H450.998V691.7C450.998 689.34 452.298 688.4 453.898 688.4C455.438 688.4 456.378 689.32 456.378 690.96V697H458.118V690.86C458.118 688.3 456.578 686.74 454.238 686.74ZM461.767 692.8H470.147C470.187 692.54 470.207 692.28 470.207 692.02C470.207 689.22 468.247 686.74 465.227 686.74C462.107 686.74 459.987 689.04 459.987 692C459.987 695 462.127 697.26 465.347 697.26C467.347 697.26 468.867 696.36 469.747 695L468.267 694.16C467.767 694.98 466.767 695.62 465.387 695.62C463.527 695.62 462.107 694.6 461.767 692.8ZM465.227 688.38C466.727 688.38 468.147 689.3 468.447 691.28H461.767C462.047 689.54 463.347 688.38 465.227 688.38ZM473.947 688.68V687H472.207V697H473.947V691.7C473.947 689.34 475.567 688.58 477.067 688.64V686.82C475.807 686.82 474.587 687.28 473.947 688.68ZM484.649 685.18C485.289 685.18 485.809 684.66 485.809 684.02C485.809 683.38 485.289 682.84 484.649 682.84C483.989 682.84 483.469 683.38 483.469 684.02C483.469 684.66 483.989 685.18 484.649 685.18ZM483.769 697H485.509V687H483.769V697ZM493.144 686.74C491.744 686.74 490.644 687.26 489.904 688.44V687H488.164V697H489.904V691.7C489.904 689.34 491.204 688.4 492.804 688.4C494.344 688.4 495.284 689.32 495.284 690.96V697H497.024V690.86C497.024 688.3 495.484 686.74 493.144 686.74ZM504.153 697.26C506.113 697.26 507.813 696.22 508.653 694.66L507.173 693.8C506.613 694.84 505.513 695.54 504.153 695.54C502.153 695.54 500.633 694 500.633 692C500.633 689.98 502.153 688.44 504.153 688.44C505.493 688.44 506.613 689.14 507.113 690.2L508.573 689.36C507.813 687.78 506.133 686.74 504.153 686.74C501.133 686.74 498.893 689.04 498.893 692C498.893 694.96 501.133 697.26 504.153 697.26ZM510.371 697H512.111V682.4H510.371V697ZM521.665 687V692.3C521.665 694.66 520.365 695.6 518.765 695.6C517.225 695.6 516.285 694.68 516.285 693.04V687H514.545V693.14C514.545 695.7 516.085 697.26 518.425 697.26C519.825 697.26 520.925 696.74 521.665 695.56V697H523.405V687H521.665ZM534.334 683V688.72C533.534 687.5 532.254 686.74 530.554 686.74C527.774 686.74 525.494 689.04 525.494 692C525.494 694.96 527.774 697.26 530.554 697.26C532.254 697.26 533.534 696.5 534.334 695.28V697H536.074V683H534.334ZM530.774 695.58C528.774 695.58 527.234 694.04 527.234 692C527.234 689.96 528.774 688.42 530.774 688.42C532.794 688.42 534.334 689.96 534.334 692C534.334 694.04 532.794 695.58 530.774 695.58ZM539.931 692.8H548.311C548.351 692.54 548.371 692.28 548.371 692.02C548.371 689.22 546.411 686.74 543.391 686.74C540.271 686.74 538.151 689.04 538.151 692C538.151 695 540.291 697.26 543.511 697.26C545.511 697.26 547.031 696.36 547.911 695L546.431 694.16C545.931 694.98 544.931 695.62 543.551 695.62C541.691 695.62 540.271 694.6 539.931 692.8ZM543.391 688.38C544.891 688.38 546.311 689.3 546.611 691.28H539.931C540.211 689.54 541.511 688.38 543.391 688.38ZM551.48 689.7C551.48 688.8 552.36 688.36 553.26 688.36C554.14 688.36 555.02 688.74 555.4 689.64L556.86 688.82C556.22 687.52 554.9 686.74 553.26 686.74C551.24 686.74 549.72 687.96 549.72 689.72C549.72 693.34 555.32 692.12 555.32 694.26C555.32 695.24 554.4 695.62 553.34 695.62C552.1 695.62 551.18 695.02 550.86 694.06L549.36 694.92C549.94 696.3 551.34 697.26 553.34 697.26C555.48 697.26 557.08 696.12 557.08 694.26C557.08 690.58 551.48 691.84 551.48 689.7ZM572.42 687V688.72C571.62 687.5 570.34 686.74 568.64 686.74C565.86 686.74 563.58 689.04 563.58 692C563.58 694.96 565.86 697.26 568.64 697.26C570.34 697.26 571.62 696.5 572.42 695.28V697H574.16V687H572.42ZM568.86 695.58C566.86 695.58 565.32 694.04 565.32 692C565.32 689.96 566.86 688.42 568.86 688.42C570.88 688.42 572.42 689.96 572.42 692C572.42 694.04 570.88 695.58 568.86 695.58ZM576.797 697H578.537V682.4H576.797V697ZM581.191 697H582.931V682.4H581.191V697ZM590.286 697.26C593.206 697.26 595.566 694.96 595.566 692C595.566 689.04 593.206 686.74 590.286 686.74C587.366 686.74 585.026 689.04 585.026 692C585.026 694.96 587.366 697.26 590.286 697.26ZM590.286 695.56C588.306 695.56 586.766 694.02 586.766 692C586.766 689.98 588.306 688.44 590.286 688.44C592.286 688.44 593.826 689.98 593.826 692C593.826 694.02 592.286 695.56 590.286 695.56ZM605.917 687V688.72C605.117 687.5 603.837 686.74 602.157 686.74C599.317 686.74 597.057 689.04 597.057 691.94C597.057 694.86 599.317 697.16 602.157 697.16C603.837 697.16 605.117 696.38 605.917 695.16V696.58C605.917 698.46 604.657 699.64 602.577 699.64C600.617 699.64 599.777 698.9 599.317 697.96L597.797 698.82C598.617 700.4 600.297 701.26 602.537 701.26C605.137 701.26 607.637 699.7 607.637 696.58V687H605.917ZM602.357 695.5C600.337 695.5 598.797 693.96 598.797 691.94C598.797 689.94 600.337 688.4 602.357 688.4C604.377 688.4 605.917 689.94 605.917 691.94C605.917 693.96 604.377 695.5 602.357 695.5ZM612.013 688.68V687H610.273V697H612.013V691.7C612.013 689.34 613.633 688.58 615.133 688.64V686.82C613.873 686.82 612.653 687.28 612.013 688.68ZM624.569 687V688.72C623.769 687.5 622.489 686.74 620.789 686.74C618.009 686.74 615.729 689.04 615.729 692C615.729 694.96 618.009 697.26 620.789 697.26C622.489 697.26 623.769 696.5 624.569 695.28V697H626.309V687H624.569ZM621.009 695.58C619.009 695.58 617.469 694.04 617.469 692C617.469 689.96 619.009 688.42 621.009 688.42C623.029 688.42 624.569 689.96 624.569 692C624.569 694.04 623.029 695.58 621.009 695.58ZM634.085 684.42V682.74C631.225 682.54 629.705 684.04 629.705 686.7V687H628.105V688.68H629.705V697H631.445V688.68H634.085V687H631.445V686.7C631.445 684.96 632.345 684.28 634.085 684.42ZM641.221 688.68V687H638.561V684.2L636.821 684.72V687H634.841V688.68H636.821V694.1C636.821 696.6 638.221 697.4 641.221 697V695.44C639.441 695.52 638.561 695.62 638.561 694.1V688.68H641.221ZM653.78 688.68V687H651.12V684.2L649.38 684.72V687H647.4V688.68H649.38V694.1C649.38 696.6 650.78 697.4 653.78 697V695.44C652 695.52 651.12 695.62 651.12 694.1V688.68H653.78ZM657.638 688.68V687H655.898V697H657.638V691.7C657.638 689.34 659.258 688.58 660.758 688.64V686.82C659.498 686.82 658.278 687.28 657.638 688.68ZM670.194 687V688.72C669.394 687.5 668.114 686.74 666.414 686.74C663.634 686.74 661.354 689.04 661.354 692C661.354 694.96 663.634 697.26 666.414 697.26C668.114 697.26 669.394 696.5 670.194 695.28V697H671.934V687H670.194ZM666.634 695.58C664.634 695.58 663.094 694.04 663.094 692C663.094 689.96 664.634 688.42 666.634 688.42C668.654 688.42 670.194 689.96 670.194 692C670.194 694.04 668.654 695.58 666.634 695.58ZM679.55 686.74C678.15 686.74 677.05 687.26 676.31 688.44V687H674.57V697H676.31V691.7C676.31 689.34 677.61 688.4 679.21 688.4C680.75 688.4 681.69 689.32 681.69 690.96V697H683.43V690.86C683.43 688.3 681.89 686.74 679.55 686.74ZM687.359 689.7C687.359 688.8 688.239 688.36 689.139 688.36C690.019 688.36 690.899 688.74 691.279 689.64L692.739 688.82C692.099 687.52 690.779 686.74 689.139 686.74C687.119 686.74 685.599 687.96 685.599 689.72C685.599 693.34 691.199 692.12 691.199 694.26C691.199 695.24 690.279 695.62 689.219 695.62C687.979 695.62 687.059 695.02 686.739 694.06L685.239 694.92C685.819 696.3 687.219 697.26 689.219 697.26C691.359 697.26 692.959 696.12 692.959 694.26C692.959 690.58 687.359 691.84 687.359 689.7ZM700.539 686.74C698.839 686.74 697.559 687.5 696.759 688.72V687H695.019V701H696.759V695.28C697.559 696.5 698.839 697.26 700.539 697.26C703.319 697.26 705.599 694.96 705.599 692C705.599 689.04 703.319 686.74 700.539 686.74ZM700.319 695.58C698.299 695.58 696.759 694.04 696.759 692C696.759 689.96 698.299 688.42 700.319 688.42C702.319 688.42 703.859 689.96 703.859 692C703.859 694.04 702.319 695.58 700.319 695.58ZM707.675 697H709.415V682.4H707.675V697ZM720.35 687V688.72C719.55 687.5 718.27 686.74 716.57 686.74C713.79 686.74 711.51 689.04 711.51 692C711.51 694.96 713.79 697.26 716.57 697.26C718.27 697.26 719.55 696.5 720.35 695.28V697H722.09V687H720.35ZM716.79 695.58C714.79 695.58 713.25 694.04 713.25 692C713.25 689.96 714.79 688.42 716.79 688.42C718.81 688.42 720.35 689.96 720.35 692C720.35 694.04 718.81 695.58 716.79 695.58ZM729.706 686.74C728.306 686.74 727.206 687.26 726.466 688.44V687H724.726V697H726.466V691.7C726.466 689.34 727.766 688.4 729.366 688.4C730.906 688.4 731.846 689.32 731.846 690.96V697H733.586V690.86C733.586 688.3 732.046 686.74 729.706 686.74ZM741.455 688.68V687H738.795V684.2L737.055 684.72V687H735.075V688.68H737.055V694.1C737.055 696.6 738.455 697.4 741.455 697V695.44C739.675 695.52 738.795 695.62 738.795 694.1V688.68H741.455ZM744.527 689.7C744.527 688.8 745.407 688.36 746.307 688.36C747.187 688.36 748.067 688.74 748.447 689.64L749.907 688.82C749.267 687.52 747.947 686.74 746.307 686.74C744.287 686.74 742.767 687.96 742.767 689.72C742.767 693.34 748.367 692.12 748.367 694.26C748.367 695.24 747.447 695.62 746.387 695.62C745.147 695.62 744.227 695.02 743.907 694.06L742.407 694.92C742.987 696.3 744.387 697.26 746.387 697.26C748.527 697.26 750.127 696.12 750.127 694.26C750.127 690.58 744.527 691.84 744.527 689.7ZM757.187 697H758.927V682.4H757.187V697ZM762.462 685.18C763.102 685.18 763.622 684.66 763.622 684.02C763.622 683.38 763.102 682.84 762.462 682.84C761.802 682.84 761.282 683.38 761.282 684.02C761.282 684.66 761.802 685.18 762.462 685.18ZM761.582 697H763.322V687H761.582V697ZM771.116 684.42V682.74C768.256 682.54 766.736 684.04 766.736 686.7V687H765.136V688.68H766.736V697H768.476V688.68H771.116V687H768.476V686.7C768.476 684.96 769.376 684.28 771.116 684.42ZM773.114 692.8H781.494C781.534 692.54 781.554 692.28 781.554 692.02C781.554 689.22 779.594 686.74 776.574 686.74C773.454 686.74 771.334 689.04 771.334 692C771.334 695 773.474 697.26 776.694 697.26C778.694 697.26 780.214 696.36 781.094 695L779.614 694.16C779.114 694.98 778.114 695.62 776.734 695.62C774.874 695.62 773.454 694.6 773.114 692.8ZM776.574 688.38C778.074 688.38 779.494 689.3 779.794 691.28H773.114C773.394 689.54 774.694 688.38 776.574 688.38ZM793.694 684.42V682.74C790.834 682.54 789.314 684.04 789.314 686.7V687H787.714V688.68H789.314V697H791.054V688.68H793.694V687H791.054V686.7C791.054 684.96 791.954 684.28 793.694 684.42ZM802.752 687V688.72C801.952 687.5 800.672 686.74 798.972 686.74C796.192 686.74 793.912 689.04 793.912 692C793.912 694.96 796.192 697.26 798.972 697.26C800.672 697.26 801.952 696.5 802.752 695.28V697H804.492V687H802.752ZM799.192 695.58C797.192 695.58 795.652 694.04 795.652 692C795.652 689.96 797.192 688.42 799.192 688.42C801.212 688.42 802.752 689.96 802.752 692C802.752 694.04 801.212 695.58 799.192 695.58ZM811.829 697.26C813.789 697.26 815.489 696.22 816.329 694.66L814.849 693.8C814.289 694.84 813.189 695.54 811.829 695.54C809.829 695.54 808.309 694 808.309 692C808.309 689.98 809.829 688.44 811.829 688.44C813.169 688.44 814.289 689.14 814.789 690.2L816.249 689.36C815.489 687.78 813.809 686.74 811.829 686.74C808.809 686.74 806.569 689.04 806.569 692C806.569 694.96 808.809 697.26 811.829 697.26ZM819.13 692.8H827.51C827.55 692.54 827.57 692.28 827.57 692.02C827.57 689.22 825.61 686.74 822.59 686.74C819.47 686.74 817.35 689.04 817.35 692C817.35 695 819.49 697.26 822.71 697.26C824.71 697.26 826.23 696.36 827.11 695L825.63 694.16C825.13 694.98 824.13 695.62 822.75 695.62C820.89 695.62 819.47 694.6 819.13 692.8ZM822.59 688.38C824.09 688.38 825.51 689.3 825.81 691.28H819.13C819.41 689.54 820.71 688.38 822.59 688.38ZM831.369 694.94H829.369L828.569 699.8H830.069L831.369 694.94ZM843.808 686.74C842.408 686.74 841.308 687.26 840.568 688.44V683H838.828V697H840.568V691.7C840.568 689.34 841.868 688.4 843.468 688.4C845.008 688.4 845.948 689.32 845.948 690.96V697H847.688V690.86C847.688 688.3 846.148 686.74 843.808 686.74ZM858.397 687V688.72C857.597 687.5 856.317 686.74 854.617 686.74C851.837 686.74 849.557 689.04 849.557 692C849.557 694.96 851.837 697.26 854.617 697.26C856.317 697.26 857.597 696.5 858.397 695.28V697H860.137V687H858.397ZM854.837 695.58C852.837 695.58 851.297 694.04 851.297 692C851.297 689.96 852.837 688.42 854.837 688.42C856.857 688.42 858.397 689.96 858.397 692C858.397 694.04 856.857 695.58 854.837 695.58ZM867.753 686.74C866.353 686.74 865.253 687.26 864.513 688.44V687H862.773V697H864.513V691.7C864.513 689.34 865.813 688.4 867.413 688.4C868.953 688.4 869.893 689.32 869.893 690.96V697H871.633V690.86C871.633 688.3 870.093 686.74 867.753 686.74ZM882.342 683V688.72C881.542 687.5 880.262 686.74 878.562 686.74C875.782 686.74 873.502 689.04 873.502 692C873.502 694.96 875.782 697.26 878.562 697.26C880.262 697.26 881.542 696.5 882.342 695.28V697H884.082V683H882.342ZM878.782 695.58C876.782 695.58 875.242 694.04 875.242 692C875.242 689.96 876.782 688.42 878.782 688.42C880.802 688.42 882.342 689.96 882.342 692C882.342 694.04 880.802 695.58 878.782 695.58ZM888.199 689.7C888.199 688.8 889.079 688.36 889.979 688.36C890.859 688.36 891.739 688.74 892.119 689.64L893.579 688.82C892.939 687.52 891.619 686.74 889.979 686.74C887.959 686.74 886.439 687.96 886.439 689.72C886.439 693.34 892.039 692.12 892.039 694.26C892.039 695.24 891.119 695.62 890.059 695.62C888.819 695.62 887.899 695.02 887.579 694.06L886.079 694.92C886.659 696.3 888.059 697.26 890.059 697.26C892.199 697.26 893.799 696.12 893.799 694.26C893.799 690.58 888.199 691.84 888.199 689.7ZM898.244 694.94H896.244L895.444 699.8H896.944L898.244 694.94ZM913.983 687V688.72C913.183 687.5 911.903 686.74 910.203 686.74C907.423 686.74 905.143 689.04 905.143 692C905.143 694.96 907.423 697.26 910.203 697.26C911.903 697.26 913.183 696.5 913.983 695.28V697H915.723V687H913.983ZM910.423 695.58C908.423 695.58 906.883 694.04 906.883 692C906.883 689.96 908.423 688.42 910.423 688.42C912.443 688.42 913.983 689.96 913.983 692C913.983 694.04 912.443 695.58 910.423 695.58ZM923.339 686.74C921.939 686.74 920.839 687.26 920.099 688.44V687H918.359V697H920.099V691.7C920.099 689.34 921.399 688.4 922.999 688.4C924.539 688.4 925.479 689.32 925.479 690.96V697H927.219V690.86C927.219 688.3 925.679 686.74 923.339 686.74ZM937.928 683V688.72C937.128 687.5 935.848 686.74 934.148 686.74C931.368 686.74 929.088 689.04 929.088 692C929.088 694.96 931.368 697.26 934.148 697.26C935.848 697.26 937.128 696.5 937.928 695.28V697H939.668V683H937.928ZM934.368 695.58C932.368 695.58 930.828 694.04 930.828 692C930.828 689.96 932.368 688.42 934.368 688.42C936.388 688.42 937.928 689.96 937.928 692C937.928 694.04 936.388 695.58 934.368 695.58ZM955.584 687V688.72C954.784 687.5 953.504 686.74 951.804 686.74C949.024 686.74 946.744 689.04 946.744 692C946.744 694.96 949.024 697.26 951.804 697.26C953.504 697.26 954.784 696.5 955.584 695.28V697H957.324V687H955.584ZM952.024 695.58C950.024 695.58 948.484 694.04 948.484 692C948.484 689.96 950.024 688.42 952.024 688.42C954.044 688.42 955.584 689.96 955.584 692C955.584 694.04 954.044 695.58 952.024 695.58ZM965.481 686.74C963.781 686.74 962.501 687.5 961.701 688.72V683H959.961V697H961.701V695.28C962.501 696.5 963.781 697.26 965.481 697.26C968.261 697.26 970.541 694.96 970.541 692C970.541 689.04 968.261 686.74 965.481 686.74ZM965.261 695.58C963.241 695.58 961.701 694.04 961.701 692C961.701 689.96 963.241 688.42 965.261 688.42C967.261 688.42 968.801 689.96 968.801 692C968.801 694.04 967.261 695.58 965.261 695.58ZM980.897 683V688.72C980.097 687.5 978.817 686.74 977.117 686.74C974.337 686.74 972.057 689.04 972.057 692C972.057 694.96 974.337 697.26 977.117 697.26C978.817 697.26 980.097 696.5 980.897 695.28V697H982.637V683H980.897ZM977.337 695.58C975.337 695.58 973.797 694.04 973.797 692C973.797 689.96 975.337 688.42 977.337 688.42C979.357 688.42 980.897 689.96 980.897 692C980.897 694.04 979.357 695.58 977.337 695.58ZM989.973 697.26C992.893 697.26 995.253 694.96 995.253 692C995.253 689.04 992.893 686.74 989.973 686.74C987.053 686.74 984.713 689.04 984.713 692C984.713 694.96 987.053 697.26 989.973 697.26ZM989.973 695.56C987.993 695.56 986.453 694.02 986.453 692C986.453 689.98 987.993 688.44 989.973 688.44C991.973 688.44 993.513 689.98 993.513 692C993.513 694.02 991.973 695.56 989.973 695.56ZM1008.1 686.74C1006.8 686.74 1005.66 687.3 1004.96 688.44C1004.38 687.36 1003.38 686.74 1002.02 686.74C1000.8 686.74 999.764 687.22 999.044 688.34V687H997.304V697H999.044V691.44C999.044 689.28 1000.26 688.4 1001.6 688.4C1002.9 688.4 1003.72 689.26 1003.72 690.84V697H1005.46V691.44C1005.46 689.28 1006.52 688.4 1007.92 688.4C1009.24 688.4 1010.12 689.26 1010.12 690.84V697H1011.86V690.78C1011.86 688.28 1010.32 686.74 1008.1 686.74ZM1015.16 685.18C1015.8 685.18 1016.32 684.66 1016.32 684.02C1016.32 683.38 1015.8 682.84 1015.16 682.84C1014.5 682.84 1013.98 683.38 1013.98 684.02C1013.98 684.66 1014.5 685.18 1015.16 685.18ZM1014.28 697H1016.02V687H1014.28V697ZM1023.65 686.74C1022.25 686.74 1021.15 687.26 1020.41 688.44V687H1018.67V697H1020.41V691.7C1020.41 689.34 1021.71 688.4 1023.31 688.4C1024.85 688.4 1025.79 689.32 1025.79 690.96V697H1027.53V690.86C1027.53 688.3 1025.99 686.74 1023.65 686.74ZM1038.24 687V688.72C1037.44 687.5 1036.16 686.74 1034.46 686.74C1031.68 686.74 1029.4 689.04 1029.4 692C1029.4 694.96 1031.68 697.26 1034.46 697.26C1036.16 697.26 1037.44 696.5 1038.24 695.28V697H1039.98V687H1038.24ZM1034.68 695.58C1032.68 695.58 1031.14 694.04 1031.14 692C1031.14 689.96 1032.68 688.42 1034.68 688.42C1036.7 688.42 1038.24 689.96 1038.24 692C1038.24 694.04 1036.7 695.58 1034.68 695.58ZM1042.62 697H1044.36V682.4H1042.62V697ZM1063.79 687L1061.59 694.62L1059.23 687H1057.55L1055.19 694.6L1052.99 687H1051.17L1054.27 697H1056.05L1058.39 689.6L1060.73 697H1062.51L1065.61 687H1063.79ZM1075.29 687V688.72C1074.49 687.5 1073.21 686.74 1071.51 686.74C1068.73 686.74 1066.45 689.04 1066.45 692C1066.45 694.96 1068.73 697.26 1071.51 697.26C1073.21 697.26 1074.49 696.5 1075.29 695.28V697H1077.03V687H1075.29ZM1071.73 695.58C1069.73 695.58 1068.19 694.04 1068.19 692C1068.19 689.96 1069.73 688.42 1071.73 688.42C1073.75 688.42 1075.29 689.96 1075.29 692C1075.29 694.04 1073.75 695.58 1071.73 695.58ZM1079.67 697H1081.41V682.4H1079.67V697ZM1084.06 697H1085.8V682.4H1084.06V697ZM1089.56 697.22C1090.3 697.22 1090.86 696.64 1090.86 695.92C1090.86 695.2 1090.3 694.62 1089.56 694.62C1088.84 694.62 1088.26 695.2 1088.26 695.92C1088.26 696.64 1088.84 697.22 1089.56 697.22Z" fill="#4F91B0"/>
<path d="M88.7023 606.26C92.2223 606.26 94.2023 603.32 94.2023 599C94.2023 594.68 92.2223 591.74 88.7023 591.74C85.1823 591.74 83.2023 594.68 83.2023 599C83.2023 603.32 85.1823 606.26 88.7023 606.26ZM88.7023 604.02C86.6423 604.02 85.5023 602.22 85.5023 599C85.5023 595.78 86.6423 593.98 88.7023 593.98C90.7823 593.98 91.9023 595.78 91.9023 599C91.9023 602.22 90.7823 604.02 88.7023 604.02Z" fill="#80B7C6"/>
<path d="M175.901 628.008H178.925V635.208H179.069L186.101 628.008H190.181L182.237 635.856L190.709 645H186.461L179.093 636.648H178.925V645H175.901V628.008ZM191.155 633.48H194.035V645H191.155V633.48ZM190.747 629.568C190.747 629.104 190.915 628.704 191.251 628.368C191.603 628.016 192.043 627.84 192.571 627.84C193.099 627.84 193.539 628.008 193.891 628.344C194.259 628.664 194.443 629.072 194.443 629.568C194.443 630.064 194.259 630.48 193.891 630.816C193.539 631.136 193.099 631.296 192.571 631.296C192.043 631.296 191.603 631.128 191.251 630.792C190.915 630.44 190.747 630.032 190.747 629.568ZM205.502 643.272H205.454C205.038 643.976 204.478 644.488 203.774 644.808C203.07 645.128 202.31 645.288 201.494 645.288C200.598 645.288 199.798 645.136 199.094 644.832C198.406 644.512 197.814 644.08 197.318 643.536C196.822 642.992 196.446 642.352 196.19 641.616C195.934 640.88 195.806 640.088 195.806 639.24C195.806 638.392 195.942 637.6 196.214 636.864C196.486 636.128 196.862 635.488 197.342 634.944C197.838 634.4 198.43 633.976 199.118 633.672C199.806 633.352 200.558 633.192 201.374 633.192C201.918 633.192 202.398 633.248 202.814 633.36C203.23 633.472 203.598 633.616 203.918 633.792C204.238 633.968 204.51 634.16 204.734 634.368C204.958 634.56 205.142 634.752 205.286 634.944H205.358V626.856H208.238V645H205.502V643.272ZM198.686 639.24C198.686 639.688 198.758 640.12 198.902 640.536C199.062 640.952 199.286 641.32 199.574 641.64C199.878 641.96 200.238 642.216 200.654 642.408C201.07 642.6 201.542 642.696 202.07 642.696C202.598 642.696 203.07 642.6 203.486 642.408C203.902 642.216 204.254 641.96 204.542 641.64C204.846 641.32 205.07 640.952 205.214 640.536C205.374 640.12 205.454 639.688 205.454 639.24C205.454 638.792 205.374 638.36 205.214 637.944C205.07 637.528 204.846 637.16 204.542 636.84C204.254 636.52 203.902 636.264 203.486 636.072C203.07 635.88 202.598 635.784 202.07 635.784C201.542 635.784 201.07 635.88 200.654 636.072C200.238 636.264 199.878 636.52 199.574 636.84C199.286 637.16 199.062 637.528 198.902 637.944C198.758 638.36 198.686 638.792 198.686 639.24ZM210.539 633.48H213.275V635.328H213.323C213.595 634.752 214.011 634.256 214.571 633.84C215.131 633.408 215.891 633.192 216.851 633.192C217.619 633.192 218.267 633.32 218.795 633.576C219.339 633.832 219.779 634.168 220.115 634.584C220.451 635 220.691 635.48 220.835 636.024C220.979 636.568 221.051 637.136 221.051 637.728V645H218.171V639.168C218.171 638.848 218.155 638.496 218.123 638.112C218.091 637.712 218.003 637.344 217.859 637.008C217.731 636.656 217.523 636.368 217.235 636.144C216.947 635.904 216.555 635.784 216.059 635.784C215.579 635.784 215.171 635.864 214.835 636.024C214.515 636.184 214.243 636.4 214.019 636.672C213.811 636.944 213.659 637.256 213.563 637.608C213.467 637.96 213.419 638.328 213.419 638.712V645H210.539V633.48ZM225.664 640.248C225.76 641.112 226.096 641.784 226.672 642.264C227.248 642.744 227.944 642.984 228.76 642.984C229.48 642.984 230.08 642.84 230.56 642.552C231.056 642.248 231.488 641.872 231.856 641.424L233.92 642.984C233.248 643.816 232.496 644.408 231.664 644.76C230.832 645.112 229.96 645.288 229.048 645.288C228.184 645.288 227.368 645.144 226.6 644.856C225.832 644.568 225.168 644.16 224.608 643.632C224.048 643.104 223.6 642.472 223.264 641.736C222.944 640.984 222.784 640.152 222.784 639.24C222.784 638.328 222.944 637.504 223.264 636.768C223.6 636.016 224.048 635.376 224.608 634.848C225.168 634.32 225.832 633.912 226.6 633.624C227.368 633.336 228.184 633.192 229.048 633.192C229.848 633.192 230.576 633.336 231.232 633.624C231.904 633.896 232.472 634.296 232.936 634.824C233.416 635.352 233.784 636.008 234.04 636.792C234.312 637.56 234.448 638.448 234.448 639.456V640.248H225.664ZM231.568 638.088C231.552 637.24 231.288 636.576 230.776 636.096C230.264 635.6 229.552 635.352 228.64 635.352C227.776 635.352 227.088 635.6 226.576 636.096C226.08 636.592 225.776 637.256 225.664 638.088H231.568ZM234.621 633.48H237.789L241.005 641.472H241.053L243.933 633.48H246.933L241.485 647.472C241.277 648.016 241.045 648.488 240.789 648.888C240.549 649.304 240.261 649.648 239.925 649.92C239.589 650.208 239.189 650.416 238.725 650.544C238.277 650.688 237.733 650.76 237.093 650.76C236.341 650.76 235.605 650.664 234.885 650.472L235.245 647.88C235.469 647.96 235.701 648.024 235.941 648.072C236.197 648.136 236.453 648.168 236.709 648.168C237.061 648.168 237.357 648.136 237.597 648.072C237.837 648.008 238.037 647.904 238.197 647.76C238.373 647.632 238.517 647.456 238.629 647.232C238.741 647.024 238.861 646.768 238.989 646.464L239.541 645.096L234.621 633.48Z" fill="#4F91B0"/>
<path d="M784.738 45.424H788.412L795.958 56.996H796.002V45.424H798.774V61H795.254L787.554 49.054H787.51V61H784.738V45.424ZM803.238 56.644C803.326 57.436 803.634 58.052 804.162 58.492C804.69 58.932 805.328 59.152 806.076 59.152C806.736 59.152 807.286 59.02 807.726 58.756C808.18 58.4773 808.576 58.1327 808.914 57.722L810.806 59.152C810.19 59.9147 809.5 60.4573 808.738 60.78C807.975 61.1027 807.176 61.264 806.34 61.264C805.548 61.264 804.8 61.132 804.096 60.868C803.392 60.604 802.783 60.23 802.27 59.746C801.756 59.262 801.346 58.6827 801.038 58.008C800.744 57.3187 800.598 56.556 800.598 55.72C800.598 54.884 800.744 54.1287 801.038 53.454C801.346 52.7647 801.756 52.178 802.27 51.694C802.783 51.21 803.392 50.836 804.096 50.572C804.8 50.308 805.548 50.176 806.34 50.176C807.073 50.176 807.74 50.308 808.342 50.572C808.958 50.8213 809.478 51.188 809.904 51.672C810.344 52.156 810.681 52.7573 810.916 53.476C811.165 54.18 811.29 54.994 811.29 55.918V56.644H803.238ZM808.65 54.664C808.635 53.8867 808.393 53.278 807.924 52.838C807.454 52.3833 806.802 52.156 805.966 52.156C805.174 52.156 804.543 52.3833 804.074 52.838C803.619 53.2927 803.34 53.9013 803.238 54.664H808.65ZM814.991 56.644C815.079 57.436 815.387 58.052 815.915 58.492C816.443 58.932 817.081 59.152 817.829 59.152C818.489 59.152 819.039 59.02 819.479 58.756C819.933 58.4773 820.329 58.1327 820.667 57.722L822.559 59.152C821.943 59.9147 821.253 60.4573 820.491 60.78C819.728 61.1027 818.929 61.264 818.093 61.264C817.301 61.264 816.553 61.132 815.849 60.868C815.145 60.604 814.536 60.23 814.023 59.746C813.509 59.262 813.099 58.6827 812.791 58.008C812.497 57.3187 812.351 56.556 812.351 55.72C812.351 54.884 812.497 54.1287 812.791 53.454C813.099 52.7647 813.509 52.178 814.023 51.694C814.536 51.21 815.145 50.836 815.849 50.572C816.553 50.308 817.301 50.176 818.093 50.176C818.826 50.176 819.493 50.308 820.095 50.572C820.711 50.8213 821.231 51.188 821.657 51.672C822.097 52.156 822.434 52.7573 822.669 53.476C822.918 54.18 823.043 54.994 823.043 55.918V56.644H814.991ZM820.403 54.664C820.388 53.8867 820.146 53.278 819.677 52.838C819.207 52.3833 818.555 52.156 817.719 52.156C816.927 52.156 816.296 52.3833 815.827 52.838C815.372 53.2927 815.093 53.9013 814.991 54.664H820.403ZM832.991 59.416H832.947C832.566 60.0613 832.053 60.5307 831.407 60.824C830.762 61.1173 830.065 61.264 829.317 61.264C828.496 61.264 827.763 61.1247 827.117 60.846C826.487 60.5527 825.944 60.1567 825.489 59.658C825.035 59.1593 824.69 58.5727 824.455 57.898C824.221 57.2233 824.103 56.4973 824.103 55.72C824.103 54.9427 824.228 54.2167 824.477 53.542C824.727 52.8673 825.071 52.2807 825.511 51.782C825.966 51.2833 826.509 50.8947 827.139 50.616C827.77 50.3227 828.459 50.176 829.207 50.176C829.706 50.176 830.146 50.2273 830.527 50.33C830.909 50.4327 831.246 50.5647 831.539 50.726C831.833 50.8873 832.082 51.0633 832.287 51.254C832.493 51.43 832.661 51.606 832.793 51.782H832.859V44.368H835.499V61H832.991V59.416ZM826.743 55.72C826.743 56.1307 826.809 56.5267 826.941 56.908C827.088 57.2893 827.293 57.6267 827.557 57.92C827.836 58.2133 828.166 58.448 828.547 58.624C828.929 58.8 829.361 58.888 829.845 58.888C830.329 58.888 830.762 58.8 831.143 58.624C831.525 58.448 831.847 58.2133 832.111 57.92C832.39 57.6267 832.595 57.2893 832.727 56.908C832.874 56.5267 832.947 56.1307 832.947 55.72C832.947 55.3093 832.874 54.9133 832.727 54.532C832.595 54.1507 832.39 53.8133 832.111 53.52C831.847 53.2267 831.525 52.992 831.143 52.816C830.762 52.64 830.329 52.552 829.845 52.552C829.361 52.552 828.929 52.64 828.547 52.816C828.166 52.992 827.836 53.2267 827.557 53.52C827.293 53.8133 827.088 54.1507 826.941 54.532C826.809 54.9133 826.743 55.3093 826.743 55.72ZM839.721 56.644C839.809 57.436 840.117 58.052 840.645 58.492C841.173 58.932 841.811 59.152 842.559 59.152C843.219 59.152 843.769 59.02 844.209 58.756C844.663 58.4773 845.059 58.1327 845.397 57.722L847.289 59.152C846.673 59.9147 845.983 60.4573 845.221 60.78C844.458 61.1027 843.659 61.264 842.823 61.264C842.031 61.264 841.283 61.132 840.579 60.868C839.875 60.604 839.266 60.23 838.753 59.746C838.239 59.262 837.829 58.6827 837.521 58.008C837.227 57.3187 837.081 56.556 837.081 55.72C837.081 54.884 837.227 54.1287 837.521 53.454C837.829 52.7647 838.239 52.178 838.753 51.694C839.266 51.21 839.875 50.836 840.579 50.572C841.283 50.308 842.031 50.176 842.823 50.176C843.556 50.176 844.223 50.308 844.825 50.572C845.441 50.8213 845.961 51.188 846.387 51.672C846.827 52.156 847.164 52.7573 847.399 53.476C847.648 54.18 847.773 54.994 847.773 55.918V56.644H839.721ZM845.133 54.664C845.118 53.8867 844.876 53.278 844.407 52.838C843.937 52.3833 843.285 52.156 842.449 52.156C841.657 52.156 841.026 52.3833 840.557 52.838C840.102 53.2927 839.823 53.9013 839.721 54.664H845.133ZM857.722 59.416H857.678C857.296 60.0613 856.783 60.5307 856.138 60.824C855.492 61.1173 854.796 61.264 854.048 61.264C853.226 61.264 852.493 61.1247 851.848 60.846C851.217 60.5527 850.674 60.1567 850.22 59.658C849.765 59.1593 849.42 58.5727 849.186 57.898C848.951 57.2233 848.834 56.4973 848.834 55.72C848.834 54.9427 848.958 54.2167 849.208 53.542C849.457 52.8673 849.802 52.2807 850.242 51.782C850.696 51.2833 851.239 50.8947 851.87 50.616C852.5 50.3227 853.19 50.176 853.938 50.176C854.436 50.176 854.876 50.2273 855.258 50.33C855.639 50.4327 855.976 50.5647 856.27 50.726C856.563 50.8873 856.812 51.0633 857.018 51.254C857.223 51.43 857.392 51.606 857.524 51.782H857.59V44.368H860.23V61H857.722V59.416ZM851.474 55.72C851.474 56.1307 851.54 56.5267 851.672 56.908C851.818 57.2893 852.024 57.6267 852.288 57.92C852.566 58.2133 852.896 58.448 853.278 58.624C853.659 58.8 854.092 58.888 854.576 58.888C855.06 58.888 855.492 58.8 855.874 58.624C856.255 58.448 856.578 58.2133 856.842 57.92C857.12 57.6267 857.326 57.2893 857.458 56.908C857.604 56.5267 857.678 56.1307 857.678 55.72C857.678 55.3093 857.604 54.9133 857.458 54.532C857.326 54.1507 857.12 53.8133 856.842 53.52C856.578 53.2267 856.255 52.992 855.874 52.816C855.492 52.64 855.06 52.552 854.576 52.552C854.092 52.552 853.659 52.64 853.278 52.816C852.896 52.992 852.566 53.2267 852.288 53.52C852.024 53.8133 851.818 54.1507 851.672 54.532C851.54 54.9133 851.474 55.3093 851.474 55.72Z" fill="#4F91B0"/>
<path d="M957.738 45.424H963.15C963.898 45.424 964.617 45.4973 965.306 45.644C966.01 45.776 966.633 46.0107 967.176 46.348C967.719 46.6853 968.151 47.14 968.474 47.712C968.797 48.284 968.958 49.01 968.958 49.89C968.958 51.0193 968.643 51.9653 968.012 52.728C967.396 53.4907 966.509 53.9527 965.35 54.114L969.486 61H966.142L962.534 54.4H960.51V61H957.738V45.424ZM962.666 52.024C963.062 52.024 963.458 52.0093 963.854 51.98C964.25 51.936 964.609 51.848 964.932 51.716C965.269 51.5693 965.541 51.3567 965.746 51.078C965.951 50.7847 966.054 50.3813 966.054 49.868C966.054 49.4133 965.959 49.0467 965.768 48.768C965.577 48.4893 965.328 48.284 965.02 48.152C964.712 48.0053 964.367 47.91 963.986 47.866C963.619 47.822 963.26 47.8 962.908 47.8H960.51V52.024H962.666ZM972.585 56.644C972.673 57.436 972.981 58.052 973.509 58.492C974.037 58.932 974.675 59.152 975.423 59.152C976.083 59.152 976.633 59.02 977.073 58.756C977.528 58.4773 977.924 58.1327 978.261 57.722L980.153 59.152C979.537 59.9147 978.848 60.4573 978.085 60.78C977.323 61.1027 976.523 61.264 975.687 61.264C974.895 61.264 974.147 61.132 973.443 60.868C972.739 60.604 972.131 60.23 971.617 59.746C971.104 59.262 970.693 58.6827 970.385 58.008C970.092 57.3187 969.945 56.556 969.945 55.72C969.945 54.884 970.092 54.1287 970.385 53.454C970.693 52.7647 971.104 52.178 971.617 51.694C972.131 51.21 972.739 50.836 973.443 50.572C974.147 50.308 974.895 50.176 975.687 50.176C976.421 50.176 977.088 50.308 977.689 50.572C978.305 50.8213 978.826 51.188 979.251 51.672C979.691 52.156 980.029 52.7573 980.263 53.476C980.513 54.18 980.637 54.994 980.637 55.918V56.644H972.585ZM977.997 54.664C977.983 53.8867 977.741 53.278 977.271 52.838C976.802 52.3833 976.149 52.156 975.313 52.156C974.521 52.156 973.891 52.3833 973.421 52.838C972.967 53.2927 972.688 53.9013 972.585 54.664H977.997ZM989.442 53.608C989.134 53.2853 988.812 53.0287 988.474 52.838C988.137 52.6473 987.792 52.552 987.44 52.552C986.956 52.552 986.524 52.64 986.142 52.816C985.761 52.992 985.431 53.2267 985.152 53.52C984.888 53.8133 984.683 54.1507 984.536 54.532C984.404 54.9133 984.338 55.3093 984.338 55.72C984.338 56.1307 984.404 56.5267 984.536 56.908C984.683 57.2893 984.888 57.6267 985.152 57.92C985.431 58.2133 985.761 58.448 986.142 58.624C986.524 58.8 986.956 58.888 987.44 58.888C987.851 58.888 988.232 58.8073 988.584 58.646C988.936 58.47 989.237 58.2207 989.486 57.898L991.246 59.79C990.982 60.054 990.674 60.2813 990.322 60.472C989.985 60.6627 989.64 60.8167 989.288 60.934C988.936 61.0513 988.599 61.132 988.276 61.176C987.954 61.2347 987.675 61.264 987.44 61.264C986.648 61.264 985.9 61.132 985.196 60.868C984.492 60.604 983.884 60.23 983.37 59.746C982.857 59.262 982.446 58.6827 982.138 58.008C981.845 57.3187 981.698 56.556 981.698 55.72C981.698 54.884 981.845 54.1287 982.138 53.454C982.446 52.7647 982.857 52.178 983.37 51.694C983.884 51.21 984.492 50.836 985.196 50.572C985.9 50.308 986.648 50.176 987.44 50.176C988.115 50.176 988.79 50.308 989.464 50.572C990.154 50.8213 990.755 51.2247 991.268 51.782L989.442 53.608ZM994.072 56.644C994.16 57.436 994.468 58.052 994.996 58.492C995.524 58.932 996.162 59.152 996.91 59.152C997.57 59.152 998.12 59.02 998.56 58.756C999.014 58.4773 999.41 58.1327 999.748 57.722L1001.64 59.152C1001.02 59.9147 1000.33 60.4573 999.572 60.78C998.809 61.1027 998.01 61.264 997.174 61.264C996.382 61.264 995.634 61.132 994.93 60.868C994.226 60.604 993.617 60.23 993.104 59.746C992.59 59.262 992.18 58.6827 991.872 58.008C991.578 57.3187 991.432 56.556 991.432 55.72C991.432 54.884 991.578 54.1287 991.872 53.454C992.18 52.7647 992.59 52.178 993.104 51.694C993.617 51.21 994.226 50.836 994.93 50.572C995.634 50.308 996.382 50.176 997.174 50.176C997.907 50.176 998.574 50.308 999.176 50.572C999.792 50.8213 1000.31 51.188 1000.74 51.672C1001.18 52.156 1001.51 52.7573 1001.75 53.476C1002 54.18 1002.12 54.994 1002.12 55.918V56.644H994.072ZM999.484 54.664C999.469 53.8867 999.227 53.278 998.758 52.838C998.288 52.3833 997.636 52.156 996.8 52.156C996.008 52.156 995.377 52.3833 994.908 52.838C994.453 53.2927 994.174 53.9013 994.072 54.664H999.484ZM1003.76 50.44H1006.4V61H1003.76V50.44ZM1003.38 46.854C1003.38 46.4287 1003.54 46.062 1003.84 45.754C1004.17 45.4313 1004.57 45.27 1005.05 45.27C1005.54 45.27 1005.94 45.424 1006.26 45.732C1006.6 46.0253 1006.77 46.3993 1006.77 46.854C1006.77 47.3087 1006.6 47.69 1006.26 47.998C1005.94 48.2913 1005.54 48.438 1005.05 48.438C1004.57 48.438 1004.17 48.284 1003.84 47.976C1003.54 47.6533 1003.38 47.2793 1003.38 46.854ZM1007.12 50.44H1010L1012.82 57.832H1012.86L1015.7 50.44H1018.4L1014.25 61H1011.43L1007.12 50.44ZM1021.19 56.644C1021.28 57.436 1021.58 58.052 1022.11 58.492C1022.64 58.932 1023.28 59.152 1024.03 59.152C1024.69 59.152 1025.24 59.02 1025.68 58.756C1026.13 58.4773 1026.53 58.1327 1026.86 57.722L1028.76 59.152C1028.14 59.9147 1027.45 60.4573 1026.69 60.78C1025.92 61.1027 1025.13 61.264 1024.29 61.264C1023.5 61.264 1022.75 61.132 1022.05 60.868C1021.34 60.604 1020.73 60.23 1020.22 59.746C1019.71 59.262 1019.3 58.6827 1018.99 58.008C1018.69 57.3187 1018.55 56.556 1018.55 55.72C1018.55 54.884 1018.69 54.1287 1018.99 53.454C1019.3 52.7647 1019.71 52.178 1020.22 51.694C1020.73 51.21 1021.34 50.836 1022.05 50.572C1022.75 50.308 1023.5 50.176 1024.29 50.176C1025.02 50.176 1025.69 50.308 1026.29 50.572C1026.91 50.8213 1027.43 51.188 1027.85 51.672C1028.29 52.156 1028.63 52.7573 1028.87 53.476C1029.11 54.18 1029.24 54.994 1029.24 55.918V56.644H1021.19ZM1026.6 54.664C1026.58 53.8867 1026.34 53.278 1025.87 52.838C1025.4 52.3833 1024.75 52.156 1023.92 52.156C1023.12 52.156 1022.49 52.3833 1022.02 52.838C1021.57 53.2927 1021.29 53.9013 1021.19 54.664H1026.6ZM1039.19 59.416H1039.14C1038.76 60.0613 1038.25 60.5307 1037.6 60.824C1036.96 61.1173 1036.26 61.264 1035.51 61.264C1034.69 61.264 1033.96 61.1247 1033.31 60.846C1032.68 60.5527 1032.14 60.1567 1031.69 59.658C1031.23 59.1593 1030.89 58.5727 1030.65 57.898C1030.42 57.2233 1030.3 56.4973 1030.3 55.72C1030.3 54.9427 1030.42 54.2167 1030.67 53.542C1030.92 52.8673 1031.27 52.2807 1031.71 51.782C1032.16 51.2833 1032.71 50.8947 1033.34 50.616C1033.97 50.3227 1034.66 50.176 1035.4 50.176C1035.9 50.176 1036.34 50.2273 1036.72 50.33C1037.11 50.4327 1037.44 50.5647 1037.74 50.726C1038.03 50.8873 1038.28 51.0633 1038.48 51.254C1038.69 51.43 1038.86 51.606 1038.99 51.782H1039.06V44.368H1041.7V61H1039.19V59.416ZM1032.94 55.72C1032.94 56.1307 1033.01 56.5267 1033.14 56.908C1033.28 57.2893 1033.49 57.6267 1033.75 57.92C1034.03 58.2133 1034.36 58.448 1034.74 58.624C1035.13 58.8 1035.56 58.888 1036.04 58.888C1036.53 58.888 1036.96 58.8 1037.34 58.624C1037.72 58.448 1038.04 58.2133 1038.31 57.92C1038.59 57.6267 1038.79 57.2893 1038.92 56.908C1039.07 56.5267 1039.14 56.1307 1039.14 55.72C1039.14 55.3093 1039.07 54.9133 1038.92 54.532C1038.79 54.1507 1038.59 53.8133 1038.31 53.52C1038.04 53.2267 1037.72 52.992 1037.34 52.816C1036.96 52.64 1036.53 52.552 1036.04 52.552C1035.56 52.552 1035.13 52.64 1034.74 52.816C1034.36 52.992 1034.03 53.2267 1033.75 53.52C1033.49 53.8133 1033.28 54.1507 1033.14 54.532C1033.01 54.9133 1032.94 55.3093 1032.94 55.72Z" fill="#4F91B0"/>
<path d="M383.199 628.008H386.223V642.264H393.447V645H383.199V628.008ZM394.468 633.48H397.348V645H394.468V633.48ZM394.06 629.568C394.06 629.104 394.228 628.704 394.564 628.368C394.916 628.016 395.356 627.84 395.884 627.84C396.412 627.84 396.852 628.008 397.204 628.344C397.572 628.664 397.756 629.072 397.756 629.568C397.756 630.064 397.572 630.48 397.204 630.816C396.852 631.136 396.412 631.296 395.884 631.296C395.356 631.296 394.916 631.128 394.564 630.792C394.228 630.44 394.06 630.032 394.06 629.568ZM398.135 633.48H401.279L404.351 641.544H404.398L407.495 633.48H410.447L405.911 645H402.839L398.135 633.48ZM413.484 640.248C413.58 641.112 413.916 641.784 414.492 642.264C415.068 642.744 415.764 642.984 416.58 642.984C417.3 642.984 417.9 642.84 418.38 642.552C418.876 642.248 419.308 641.872 419.676 641.424L421.74 642.984C421.068 643.816 420.316 644.408 419.484 644.76C418.652 645.112 417.78 645.288 416.868 645.288C416.004 645.288 415.188 645.144 414.42 644.856C413.652 644.568 412.988 644.16 412.428 643.632C411.868 643.104 411.42 642.472 411.084 641.736C410.764 640.984 410.604 640.152 410.604 639.24C410.604 638.328 410.764 637.504 411.084 636.768C411.42 636.016 411.868 635.376 412.428 634.848C412.988 634.32 413.652 633.912 414.42 633.624C415.188 633.336 416.004 633.192 416.868 633.192C417.668 633.192 418.396 633.336 419.052 633.624C419.724 633.896 420.292 634.296 420.756 634.824C421.236 635.352 421.604 636.008 421.86 636.792C422.132 637.56 422.268 638.448 422.268 639.456V640.248H413.484ZM419.388 638.088C419.372 637.24 419.108 636.576 418.596 636.096C418.084 635.6 417.372 635.352 416.46 635.352C415.596 635.352 414.908 635.6 414.396 636.096C413.9 636.592 413.596 637.256 413.484 638.088H419.388ZM424.001 633.48H426.881V635.304H426.929C427.249 634.632 427.705 634.112 428.297 633.744C428.889 633.376 429.569 633.192 430.337 633.192C430.513 633.192 430.681 633.208 430.841 633.24C431.017 633.272 431.193 633.312 431.369 633.36V636.144C431.129 636.08 430.889 636.032 430.649 636C430.425 635.952 430.201 635.928 429.977 635.928C429.305 635.928 428.761 636.056 428.345 636.312C427.945 636.552 427.633 636.832 427.409 637.152C427.201 637.472 427.057 637.792 426.977 638.112C426.913 638.432 426.881 638.672 426.881 638.832V645H424.001V633.48Z" fill="#4F91B0"/>
<path d="M574.257 628.008H577.281V634.776H585.225V628.008H588.249V645H585.225V637.512H577.281V645H574.257V628.008ZM593.126 640.248C593.222 641.112 593.558 641.784 594.134 642.264C594.71 642.744 595.406 642.984 596.222 642.984C596.942 642.984 597.542 642.84 598.022 642.552C598.518 642.248 598.95 641.872 599.318 641.424L601.382 642.984C600.71 643.816 599.958 644.408 599.126 644.76C598.294 645.112 597.422 645.288 596.51 645.288C595.646 645.288 594.83 645.144 594.062 644.856C593.294 644.568 592.63 644.16 592.07 643.632C591.51 643.104 591.062 642.472 590.726 641.736C590.406 640.984 590.246 640.152 590.246 639.24C590.246 638.328 590.406 637.504 590.726 636.768C591.062 636.016 591.51 635.376 592.07 634.848C592.63 634.32 593.294 633.912 594.062 633.624C594.83 633.336 595.646 633.192 596.51 633.192C597.31 633.192 598.038 633.336 598.694 633.624C599.366 633.896 599.934 634.296 600.398 634.824C600.878 635.352 601.246 636.008 601.502 636.792C601.774 637.56 601.91 638.448 601.91 639.456V640.248H593.126ZM599.03 638.088C599.014 637.24 598.75 636.576 598.238 636.096C597.726 635.6 597.014 635.352 596.102 635.352C595.238 635.352 594.55 635.6 594.038 636.096C593.542 636.592 593.238 637.256 593.126 638.088H599.03ZM610.844 643.416H610.772C610.356 644.072 609.828 644.552 609.188 644.856C608.548 645.144 607.844 645.288 607.076 645.288C606.548 645.288 606.028 645.216 605.516 645.072C605.02 644.928 604.572 644.712 604.172 644.424C603.788 644.136 603.476 643.776 603.236 643.344C602.996 642.912 602.876 642.408 602.876 641.832C602.876 641.208 602.988 640.68 603.212 640.248C603.436 639.8 603.732 639.432 604.1 639.144C604.484 638.84 604.924 638.6 605.42 638.424C605.916 638.248 606.428 638.12 606.956 638.04C607.5 637.944 608.044 637.888 608.588 637.872C609.132 637.84 609.644 637.824 610.124 637.824H610.844V637.512C610.844 636.792 610.596 636.256 610.1 635.904C609.604 635.536 608.972 635.352 608.204 635.352C607.596 635.352 607.028 635.464 606.5 635.688C605.972 635.896 605.516 636.184 605.132 636.552L603.62 635.04C604.26 634.384 605.004 633.912 605.852 633.624C606.716 633.336 607.604 633.192 608.516 633.192C609.332 633.192 610.02 633.288 610.58 633.48C611.14 633.656 611.604 633.888 611.972 634.176C612.34 634.464 612.62 634.8 612.812 635.184C613.02 635.552 613.164 635.928 613.244 636.312C613.34 636.696 613.396 637.072 613.412 637.44C613.428 637.792 613.436 638.104 613.436 638.376V645H610.844V643.416ZM610.676 639.84H610.076C609.676 639.84 609.228 639.856 608.732 639.888C608.236 639.92 607.764 640 607.316 640.128C606.884 640.24 606.516 640.416 606.212 640.656C605.908 640.88 605.756 641.2 605.756 641.616C605.756 641.888 605.812 642.12 605.924 642.312C606.052 642.488 606.212 642.64 606.404 642.768C606.596 642.896 606.812 642.992 607.052 643.056C607.292 643.104 607.532 643.128 607.772 643.128C608.764 643.128 609.492 642.896 609.956 642.432C610.436 641.952 610.676 641.304 610.676 640.488V639.84ZM615.574 633.48H618.454V635.304H618.502C618.822 634.632 619.278 634.112 619.87 633.744C620.462 633.376 621.142 633.192 621.91 633.192C622.086 633.192 622.254 633.208 622.414 633.24C622.59 633.272 622.766 633.312 622.942 633.36V636.144C622.702 636.08 622.462 636.032 622.222 636C621.998 635.952 621.774 635.928 621.55 635.928C620.878 635.928 620.334 636.056 619.918 636.312C619.518 636.552 619.206 636.832 618.982 637.152C618.774 637.472 618.63 637.792 618.55 638.112C618.486 638.432 618.454 638.672 618.454 638.832V645H615.574V633.48ZM622.598 635.928V633.48H624.974V630.144H627.854V633.48H631.022V635.928H627.854V640.968C627.854 641.544 627.958 642 628.166 642.336C628.39 642.672 628.822 642.84 629.462 642.84C629.718 642.84 629.998 642.816 630.302 642.768C630.606 642.704 630.846 642.608 631.022 642.48V644.904C630.718 645.048 630.342 645.144 629.894 645.192C629.462 645.256 629.078 645.288 628.742 645.288C627.974 645.288 627.342 645.2 626.846 645.024C626.366 644.864 625.982 644.616 625.694 644.28C625.422 643.928 625.23 643.496 625.118 642.984C625.022 642.472 624.974 641.88 624.974 641.208V635.928H622.598Z" fill="#4F91B0"/>
<path d="M774.274 628.008H777.298V642.264H784.522V645H774.274V628.008ZM796.007 645H793.271V643.152H793.223C792.951 643.728 792.535 644.232 791.975 644.664C791.415 645.08 790.655 645.288 789.695 645.288C788.927 645.288 788.271 645.168 787.727 644.928C787.199 644.672 786.767 644.336 786.431 643.92C786.095 643.488 785.855 643 785.711 642.456C785.567 641.912 785.495 641.344 785.495 640.752V633.48H788.375V639.312C788.375 639.632 788.391 639.992 788.423 640.392C788.455 640.776 788.535 641.144 788.663 641.496C788.807 641.832 789.015 642.12 789.287 642.36C789.575 642.584 789.975 642.696 790.487 642.696C790.967 642.696 791.367 642.616 791.687 642.456C792.023 642.296 792.295 642.08 792.503 641.808C792.727 641.536 792.887 641.224 792.983 640.872C793.079 640.52 793.127 640.152 793.127 639.768V633.48H796.007V645ZM798.316 633.48H801.052V635.328H801.1C801.372 634.752 801.788 634.256 802.348 633.84C802.908 633.408 803.668 633.192 804.628 633.192C805.396 633.192 806.044 633.32 806.572 633.576C807.116 633.832 807.556 634.168 807.892 634.584C808.228 635 808.468 635.48 808.612 636.024C808.756 636.568 808.828 637.136 808.828 637.728V645H805.948V639.168C805.948 638.848 805.932 638.496 805.9 638.112C805.868 637.712 805.78 637.344 805.636 637.008C805.508 636.656 805.3 636.368 805.012 636.144C804.724 635.904 804.332 635.784 803.836 635.784C803.356 635.784 802.948 635.864 802.612 636.024C802.292 636.184 802.02 636.4 801.796 636.672C801.588 636.944 801.436 637.256 801.34 637.608C801.244 637.96 801.196 638.328 801.196 638.712V645H798.316V633.48ZM822.993 633.48V643.968C822.993 645.008 822.865 645.944 822.609 646.776C822.353 647.624 821.953 648.336 821.409 648.912C820.881 649.504 820.209 649.96 819.393 650.28C818.577 650.6 817.609 650.76 816.489 650.76C815.417 650.76 814.401 650.624 813.441 650.352C812.481 650.08 811.593 649.584 810.777 648.864L812.505 646.512C813.081 647.04 813.681 647.448 814.305 647.736C814.929 648.024 815.649 648.168 816.465 648.168C817.153 648.168 817.729 648.072 818.193 647.88C818.673 647.688 819.049 647.424 819.321 647.088C819.609 646.752 819.809 646.344 819.921 645.864C820.049 645.4 820.113 644.88 820.113 644.304V643.464H820.065C819.649 644.024 819.097 644.448 818.409 644.736C817.721 645.008 817.017 645.144 816.297 645.144C815.433 645.144 814.649 644.992 813.945 644.688C813.241 644.368 812.633 643.944 812.121 643.416C811.625 642.888 811.241 642.264 810.969 641.544C810.697 640.824 810.561 640.056 810.561 639.24C810.561 638.392 810.689 637.6 810.945 636.864C811.201 636.128 811.577 635.488 812.073 634.944C812.569 634.4 813.161 633.976 813.849 633.672C814.553 633.352 815.353 633.192 816.249 633.192C817.065 633.192 817.825 633.352 818.529 633.672C819.233 633.992 819.793 634.504 820.209 635.208H820.257V633.48H822.993ZM816.849 635.784C816.337 635.784 815.873 635.872 815.457 636.048C815.041 636.208 814.681 636.44 814.377 636.744C814.089 637.032 813.857 637.392 813.681 637.824C813.521 638.24 813.441 638.704 813.441 639.216C813.441 639.68 813.521 640.112 813.681 640.512C813.857 640.912 814.097 641.264 814.401 641.568C814.705 641.872 815.065 642.112 815.481 642.288C815.897 642.464 816.345 642.552 816.825 642.552C817.353 642.552 817.825 642.464 818.241 642.288C818.673 642.112 819.033 641.88 819.321 641.592C819.625 641.288 819.857 640.928 820.017 640.512C820.177 640.096 820.257 639.648 820.257 639.168C820.257 638.16 819.953 637.344 819.345 636.72C818.737 636.096 817.905 635.784 816.849 635.784Z" fill="#4F91B0"/>
<path d="M959.212 636.576C959.212 635.216 959.436 633.984 959.884 632.88C960.332 631.76 960.948 630.808 961.732 630.024C962.532 629.24 963.476 628.64 964.564 628.224C965.668 627.792 966.876 627.576 968.188 627.576C969.516 627.56 970.732 627.76 971.836 628.176C972.94 628.576 973.892 629.168 974.692 629.952C975.492 630.736 976.116 631.68 976.564 632.784C977.012 633.888 977.236 635.12 977.236 636.48C977.236 637.808 977.012 639.016 976.564 640.104C976.116 641.192 975.492 642.128 974.692 642.912C973.892 643.696 972.94 644.312 971.836 644.76C970.732 645.192 969.516 645.416 968.188 645.432C966.876 645.432 965.668 645.224 964.564 644.808C963.476 644.376 962.532 643.776 961.732 643.008C960.948 642.224 960.332 641.288 959.884 640.2C959.436 639.112 959.212 637.904 959.212 636.576ZM962.38 636.384C962.38 637.296 962.516 638.136 962.788 638.904C963.076 639.672 963.476 640.336 963.988 640.896C964.5 641.456 965.108 641.896 965.812 642.216C966.532 642.536 967.332 642.696 968.212 642.696C969.092 642.696 969.892 642.536 970.612 642.216C971.332 641.896 971.948 641.456 972.46 640.896C972.972 640.336 973.364 639.672 973.636 638.904C973.924 638.136 974.068 637.296 974.068 636.384C974.068 635.536 973.924 634.744 973.636 634.008C973.364 633.272 972.972 632.632 972.46 632.088C971.948 631.528 971.332 631.096 970.612 630.792C969.892 630.472 969.092 630.312 968.212 630.312C967.332 630.312 966.532 630.472 965.812 630.792C965.108 631.096 964.5 631.528 963.988 632.088C963.476 632.632 963.076 633.272 962.788 634.008C962.516 634.744 962.38 635.536 962.38 636.384ZM977.548 635.928V633.48H979.924V630.144H982.804V633.48H985.972V635.928H982.804V640.968C982.804 641.544 982.908 642 983.116 642.336C983.34 642.672 983.772 642.84 984.412 642.84C984.668 642.84 984.948 642.816 985.252 642.768C985.556 642.704 985.796 642.608 985.972 642.48V644.904C985.668 645.048 985.292 645.144 984.844 645.192C984.412 645.256 984.028 645.288 983.692 645.288C982.924 645.288 982.292 645.2 981.796 645.024C981.316 644.864 980.932 644.616 980.644 644.28C980.372 643.928 980.18 643.496 980.068 642.984C979.972 642.472 979.924 641.88 979.924 641.208V635.928H977.548ZM990.164 635.088H990.212C990.436 634.608 990.828 634.176 991.388 633.792C991.964 633.392 992.7 633.192 993.596 633.192C994.364 633.192 995.012 633.32 995.54 633.576C996.084 633.832 996.524 634.168 996.86 634.584C997.196 635 997.436 635.48 997.58 636.024C997.724 636.568 997.796 637.136 997.796 637.728V645H994.916V639.168C994.916 638.848 994.9 638.496 994.868 638.112C994.836 637.712 994.748 637.344 994.604 637.008C994.476 636.656 994.268 636.368 993.98 636.144C993.692 635.904 993.3 635.784 992.804 635.784C992.324 635.784 991.916 635.864 991.58 636.024C991.26 636.184 990.988 636.4 990.764 636.672C990.556 636.944 990.404 637.256 990.308 637.608C990.212 637.96 990.164 638.328 990.164 638.712V645H987.284V626.856H990.164V635.088ZM1002.41 640.248C1002.51 641.112 1002.84 641.784 1003.42 642.264C1003.99 642.744 1004.69 642.984 1005.51 642.984C1006.23 642.984 1006.83 642.84 1007.31 642.552C1007.8 642.248 1008.23 641.872 1008.6 641.424L1010.67 642.984C1009.99 643.816 1009.24 644.408 1008.41 644.76C1007.58 645.112 1006.71 645.288 1005.79 645.288C1004.93 645.288 1004.11 645.144 1003.35 644.856C1002.58 644.568 1001.91 644.16 1001.35 643.632C1000.79 643.104 1000.35 642.472 1000.01 641.736C999.689 640.984 999.529 640.152 999.529 639.24C999.529 638.328 999.689 637.504 1000.01 636.768C1000.35 636.016 1000.79 635.376 1001.35 634.848C1001.91 634.32 1002.58 633.912 1003.35 633.624C1004.11 633.336 1004.93 633.192 1005.79 633.192C1006.59 633.192 1007.32 633.336 1007.98 633.624C1008.65 633.896 1009.22 634.296 1009.68 634.824C1010.16 635.352 1010.53 636.008 1010.79 636.792C1011.06 637.56 1011.19 638.448 1011.19 639.456V640.248H1002.41ZM1008.31 638.088C1008.3 637.24 1008.03 636.576 1007.52 636.096C1007.01 635.6 1006.3 635.352 1005.39 635.352C1004.52 635.352 1003.83 635.6 1003.32 636.096C1002.83 636.592 1002.52 637.256 1002.41 638.088H1008.31ZM1012.93 633.48H1015.81V635.304H1015.85C1016.17 634.632 1016.63 634.112 1017.22 633.744C1017.81 633.376 1018.49 633.192 1019.26 633.192C1019.44 633.192 1019.61 633.208 1019.77 633.24C1019.94 633.272 1020.12 633.312 1020.29 633.36V636.144C1020.05 636.08 1019.81 636.032 1019.57 636C1019.35 635.952 1019.13 635.928 1018.9 635.928C1018.23 635.928 1017.69 636.056 1017.27 636.312C1016.87 636.552 1016.56 636.832 1016.33 637.152C1016.13 637.472 1015.98 637.792 1015.9 638.112C1015.84 638.432 1015.81 638.672 1015.81 638.832V645H1012.93V633.48ZM1026.24 631.416L1029.48 630.36L1030.1 632.28L1026.84 633.336L1028.9 636.144L1027.25 637.344L1025.18 634.512L1023.17 637.272L1021.56 636.048L1023.62 633.336L1020.33 632.208L1020.96 630.288L1024.22 631.416V628.008H1026.24V631.416Z" fill="#4F91B0"/>
<path d="M166 167C166 155.954 174.954 147 186 147V147C197.046 147 206 155.954 206 167V600H166V167Z" fill="#1D7998"/>
<path d="M362 562C362 550.954 370.954 542 382 542V542C393.046 542 402 550.954 402 562V600H362V562Z" fill="#1D7998"/>
<path d="M558 600C558 592.268 564.268 586 572 586H584C591.732 586 598 592.268 598 600V600H558V600Z" fill="#1D7998"/>
<path d="M754 595C754 583.954 762.954 575 774 575V575C785.046 575 794 583.954 794 595V600H754V595Z" fill="#1D7998"/>
<path d="M950 600C950 596.686 952.686 594 956 594H984C987.314 594 990 596.686 990 600V600H950V600Z" fill="#1D7998"/>
<path d="M214 505C214 493.954 222.954 485 234 485V485C245.046 485 254 493.954 254 505V600H214V505Z" fill="#23A2C5"/>
<path d="M410 573C410 561.954 418.954 553 430 553V553C441.046 553 450 561.954 450 573V600H410V573Z" fill="#23A2C5"/>
<path d="M606 591C606 579.954 614.954 571 626 571V571C637.046 571 646 579.954 646 591V600H606V591Z" fill="#23A2C5"/>
<path d="M802 600C802 588.954 810.954 580 822 580V580C833.046 580 842 588.954 842 600V600H802V600Z" fill="#23A2C5"/>
<path d="M998 600C998 595.029 1002.03 591 1007 591H1029C1033.97 591 1038 595.029 1038 600V600H998V600Z" fill="#23A2C5"/>
<circle cx="759" cy="55" r="11" fill="#1D7998"/>
<circle cx="932" cy="55" r="11" fill="#23A2C5"/>
</g>
<defs>
<clipPath id="clip0_1666_8513">
<rect width="1092" height="700" fill="white"/>
</clipPath>
</defs>
</svg>
