<svg width="604" height="486" viewBox="0 0 604 486" fill="none" xmlns="http://www.w3.org/2000/svg">
<circle cx="329.5" cy="258.002" r="217.5" fill="white"/>
<path d="M245.604 315.42C245.604 315.42 251.414 330.072 248.43 345.826C246.075 358.43 241.364 369.458 237.438 371.191C234.611 372.609 233.826 375.602 235.239 377.02C236.653 378.438 236.653 380.959 235.239 384.425C233.826 388.048 236.025 402.227 233.041 406.481C229.9 410.735 223.619 424.284 223.619 424.284L214.354 422.551C214.354 422.551 223.148 406.481 223.933 403.33C224.718 400.179 221.891 386.788 221.891 386.788C221.891 386.788 215.453 400.967 214.354 405.851C213.254 410.892 208.7 429.483 208.7 429.483H193.625L199.749 414.516C199.749 414.516 205.089 399.076 203.675 396.871C202.262 394.665 188.757 379.541 189.071 373.869C189.071 373.869 164.887 389.781 138.662 385.055C112.438 380.486 107.883 376.232 107.883 376.232C107.883 376.232 105.371 387.891 103.958 391.514C102.544 395.138 108.983 421.29 106.47 424.599C103.958 428.065 97.5191 426.647 94.5354 425.859C91.5518 425.071 92.494 422.236 94.5354 419.4C96.5769 416.564 91.3947 402.385 90.2955 404.433C88.8822 407.269 89.1962 414.673 87.7829 417.194C86.3696 419.715 81.6585 425.071 75.6912 425.229C72.5505 425.229 69.7238 424.914 70.0379 423.496C70.352 422.078 78.2037 416.406 80.2452 411.365C82.4437 406.323 86.9977 387.103 84.4852 385.055C81.9726 382.849 79.146 379.383 76.0052 383.952C72.8645 388.521 58.2602 405.221 16.8028 394.193C16.8028 394.193 17.1169 391.514 20.1006 389.939C23.0842 388.363 21.6709 387.576 20.7287 388.048C19.7865 388.521 15.2325 391.987 12.8769 391.672C10.3644 391.357 3.61182 381.274 3.61182 379.226C3.61182 377.178 7.85178 374.814 12.4058 371.821C17.1169 368.828 25.2827 360.793 25.1257 359.06C24.9687 357.327 24.6546 355.594 20.5717 354.964C16.4887 354.491 8.32289 355.909 5.96735 351.34C3.45478 346.614 1.09925 342.518 0 340.785C0 340.785 15.2325 339.524 21.3568 340.627C21.3568 340.627 20.4146 340.942 24.0265 335.428C27.6383 330.072 44.7552 299.981 76.1623 290.37C95.4777 284.384 140.076 279.5 162.689 280.288C184.674 281.075 195.98 282.808 212.155 288.48C222.362 292.103 242.306 308.331 244.819 308.646C247.331 308.961 250.786 302.344 255.654 301.241C260.365 300.138 264.605 298.72 266.489 305.495C268.217 312.112 268.374 316.208 264.762 326.133C261.15 336.058 261.15 336.058 261.15 336.058C261.15 336.058 253.298 329.284 254.241 325.976C255.183 322.667 258.324 321.249 257.695 317.153C257.224 312.899 258.638 307.228 255.183 309.276C251.571 311.797 249.373 317.941 245.604 315.42Z" fill="#50BAE2"/>
<path fill-rule="evenodd" clip-rule="evenodd" d="M192.489 326.759C192.957 321.406 184.512 316.295 173.626 315.343C166.877 314.752 160.774 315.899 156.999 318.131C153.086 317.508 148.097 317.91 142.939 319.487C139.15 320.645 135.792 322.278 133.128 324.134C132.125 324.619 131.242 325.342 130.495 326.252C127.567 328.999 126.151 331.999 126.944 334.594C127.111 335.14 127.369 335.647 127.71 336.112C127.768 337.705 128.013 339.366 128.462 341.041C130.641 349.175 136.812 354.588 142.246 353.132C147.139 351.821 149.765 345.384 148.646 338.175L148.652 338.173C153.52 336.685 157.679 334.413 160.564 331.889C163.705 333.323 167.627 334.349 171.93 334.726C182.816 335.678 192.021 332.111 192.489 326.759Z" fill="#F7FCFD"/>
<path fill-rule="evenodd" clip-rule="evenodd" d="M468.781 478.794C475.423 480.694 482.067 482.593 488.708 484.493C490.606 483.543 492.503 482.593 494.401 481.644V426.076C496.774 407.555 499.148 389.031 501.521 370.509C499.621 363.385 497.723 356.26 495.826 349.136C498.052 339.082 500.027 328.134 501.521 316.365C503.83 298.133 504.541 281.366 504.365 266.497H512.906C512.481 280.098 512.762 295.415 514.328 312.09C515.648 326.12 517.674 338.994 520.023 350.562C518.599 356.734 517.174 362.911 515.753 369.083C517.03 382.185 518.449 395.486 520.023 408.978C521.37 420.544 522.798 431.941 524.294 443.175V485.919H534.258C538.05 483.07 541.848 480.218 545.643 477.371V461.696C543.746 455.048 541.848 448.4 539.948 441.749C544.63 429.025 549.735 411.038 551.336 389.031C552.801 368.917 550.876 351.811 548.49 339.162C551.205 331.783 553.661 323.704 555.607 314.939C564.181 276.323 558.891 242.325 552.76 219.477C549.997 210.111 547.028 195.672 548.49 178.159C549.396 167.297 551.764 158.137 554.185 151.087C557.031 160.587 559.875 170.085 562.724 179.585C562.248 182.908 561.775 186.233 561.299 189.559C566.519 200.956 571.736 212.355 576.958 223.752C576.483 225.652 576.01 227.551 575.534 229.451C576.483 241.324 577.431 253.2 578.38 265.073L585.497 275.047C588.344 274.571 591.19 274.097 594.036 273.621C594.985 270.772 595.934 267.923 596.885 265.073C596.41 258.422 595.934 251.774 595.461 245.126C597.359 248.449 599.256 251.774 601.154 255.1H604C603.995 252.818 603.703 249.829 602.578 246.549C599.772 238.381 593.673 233.916 591.19 232.303C590.493 222.977 590.036 215.55 589.768 210.929C588.587 190.519 588.606 182.036 584.073 171.034C582.504 167.227 580.868 164.282 579.805 162.487C577.431 144.912 575.061 127.341 572.688 109.766C569.841 105.97 566.995 102.168 564.146 98.369C551.336 92.6705 538.526 86.9693 525.716 81.2708C526.189 73.6728 526.665 66.0721 527.138 58.4741C529.461 56.8555 532.761 54.132 535.68 49.9263C539.587 44.2947 540.883 38.7861 541.372 35.6774C541.867 32.3679 542.364 25.9926 539.948 18.5791C537.281 10.3899 532.459 5.2291 529.987 2.90689C525.89 1.40601 519.427 -0.341 511.482 0.0576282C496.766 0.796027 486.656 8.4101 483.016 11.4547L480.169 31.4021L470.206 44.2251C470.679 45.1749 471.155 46.1246 471.628 47.0744H477.323V62.7493L480.169 65.5986H490.133V82.6968C475.898 87.9191 461.664 93.1441 447.432 98.369C445.134 107.447 443.055 117.961 441.737 129.716C440.508 140.699 440.168 150.761 440.315 159.637C439.158 161.984 437.592 165.389 436.044 169.611C433.209 177.343 431.688 184.393 430.352 193.831C429.098 202.679 427.714 215.716 427.505 232.303C424.948 233.919 421.911 236.217 418.964 239.425C412.675 246.276 410.109 253.66 409 257.949C409.949 258.422 410.898 258.899 411.846 259.372C415.644 255.1 419.439 250.824 423.234 246.549C422.286 255.573 421.337 264.597 420.388 273.621L427.505 280.746C431.3 276.47 435.096 272.195 438.891 267.923C439.839 258.899 440.788 249.875 441.737 240.851C441.264 238.951 440.788 237.052 440.315 235.152C444.172 228.137 448.384 219.063 451.701 208.08C455.343 196.025 456.832 185.233 457.396 176.733C459.293 171.984 461.191 167.235 463.089 162.487V149.664H464.51C464.986 154.886 465.459 160.111 465.935 165.336C466.884 167.712 467.832 170.085 468.781 172.46C468.308 184.807 467.832 197.157 467.359 209.503C465.935 213.305 464.51 217.104 463.089 220.903C462.613 229.927 462.14 238.951 461.664 247.975C459.954 256.665 458.542 267.802 458.818 280.746C459.093 293.756 460.993 304.877 463.089 313.516C464.986 321.59 466.884 329.665 468.781 337.739C467.359 342.014 465.935 346.287 464.51 350.562V387.607C468.781 402.804 473.052 418.002 477.323 433.201V447.447C474.474 455.998 471.628 464.548 468.781 473.096V478.794Z" fill="#A3CBDB"/>
<path fill-rule="evenodd" clip-rule="evenodd" d="M533.359 170.508C533.734 166.214 527.12 162.127 518.585 161.381C513.25 160.914 508.426 161.863 505.468 163.689C502.396 163.187 498.496 163.491 494.468 164.722C491.383 165.665 488.664 167.018 486.542 168.558C485.916 168.899 485.353 169.364 484.862 169.932C482.465 172.153 481.3 174.605 481.949 176.729C482.08 177.158 482.28 177.557 482.543 177.924C482.589 179.224 482.789 180.583 483.157 181.956C484.903 188.472 489.775 192.827 494.04 191.685C497.893 190.652 499.932 185.486 499.003 179.694L499.041 179.682C502.867 178.513 506.129 176.714 508.389 174.708C510.837 175.835 513.884 176.639 517.225 176.932C525.759 177.678 532.983 174.803 533.359 170.508Z" fill="white"/>
<path d="M354.579 215.78C355.172 215.188 356.208 215.04 356.949 215.78C357.689 216.521 357.689 217.409 356.949 218.15V218.15C356.357 218.742 355.32 218.89 354.579 218.15C353.839 217.409 353.987 216.372 354.579 215.78Z" fill="#80B7C6"/>
<path d="M349.051 221.309C349.644 220.716 350.68 220.568 351.421 221.309C352.161 222.049 352.161 222.938 351.421 223.678V223.678C350.828 224.27 349.792 224.419 349.051 223.678C348.311 222.938 348.459 221.901 349.051 221.309Z" fill="#80B7C6"/>
<path d="M343.523 226.837C344.115 226.245 345.152 226.097 345.892 226.837C346.632 227.578 346.632 228.466 345.892 229.207V229.207C345.3 229.799 344.263 229.947 343.523 229.207C342.782 228.466 342.93 227.43 343.523 226.837Z" fill="#80B7C6"/>
<path d="M337.995 232.366C338.587 231.774 339.624 231.626 340.364 232.366C341.105 233.107 341.105 233.995 340.364 234.735V234.735C339.772 235.328 338.735 235.476 337.995 234.735C337.254 233.995 337.254 233.107 337.995 232.366Z" fill="#80B7C6"/>
<path d="M332.466 237.895C333.058 237.302 334.095 237.154 334.835 237.895C335.576 238.635 335.576 239.524 334.835 240.264V240.264C334.243 240.856 333.206 241.004 332.466 240.264C331.726 239.524 331.874 238.487 332.466 237.895Z" fill="#80B7C6"/>
<path d="M326.937 243.423C327.529 242.831 328.566 242.683 329.307 243.423C330.047 244.164 330.047 245.052 329.307 245.793V245.793C328.714 246.385 327.678 246.533 326.937 245.793C326.197 245.052 326.345 244.016 326.937 243.423Z" fill="#80B7C6"/>
<path d="M321.409 248.952C322.001 248.359 323.038 248.211 323.778 248.952C324.518 249.692 324.518 250.581 323.778 251.321V251.321C323.186 251.914 322.149 252.062 321.409 251.321C320.668 250.581 320.668 249.692 321.409 248.952Z" fill="#80B7C6"/>
<path d="M343.523 215.779C344.115 215.187 345.152 215.039 345.892 215.779C346.632 216.52 346.632 217.408 345.892 218.149V218.149C345.3 218.741 344.263 218.889 343.523 218.149C342.782 217.408 342.93 216.372 343.523 215.779Z" fill="#80B7C6"/>
<path d="M337.994 221.308C338.586 220.716 339.623 220.568 340.363 221.308C341.104 222.049 341.104 222.937 340.363 223.678V223.678C339.771 224.27 338.734 224.418 337.994 223.678C337.253 222.937 337.401 221.901 337.994 221.308Z" fill="#80B7C6"/>
<path d="M332.465 226.837C333.057 226.244 334.094 226.096 334.834 226.837C335.575 227.577 335.575 228.466 334.834 229.206V229.206C334.242 229.799 333.205 229.947 332.465 229.206C331.725 228.466 331.725 227.577 332.465 226.837Z" fill="#80B7C6"/>
<path d="M326.937 232.365C327.529 231.773 328.566 231.625 329.307 232.365C330.047 233.106 330.047 233.994 329.307 234.735V234.735C328.714 235.327 327.678 235.475 326.937 234.735C326.197 233.994 326.345 232.958 326.937 232.365Z" fill="#80B7C6"/>
<path d="M321.408 237.894C322 237.302 323.037 237.154 323.777 237.894C324.517 238.635 324.517 239.523 323.777 240.264V240.264C323.185 240.856 322.148 241.004 321.408 240.264C320.667 239.523 320.815 238.487 321.408 237.894Z" fill="#80B7C6"/>
<path d="M332.466 215.78C333.058 215.188 334.095 215.04 334.835 215.78C335.576 216.521 335.576 217.409 334.835 218.15V218.15C334.243 218.742 333.206 218.89 332.466 218.15C331.874 217.557 331.874 216.372 332.466 215.78Z" fill="#80B7C6"/>
<path d="M326.937 221.309C327.529 220.716 328.566 220.568 329.307 221.309C330.047 222.049 330.047 222.938 329.307 223.678V223.678C328.714 224.27 327.678 224.419 326.937 223.678C326.345 223.086 326.197 222.049 326.937 221.309Z" fill="#80B7C6"/>
<path d="M321.409 226.837C322.001 226.245 323.038 226.097 323.778 226.837C324.518 227.578 324.518 228.466 323.778 229.207V229.207C323.186 229.799 322.149 229.947 321.409 229.207C320.964 228.466 320.816 227.43 321.409 226.837Z" fill="#80B7C6"/>
<path d="M315.879 232.366C316.472 231.774 317.508 231.626 318.249 232.366C318.989 233.107 318.989 233.995 318.249 234.735V234.735C317.656 235.328 316.62 235.476 315.879 234.735C315.287 234.143 315.287 232.958 315.879 232.366Z" fill="#80B7C6"/>
<path d="M321.958 216.329C322.55 215.737 323.587 215.589 324.328 216.329C325.068 217.07 325.068 217.958 324.328 218.699V218.699C323.735 219.291 322.699 219.439 321.958 218.699C321.218 217.958 321.218 217.07 321.958 216.329Z" fill="#80B7C6"/>
<path d="M316.43 221.858C317.022 221.266 318.059 221.118 318.799 221.858C319.539 222.598 319.539 223.487 318.799 224.227V224.227C318.207 224.82 317.17 224.968 316.43 224.227C315.689 223.487 315.837 222.45 316.43 221.858Z" fill="#80B7C6"/>
<path d="M310.901 227.387C311.493 226.794 312.529 226.646 313.27 227.387C314.01 228.127 314.01 229.016 313.27 229.756V229.756C312.678 230.349 311.641 230.497 310.901 229.756C310.16 229.016 310.308 227.979 310.901 227.387Z" fill="#80B7C6"/>
<path d="M310.901 216.329C311.493 215.737 312.529 215.589 313.27 216.329C314.01 217.07 314.01 217.958 313.27 218.699V218.699C312.678 219.291 311.641 219.439 310.901 218.699C310.16 217.958 310.308 216.922 310.901 216.329Z" fill="#80B7C6"/>
<path d="M305.372 221.858C305.965 221.266 307.001 221.118 307.742 221.858C308.482 222.599 308.482 223.487 307.742 224.228V224.228C307.149 224.82 306.113 224.968 305.372 224.228C304.632 223.487 304.78 222.451 305.372 221.858Z" fill="#80B7C6"/>
<path d="M299.843 216.33C300.435 215.737 301.472 215.589 302.213 216.33C302.953 217.07 302.953 217.959 302.213 218.699V218.699C301.62 219.291 300.584 219.44 299.843 218.699C299.103 217.959 299.251 216.922 299.843 216.33Z" fill="#80B7C6"/>
<path d="M354.579 226.837C355.172 226.245 356.208 226.097 356.949 226.837C357.689 227.578 357.689 228.466 356.949 229.207V229.207C356.357 229.799 355.32 229.947 354.579 229.207C353.839 228.466 353.987 227.43 354.579 226.837Z" fill="#80B7C6"/>
<path d="M349.051 232.366C349.643 231.774 350.68 231.626 351.42 232.366C352.161 233.107 352.161 233.995 351.42 234.735V234.735C350.828 235.328 349.791 235.476 349.051 234.735C348.31 233.995 348.459 232.958 349.051 232.366Z" fill="#80B7C6"/>
<path d="M343.523 237.895C344.115 237.302 345.152 237.154 345.892 237.895C346.632 238.635 346.632 239.524 345.892 240.264V240.264C345.3 240.856 344.263 241.004 343.523 240.264C342.782 239.524 342.782 238.635 343.523 237.895Z" fill="#80B7C6"/>
<path d="M337.994 243.423C338.587 242.831 339.623 242.683 340.364 243.423C341.104 244.164 341.104 245.052 340.364 245.793V245.793C339.771 246.385 338.735 246.533 337.994 245.793C337.254 245.052 337.402 244.016 337.994 243.423Z" fill="#80B7C6"/>
<path d="M332.465 248.952C333.057 248.359 334.094 248.211 334.834 248.952C335.575 249.692 335.575 250.581 334.834 251.321V251.321C334.242 251.914 333.205 252.062 332.465 251.321C331.725 250.581 331.873 249.544 332.465 248.952Z" fill="#80B7C6"/>
<path d="M354.579 237.894C355.172 237.302 356.208 237.154 356.949 237.894C357.689 238.635 357.689 239.523 356.949 240.264V240.264C356.356 240.856 355.32 241.004 354.579 240.264C353.839 239.523 353.987 238.487 354.579 237.894Z" fill="#80B7C6"/>
<path d="M349.051 243.422C349.643 242.83 350.68 242.682 351.42 243.422C352.161 244.163 352.161 245.051 351.42 245.792V245.792C350.828 246.384 349.791 246.532 349.051 245.792C348.31 245.051 348.31 244.163 349.051 243.422Z" fill="#80B7C6"/>
<path d="M343.523 248.951C344.115 248.359 345.152 248.211 345.892 248.951C346.632 249.691 346.632 250.58 345.892 251.32V251.32C345.3 251.913 344.263 252.061 343.523 251.32C342.782 250.58 342.93 249.543 343.523 248.951Z" fill="#80B7C6"/>
<path d="M337.994 254.48C338.586 253.888 339.623 253.739 340.363 254.48C341.104 255.22 341.104 256.109 340.363 256.849V256.849C339.771 257.442 338.734 257.59 337.994 256.849C337.253 256.109 337.401 255.072 337.994 254.48Z" fill="#80B7C6"/>
<path d="M353.79 248.162C354.383 247.57 355.419 247.422 356.16 248.162C356.752 248.754 356.9 249.791 356.16 250.531V250.531C355.567 251.124 354.531 251.272 353.79 250.531C353.05 249.791 353.05 248.902 353.79 248.162Z" fill="#80B7C6"/>
<path d="M348.262 253.69C348.854 253.098 349.891 252.95 350.631 253.69C351.224 254.283 351.372 255.319 350.631 256.06V256.06C350.039 256.652 349.003 256.8 348.262 256.06C347.67 255.171 347.67 254.283 348.262 253.69Z" fill="#80B7C6"/>
<path d="M342.733 259.219C343.325 258.627 344.362 258.479 345.102 259.219C345.695 259.811 345.843 260.848 345.102 261.589V261.589C344.51 262.181 343.473 262.329 342.733 261.589C341.992 260.848 342.14 259.811 342.733 259.219Z" fill="#80B7C6"/>
<path d="M353.789 259.219C354.382 258.626 355.418 258.478 356.159 259.219C356.899 259.959 356.899 260.848 356.159 261.588V261.588C355.566 262.18 354.53 262.328 353.789 261.588C353.049 260.848 353.197 259.811 353.789 259.219Z" fill="#80B7C6"/>
<path d="M348.261 264.747C348.854 264.155 349.89 264.007 350.631 264.747C351.371 265.488 351.371 266.376 350.631 267.117V267.117C350.038 267.709 349.002 267.857 348.261 267.117C347.521 266.376 347.669 265.34 348.261 264.747Z" fill="#80B7C6"/>
<path d="M353.79 270.276C354.383 269.684 355.419 269.536 356.16 270.276C356.9 271.016 356.9 271.905 356.16 272.645V272.645C355.567 273.238 354.531 273.386 353.79 272.645C353.05 271.905 353.198 270.868 353.79 270.276Z" fill="#80B7C6"/>
<path d="M315.879 254.48C316.472 253.888 317.508 253.74 318.249 254.48C318.989 255.221 318.989 256.109 318.249 256.849V256.849C317.656 257.442 316.62 257.59 315.879 256.849C315.139 256.109 315.287 255.072 315.879 254.48Z" fill="#80B7C6"/>
<path d="M304.959 265.401C305.551 264.809 306.588 264.661 307.328 265.401C308.068 266.142 308.068 267.03 307.328 267.771V267.771C306.736 268.363 305.699 268.511 304.959 267.771C304.218 267.03 304.366 265.994 304.959 265.401Z" fill="#80B7C6"/>
<path d="M294.279 276.082C294.871 275.489 295.908 275.341 296.648 276.082C297.389 276.822 297.389 277.711 296.648 278.451V278.451C296.056 279.043 295.019 279.191 294.279 278.451C293.538 277.711 293.686 276.674 294.279 276.082Z" fill="#80B7C6"/>
<path d="M310.388 259.973C310.98 259.38 312.017 259.232 312.757 259.973C313.498 260.713 313.498 261.602 312.757 262.342V262.342C312.165 262.935 311.128 263.083 310.388 262.342C309.647 261.602 309.795 260.565 310.388 259.973Z" fill="#80B7C6"/>
<path d="M299.707 270.653C300.3 270.061 301.336 269.913 302.077 270.653C302.817 271.394 302.817 272.282 302.077 273.023V273.023C301.484 273.615 300.448 273.763 299.707 273.023C298.967 272.282 299.115 271.246 299.707 270.653Z" fill="#80B7C6"/>
<path d="M326.937 254.48C327.529 253.888 328.566 253.74 329.306 254.48C330.047 255.221 330.047 256.109 329.306 256.85V256.85C328.714 257.442 327.677 257.59 326.937 256.85C326.196 256.109 326.196 255.221 326.937 254.48Z" fill="#80B7C6"/>
<path d="M321.409 260.009C322.001 259.417 323.038 259.268 323.778 260.009C324.518 260.749 324.518 261.638 323.778 262.378V262.378C323.186 262.971 322.149 263.119 321.409 262.378C320.668 261.638 320.816 260.601 321.409 260.009Z" fill="#80B7C6"/>
<path d="M310.486 270.93C311.079 270.337 312.115 270.189 312.856 270.93C313.596 271.67 313.596 272.559 312.856 273.299V273.299C312.264 273.892 311.227 274.04 310.486 273.299C309.746 272.559 309.894 271.522 310.486 270.93Z" fill="#80B7C6"/>
<path d="M299.807 281.61C300.4 281.018 301.436 280.87 302.177 281.61C302.917 282.351 302.917 283.239 302.177 283.98V283.98C301.584 284.572 300.548 284.72 299.807 283.98C299.067 283.239 299.215 282.203 299.807 281.61Z" fill="#80B7C6"/>
<path d="M315.916 265.501C316.508 264.909 317.545 264.761 318.285 265.501C319.026 266.242 319.026 267.13 318.285 267.871V267.871C317.693 268.463 316.656 268.611 315.916 267.871C315.175 267.13 315.324 266.094 315.916 265.501Z" fill="#80B7C6"/>
<path d="M305.235 276.182C305.828 275.589 306.864 275.441 307.605 276.182C308.345 276.922 308.345 277.811 307.605 278.551V278.551C307.013 279.144 305.976 279.292 305.235 278.551C304.495 277.811 304.643 276.774 305.235 276.182Z" fill="#80B7C6"/>
<path d="M315.878 243.423C316.471 242.831 317.507 242.683 318.248 243.423C318.988 244.163 318.988 245.052 318.248 245.792V245.792C317.655 246.385 316.619 246.533 315.878 245.792C315.138 245.052 315.138 244.163 315.878 243.423Z" fill="#80B7C6"/>
<path d="M310.35 248.951C310.943 248.359 311.979 248.211 312.72 248.951C313.46 249.691 313.46 250.58 312.72 251.32V251.32C312.127 251.913 311.091 252.061 310.35 251.32C309.61 250.58 309.758 249.543 310.35 248.951Z" fill="#80B7C6"/>
<path d="M299.43 259.872C300.022 259.28 301.059 259.132 301.799 259.872C302.54 260.613 302.54 261.501 301.799 262.242V262.242C301.207 262.834 300.17 262.982 299.43 262.242C298.689 261.501 298.837 260.465 299.43 259.872Z" fill="#80B7C6"/>
<path d="M288.749 270.553C289.342 269.96 290.378 269.812 291.119 270.553C291.859 271.293 291.859 272.182 291.119 272.922V272.922C290.526 273.514 289.49 273.662 288.749 272.922C288.009 272.182 288.157 271.145 288.749 270.553Z" fill="#80B7C6"/>
<path d="M304.859 254.444C305.451 253.851 306.487 253.703 307.228 254.444C307.968 255.184 307.968 256.073 307.228 256.813V256.813C306.636 257.405 305.599 257.554 304.859 256.813C304.118 256.073 304.266 255.036 304.859 254.444Z" fill="#80B7C6"/>
<path d="M294.178 265.124C294.77 264.532 295.807 264.384 296.548 265.124C297.288 265.865 297.288 266.753 296.548 267.494V267.494C295.955 268.086 294.919 268.234 294.178 267.494C293.438 266.753 293.586 265.716 294.178 265.124Z" fill="#80B7C6"/>
</svg>
