<svg width="564" height="487" viewBox="0 0 564 487" fill="none" xmlns="http://www.w3.org/2000/svg">
<circle cx="309.5" cy="258.5" r="217.5" fill="white"/>
<path d="M245.604 315.918C245.604 315.918 251.414 330.57 248.43 346.324C246.075 358.928 241.364 369.956 237.438 371.689C234.611 373.107 233.826 376.1 235.239 377.518C236.653 378.936 236.653 381.457 235.239 384.923C233.826 388.546 236.025 402.725 233.041 406.979C229.9 411.233 223.619 424.782 223.619 424.782L214.354 423.049C214.354 423.049 223.148 406.979 223.933 403.828C224.718 400.677 221.891 387.286 221.891 387.286C221.891 387.286 215.453 401.465 214.354 406.349C213.254 411.39 208.7 429.981 208.7 429.981H193.625L199.749 415.014C199.749 415.014 205.089 399.574 203.675 397.369C202.262 395.163 188.757 380.039 189.071 374.367C189.071 374.367 164.887 390.279 138.662 385.553C112.438 380.984 107.883 376.73 107.883 376.73C107.883 376.73 105.371 388.389 103.958 392.012C102.544 395.636 108.983 421.788 106.47 425.097C103.958 428.563 97.5191 427.145 94.5354 426.357C91.5518 425.569 92.494 422.734 94.5354 419.898C96.5769 417.062 91.3947 402.883 90.2955 404.931C88.8822 407.767 89.1962 415.171 87.7829 417.692C86.3696 420.213 81.6585 425.569 75.6912 425.727C72.5505 425.727 69.7238 425.412 70.0379 423.994C70.352 422.576 78.2037 416.904 80.2452 411.863C82.4437 406.822 86.9977 387.601 84.4852 385.553C81.9726 383.347 79.146 379.881 76.0052 384.45C72.8645 389.019 58.2602 405.719 16.8028 394.691C16.8028 394.691 17.1169 392.012 20.1006 390.437C23.0842 388.861 21.6709 388.074 20.7287 388.546C19.7865 389.019 15.2325 392.485 12.8769 392.17C10.3644 391.855 3.61182 381.772 3.61182 379.724C3.61182 377.676 7.85178 375.313 12.4058 372.319C17.1169 369.326 25.2827 361.291 25.1257 359.558C24.9687 357.825 24.6546 356.092 20.5717 355.462C16.4887 354.989 8.32289 356.407 5.96735 351.838C3.45478 347.112 1.09925 343.016 0 341.283C0 341.283 15.2325 340.022 21.3568 341.125C21.3568 341.125 20.4146 341.44 24.0265 335.926C27.6383 330.57 44.7552 300.479 76.1623 290.868C95.4777 284.882 140.076 279.998 162.689 280.786C184.674 281.573 195.98 283.306 212.155 288.978C222.362 292.601 242.306 308.829 244.819 309.144C247.331 309.459 250.786 302.842 255.654 301.739C260.365 300.636 264.605 299.218 266.489 305.993C268.217 312.61 268.374 316.706 264.762 326.631C261.15 336.556 261.15 336.556 261.15 336.556C261.15 336.556 253.298 329.782 254.241 326.474C255.183 323.165 258.324 321.747 257.695 317.651C257.224 313.397 258.638 307.726 255.183 309.774C251.571 312.295 249.373 318.439 245.604 315.918Z" fill="#80B7C6"/>
<path fill-rule="evenodd" clip-rule="evenodd" d="M192.489 327.257C192.957 321.904 184.512 316.793 173.626 315.841C166.877 315.25 160.774 316.397 156.999 318.629C153.086 318.006 148.097 318.408 142.939 319.985C139.15 321.143 135.792 322.776 133.128 324.633C132.125 325.118 131.242 325.84 130.495 326.75C127.567 329.497 126.151 332.497 126.944 335.092C127.111 335.638 127.369 336.145 127.71 336.61C127.768 338.203 128.013 339.864 128.462 341.54C130.641 349.673 136.812 355.086 142.246 353.63C147.139 352.319 149.765 345.882 148.646 338.673L148.652 338.672C153.52 337.183 157.678 334.911 160.564 332.387C163.705 333.821 167.627 334.847 171.93 335.224C182.816 336.176 192.021 332.609 192.489 327.257Z" fill="#F7FCFD"/>
<path fill-rule="evenodd" clip-rule="evenodd" d="M428.781 479.292C435.423 481.192 442.067 483.091 448.708 484.991C450.606 484.041 452.503 483.091 454.401 482.142V426.575C456.774 408.053 459.148 389.529 461.521 371.007C459.621 363.883 457.723 356.758 455.826 349.634C458.052 339.58 460.027 328.632 461.521 316.863C463.83 298.631 464.541 281.864 464.365 266.995H472.906C472.481 280.596 472.762 295.913 474.328 312.588C475.648 326.618 477.674 339.492 480.023 351.06C478.599 357.232 477.174 363.409 475.753 369.581C477.03 382.683 478.449 395.984 480.023 409.476C481.37 421.042 482.798 432.439 484.294 443.673V486.417H494.258C498.05 483.568 501.848 480.716 505.643 477.869V462.194C503.746 455.546 501.848 448.898 499.948 442.247C504.63 429.523 509.735 411.536 511.336 389.529C512.801 369.415 510.876 352.309 508.49 339.66C511.205 332.281 513.661 324.202 515.607 315.437C524.181 276.821 518.891 242.823 512.76 219.975C509.997 210.609 507.028 196.17 508.49 178.657C509.396 167.795 511.764 158.635 514.185 151.585C517.031 161.085 519.875 170.583 522.724 180.083C522.248 183.406 521.775 186.731 521.299 190.057C526.519 201.454 531.736 212.853 536.958 224.25C536.483 226.15 536.01 228.049 535.534 229.949C536.483 241.822 537.431 253.698 538.38 265.571L545.497 275.545C548.344 275.069 551.19 274.595 554.036 274.119C554.985 271.27 555.934 268.421 556.885 265.571C556.41 258.92 555.934 252.272 555.461 245.624C557.359 248.947 559.256 252.272 561.154 255.598H564C563.995 253.316 563.703 250.327 562.578 247.047C559.772 238.879 553.673 234.414 551.19 232.801C550.493 223.475 550.036 216.048 549.768 211.427C548.587 191.017 548.606 182.534 544.073 171.533C542.504 167.725 540.868 164.78 539.805 162.985C537.431 145.41 535.061 127.839 532.688 110.264C529.841 106.468 526.995 102.666 524.146 98.8671C511.336 93.1686 498.526 87.4674 485.716 81.7689C486.189 74.1709 486.665 66.5702 487.138 58.9721C489.461 57.3536 492.761 54.63 495.68 50.4244C499.587 44.7927 500.883 39.2842 501.372 36.1754C501.867 32.866 502.364 26.4906 499.948 19.0772C497.281 10.8879 492.459 5.72714 489.987 3.40493C485.89 1.90406 479.427 0.157047 471.482 0.555675C456.766 1.29407 446.656 8.90815 443.016 11.9527L440.169 31.9002L430.206 44.7232C430.679 45.6729 431.155 46.6227 431.628 47.5724H437.323V63.2474L440.169 66.0966H450.133V83.1948C435.898 88.4171 421.664 93.6421 407.432 98.8671C405.134 107.945 403.055 118.459 401.737 130.214C400.508 141.197 400.168 151.259 400.315 160.136C399.158 162.482 397.592 165.888 396.044 170.109C393.209 177.841 391.688 184.891 390.352 194.329C389.098 203.177 387.714 216.214 387.505 232.801C384.948 234.417 381.911 236.715 378.964 239.923C372.675 246.774 370.109 254.158 369 258.447C369.949 258.92 370.898 259.397 371.846 259.87C375.644 255.598 379.439 251.322 383.234 247.047C382.286 256.071 381.337 265.095 380.388 274.119L387.505 281.244C391.3 276.968 395.096 272.693 398.891 268.421C399.839 259.397 400.788 250.373 401.737 241.349C401.264 239.449 400.788 237.55 400.315 235.65C404.172 228.635 408.384 219.561 411.701 208.578C415.343 196.523 416.832 185.731 417.396 177.231C419.293 172.482 421.191 167.734 423.089 162.985V150.162H424.51C424.986 155.384 425.459 160.609 425.935 165.834C426.884 168.21 427.832 170.583 428.781 172.959C428.308 185.305 427.832 197.655 427.359 210.002C425.935 213.803 424.51 217.602 423.089 221.401C422.613 230.425 422.14 239.449 421.664 248.473C419.954 257.163 418.542 268.3 418.818 281.244C419.093 294.254 420.993 305.375 423.089 314.014C424.986 322.088 426.884 330.163 428.781 338.237C427.359 342.512 425.935 346.785 424.51 351.06V388.106C428.781 403.302 433.052 418.5 437.323 433.699V447.945C434.474 456.496 431.628 465.046 428.781 473.594V479.292Z" fill="#CBE2E9"/>
<path fill-rule="evenodd" clip-rule="evenodd" d="M493.358 171.006C493.734 166.712 487.12 162.625 478.585 161.879C473.249 161.412 468.426 162.361 465.468 164.187C462.396 163.685 458.495 163.989 454.468 165.22C451.383 166.163 448.664 167.516 446.542 169.056C445.916 169.397 445.353 169.862 444.862 170.43C442.465 172.651 441.3 175.103 441.949 177.227C442.08 177.656 442.28 178.055 442.543 178.422C442.589 179.722 442.789 181.081 443.157 182.453C444.902 188.97 449.775 193.325 454.04 192.183C457.893 191.15 459.932 185.984 459.003 180.192L459.041 180.18C462.867 179.011 466.129 177.212 468.389 175.205C470.837 176.333 473.884 177.137 477.225 177.43C485.759 178.176 492.983 175.301 493.358 171.006Z" fill="white"/>
<path d="M334.579 216.278C335.172 215.686 336.208 215.538 336.949 216.278C337.689 217.018 337.689 217.907 336.949 218.647V218.647C336.357 219.24 335.32 219.388 334.579 218.647C333.839 217.907 333.987 216.87 334.579 216.278Z" fill="#80B7C6"/>
<path d="M329.051 221.807C329.644 221.214 330.68 221.066 331.421 221.807C332.161 222.547 332.161 223.436 331.421 224.176V224.176C330.828 224.768 329.792 224.916 329.051 224.176C328.311 223.436 328.459 222.399 329.051 221.807Z" fill="#80B7C6"/>
<path d="M323.523 227.335C324.115 226.743 325.152 226.595 325.892 227.335C326.632 228.076 326.632 228.964 325.892 229.705V229.705C325.3 230.297 324.263 230.445 323.523 229.705C322.782 228.964 322.93 227.928 323.523 227.335Z" fill="#80B7C6"/>
<path d="M317.995 232.864C318.587 232.272 319.624 232.124 320.364 232.864C321.105 233.604 321.105 234.493 320.364 235.233V235.233C319.772 235.826 318.735 235.974 317.995 235.233C317.254 234.493 317.254 233.604 317.995 232.864Z" fill="#80B7C6"/>
<path d="M312.466 238.393C313.058 237.8 314.095 237.652 314.835 238.393C315.576 239.133 315.576 240.022 314.835 240.762V240.762C314.243 241.354 313.206 241.502 312.466 240.762C311.726 240.022 311.874 238.985 312.466 238.393Z" fill="#80B7C6"/>
<path d="M306.937 243.921C307.529 243.329 308.566 243.181 309.307 243.921C310.047 244.662 310.047 245.55 309.307 246.291V246.291C308.714 246.883 307.678 247.031 306.937 246.291C306.197 245.55 306.345 244.514 306.937 243.921Z" fill="#80B7C6"/>
<path d="M301.409 249.45C302.001 248.857 303.038 248.709 303.778 249.45C304.518 250.19 304.518 251.079 303.778 251.819V251.819C303.186 252.411 302.149 252.56 301.409 251.819C300.668 251.079 300.668 250.19 301.409 249.45Z" fill="#80B7C6"/>
<path d="M323.523 216.277C324.115 215.685 325.152 215.537 325.892 216.277C326.632 217.018 326.632 217.906 325.892 218.647V218.647C325.3 219.239 324.263 219.387 323.523 218.647C322.782 217.906 322.93 216.87 323.523 216.277Z" fill="#80B7C6"/>
<path d="M317.994 221.806C318.586 221.214 319.623 221.066 320.363 221.806C321.104 222.547 321.104 223.435 320.363 224.176V224.176C319.771 224.768 318.734 224.916 317.994 224.176C317.253 223.435 317.401 222.399 317.994 221.806Z" fill="#80B7C6"/>
<path d="M312.465 227.335C313.057 226.742 314.094 226.594 314.834 227.335C315.575 228.075 315.575 228.964 314.834 229.704V229.704C314.242 230.297 313.205 230.445 312.465 229.704C311.725 228.964 311.725 228.075 312.465 227.335Z" fill="#80B7C6"/>
<path d="M306.937 232.863C307.529 232.271 308.566 232.123 309.307 232.863C310.047 233.604 310.047 234.492 309.307 235.233V235.233C308.714 235.825 307.678 235.973 306.937 235.233C306.197 234.492 306.345 233.456 306.937 232.863Z" fill="#80B7C6"/>
<path d="M301.408 238.392C302 237.8 303.037 237.652 303.777 238.392C304.517 239.132 304.517 240.021 303.777 240.761V240.761C303.185 241.354 302.148 241.502 301.408 240.761C300.667 240.021 300.815 238.984 301.408 238.392Z" fill="#80B7C6"/>
<path d="M312.466 216.278C313.058 215.686 314.095 215.538 314.835 216.278C315.576 217.019 315.576 217.907 314.835 218.648V218.648C314.243 219.24 313.206 219.388 312.466 218.648C311.874 218.055 311.874 216.871 312.466 216.278Z" fill="#80B7C6"/>
<path d="M306.937 221.807C307.529 221.214 308.566 221.066 309.307 221.807C310.047 222.547 310.047 223.436 309.307 224.176V224.176C308.714 224.768 307.678 224.916 306.937 224.176C306.345 223.584 306.197 222.547 306.937 221.807Z" fill="#80B7C6"/>
<path d="M301.409 227.335C302.001 226.743 303.038 226.595 303.778 227.335C304.518 228.076 304.518 228.964 303.778 229.705V229.705C303.186 230.297 302.149 230.445 301.409 229.705C300.964 228.964 300.816 227.928 301.409 227.335Z" fill="#80B7C6"/>
<path d="M295.879 232.864C296.472 232.272 297.508 232.124 298.249 232.864C298.989 233.604 298.989 234.493 298.249 235.233V235.233C297.656 235.826 296.62 235.974 295.879 235.233C295.287 234.641 295.287 233.456 295.879 232.864Z" fill="#80B7C6"/>
<path d="M301.958 216.828C302.55 216.235 303.587 216.087 304.328 216.828C305.068 217.568 305.068 218.456 304.328 219.197V219.197C303.735 219.789 302.699 219.937 301.958 219.197C301.218 218.456 301.218 217.568 301.958 216.828Z" fill="#80B7C6"/>
<path d="M296.43 222.356C297.022 221.764 298.059 221.616 298.799 222.356C299.539 223.096 299.539 223.985 298.799 224.725V224.725C298.207 225.318 297.17 225.466 296.43 224.725C295.689 223.985 295.837 222.948 296.43 222.356Z" fill="#80B7C6"/>
<path d="M290.901 227.885C291.493 227.292 292.529 227.144 293.27 227.885C294.01 228.625 294.01 229.514 293.27 230.254V230.254C292.678 230.846 291.641 230.994 290.901 230.254C290.16 229.514 290.308 228.477 290.901 227.885Z" fill="#80B7C6"/>
<path d="M290.901 216.828C291.493 216.235 292.529 216.087 293.27 216.828C294.01 217.568 294.01 218.456 293.27 219.197V219.197C292.678 219.789 291.641 219.937 290.901 219.197C290.16 218.456 290.308 217.42 290.901 216.828Z" fill="#80B7C6"/>
<path d="M285.372 222.356C285.965 221.764 287.001 221.616 287.742 222.356C288.482 223.097 288.482 223.985 287.742 224.726V224.726C287.149 225.318 286.113 225.466 285.372 224.726C284.632 223.985 284.78 222.949 285.372 222.356Z" fill="#80B7C6"/>
<path d="M279.843 216.828C280.435 216.235 281.472 216.087 282.213 216.828C282.953 217.568 282.953 218.457 282.213 219.197V219.197C281.62 219.789 280.584 219.937 279.843 219.197C279.103 218.457 279.251 217.42 279.843 216.828Z" fill="#80B7C6"/>
<path d="M334.579 227.335C335.172 226.743 336.208 226.595 336.949 227.335C337.689 228.076 337.689 228.964 336.949 229.705V229.705C336.357 230.297 335.32 230.445 334.579 229.705C333.839 228.964 333.987 227.928 334.579 227.335Z" fill="#80B7C6"/>
<path d="M329.051 232.864C329.643 232.272 330.68 232.124 331.42 232.864C332.161 233.604 332.161 234.493 331.42 235.233V235.233C330.828 235.826 329.791 235.974 329.051 235.233C328.31 234.493 328.459 233.456 329.051 232.864Z" fill="#80B7C6"/>
<path d="M323.523 238.393C324.115 237.8 325.152 237.652 325.892 238.393C326.632 239.133 326.632 240.022 325.892 240.762V240.762C325.3 241.354 324.263 241.502 323.523 240.762C322.782 240.022 322.782 239.133 323.523 238.393Z" fill="#80B7C6"/>
<path d="M317.994 243.921C318.587 243.329 319.623 243.181 320.364 243.921C321.104 244.661 321.104 245.55 320.364 246.29V246.29C319.771 246.883 318.735 247.031 317.994 246.29C317.254 245.55 317.402 244.513 317.994 243.921Z" fill="#80B7C6"/>
<path d="M312.465 249.45C313.057 248.857 314.094 248.709 314.834 249.45C315.575 250.19 315.575 251.079 314.834 251.819V251.819C314.242 252.411 313.205 252.56 312.465 251.819C311.725 251.079 311.873 250.042 312.465 249.45Z" fill="#80B7C6"/>
<path d="M334.579 238.392C335.172 237.8 336.208 237.652 336.949 238.392C337.689 239.132 337.689 240.021 336.949 240.761V240.761C336.356 241.354 335.32 241.502 334.579 240.761C333.839 240.021 333.987 238.984 334.579 238.392Z" fill="#80B7C6"/>
<path d="M329.051 243.921C329.643 243.328 330.68 243.18 331.42 243.921C332.161 244.661 332.161 245.549 331.42 246.29V246.29C330.828 246.882 329.791 247.03 329.051 246.29C328.31 245.549 328.31 244.661 329.051 243.921Z" fill="#80B7C6"/>
<path d="M323.523 249.449C324.115 248.857 325.152 248.709 325.892 249.449C326.632 250.189 326.632 251.078 325.892 251.818V251.818C325.3 252.411 324.263 252.559 323.523 251.818C322.782 251.078 322.93 250.041 323.523 249.449Z" fill="#80B7C6"/>
<path d="M317.994 254.978C318.586 254.386 319.623 254.237 320.363 254.978C321.104 255.718 321.104 256.607 320.363 257.347V257.347C319.771 257.94 318.734 258.088 317.994 257.347C317.253 256.607 317.401 255.57 317.994 254.978Z" fill="#80B7C6"/>
<path d="M333.79 248.66C334.383 248.067 335.419 247.919 336.16 248.66C336.752 249.252 336.9 250.289 336.16 251.029V251.029C335.567 251.622 334.531 251.77 333.79 251.029C333.05 250.289 333.05 249.4 333.79 248.66Z" fill="#80B7C6"/>
<path d="M328.262 254.188C328.854 253.596 329.891 253.448 330.631 254.188C331.224 254.781 331.372 255.817 330.631 256.558V256.558C330.039 257.15 329.003 257.298 328.262 256.558C327.67 255.669 327.67 254.781 328.262 254.188Z" fill="#80B7C6"/>
<path d="M322.733 259.717C323.325 259.125 324.362 258.977 325.102 259.717C325.695 260.309 325.843 261.346 325.102 262.086V262.086C324.51 262.679 323.473 262.827 322.733 262.086C321.992 261.346 322.14 260.309 322.733 259.717Z" fill="#80B7C6"/>
<path d="M333.789 259.717C334.382 259.124 335.418 258.976 336.159 259.717C336.899 260.457 336.899 261.346 336.159 262.086V262.086C335.566 262.678 334.53 262.827 333.789 262.086C333.049 261.346 333.197 260.309 333.789 259.717Z" fill="#80B7C6"/>
<path d="M328.261 265.245C328.854 264.653 329.89 264.505 330.631 265.245C331.371 265.986 331.371 266.874 330.631 267.615V267.615C330.038 268.207 329.002 268.355 328.261 267.615C327.521 266.874 327.669 265.837 328.261 265.245Z" fill="#80B7C6"/>
<path d="M333.79 270.774C334.383 270.182 335.419 270.034 336.16 270.774C336.9 271.514 336.9 272.403 336.16 273.143V273.143C335.567 273.736 334.531 273.884 333.79 273.143C333.05 272.403 333.198 271.366 333.79 270.774Z" fill="#80B7C6"/>
<path d="M295.879 254.978C296.472 254.386 297.508 254.238 298.249 254.978C298.989 255.718 298.989 256.607 298.249 257.347V257.347C297.656 257.94 296.62 258.088 295.879 257.347C295.139 256.607 295.287 255.57 295.879 254.978Z" fill="#80B7C6"/>
<path d="M284.959 265.899C285.551 265.307 286.588 265.159 287.328 265.899C288.068 266.64 288.068 267.528 287.328 268.269V268.269C286.736 268.861 285.699 269.009 284.959 268.269C284.218 267.528 284.366 266.492 284.959 265.899Z" fill="#80B7C6"/>
<path d="M274.279 276.58C274.871 275.987 275.908 275.839 276.648 276.58C277.389 277.32 277.389 278.209 276.648 278.949V278.949C276.056 279.541 275.019 279.689 274.279 278.949C273.538 278.209 273.686 277.172 274.279 276.58Z" fill="#80B7C6"/>
<path d="M290.388 260.471C290.98 259.878 292.017 259.73 292.757 260.471C293.498 261.211 293.498 262.1 292.757 262.84V262.84C292.165 263.432 291.128 263.58 290.388 262.84C289.647 262.1 289.795 261.063 290.388 260.471Z" fill="#80B7C6"/>
<path d="M279.707 271.151C280.3 270.559 281.336 270.411 282.077 271.151C282.817 271.891 282.817 272.78 282.077 273.52V273.52C281.484 274.113 280.448 274.261 279.707 273.52C278.967 272.78 279.115 271.743 279.707 271.151Z" fill="#80B7C6"/>
<path d="M306.937 254.978C307.529 254.386 308.566 254.238 309.306 254.978C310.047 255.719 310.047 256.607 309.306 257.348V257.348C308.714 257.94 307.677 258.088 306.937 257.348C306.196 256.607 306.196 255.719 306.937 254.978Z" fill="#80B7C6"/>
<path d="M301.409 260.507C302.001 259.914 303.038 259.766 303.778 260.507C304.518 261.247 304.518 262.136 303.778 262.876V262.876C303.186 263.468 302.149 263.617 301.409 262.876C300.668 262.136 300.816 261.099 301.409 260.507Z" fill="#80B7C6"/>
<path d="M290.486 271.428C291.079 270.835 292.115 270.687 292.856 271.428C293.596 272.168 293.596 273.057 292.856 273.797V273.797C292.264 274.389 291.227 274.538 290.486 273.797C289.746 273.057 289.894 272.02 290.486 271.428Z" fill="#80B7C6"/>
<path d="M279.807 282.108C280.4 281.516 281.436 281.368 282.177 282.108C282.917 282.848 282.917 283.737 282.177 284.477V284.477C281.584 285.07 280.548 285.218 279.807 284.477C279.067 283.737 279.215 282.7 279.807 282.108Z" fill="#80B7C6"/>
<path d="M295.916 265.999C296.508 265.407 297.545 265.259 298.285 265.999C299.026 266.74 299.026 267.628 298.285 268.369V268.369C297.693 268.961 296.656 269.109 295.916 268.369C295.175 267.628 295.324 266.592 295.916 265.999Z" fill="#80B7C6"/>
<path d="M285.235 276.68C285.828 276.087 286.864 275.939 287.605 276.68C288.345 277.42 288.345 278.309 287.605 279.049V279.049C287.013 279.641 285.976 279.79 285.235 279.049C284.495 278.309 284.643 277.272 285.235 276.68Z" fill="#80B7C6"/>
<path d="M295.878 243.921C296.471 243.329 297.507 243.18 298.248 243.921C298.988 244.661 298.988 245.55 298.248 246.29V246.29C297.655 246.883 296.619 247.031 295.878 246.29C295.138 245.55 295.138 244.661 295.878 243.921Z" fill="#80B7C6"/>
<path d="M290.35 249.449C290.943 248.857 291.979 248.709 292.72 249.449C293.46 250.189 293.46 251.078 292.72 251.818V251.818C292.127 252.411 291.091 252.559 290.35 251.818C289.61 251.078 289.758 250.041 290.35 249.449Z" fill="#80B7C6"/>
<path d="M279.43 260.37C280.022 259.778 281.059 259.63 281.799 260.37C282.54 261.11 282.54 261.999 281.799 262.739V262.739C281.207 263.332 280.17 263.48 279.43 262.739C278.689 261.999 278.837 260.962 279.43 260.37Z" fill="#80B7C6"/>
<path d="M268.749 271.051C269.342 270.458 270.378 270.31 271.119 271.051C271.859 271.791 271.859 272.679 271.119 273.42V273.42C270.526 274.012 269.49 274.16 268.749 273.42C268.009 272.679 268.157 271.643 268.749 271.051Z" fill="#80B7C6"/>
<path d="M284.859 254.942C285.451 254.349 286.487 254.201 287.228 254.942C287.968 255.682 287.968 256.57 287.228 257.311V257.311C286.636 257.903 285.599 258.051 284.859 257.311C284.118 256.57 284.266 255.534 284.859 254.942Z" fill="#80B7C6"/>
<path d="M274.178 265.622C274.77 265.03 275.807 264.882 276.548 265.622C277.288 266.363 277.288 267.251 276.548 267.991V267.991C275.955 268.584 274.919 268.732 274.178 267.991C273.438 267.251 273.586 266.214 274.178 265.622Z" fill="#80B7C6"/>
</svg>
