<svg width="600" height="435" viewBox="0 0 600 435" fill="none" xmlns="http://www.w3.org/2000/svg">
<circle cx="321.5" cy="217.5" r="217.5" fill="white"/>
<path d="M495.967 46.7514C495.967 46.7514 501.123 59.7544 498.475 73.7361C496.385 84.9214 492.204 94.7086 488.72 96.2466C486.211 97.5049 485.514 100.161 486.768 101.42C488.023 102.678 488.023 104.915 486.768 107.991C485.514 111.207 487.465 123.791 484.817 127.566C482.03 131.341 476.455 143.365 476.455 143.365L468.233 141.827C468.233 141.827 476.037 127.566 476.734 124.769C477.431 121.973 474.922 110.088 474.922 110.088C474.922 110.088 469.209 122.672 468.233 127.006C467.257 131.48 463.216 147.979 463.216 147.979H449.837L455.272 134.696C455.272 134.696 460.01 120.994 458.756 119.037C457.502 117.079 445.517 103.657 445.795 98.6235C445.795 98.6235 424.333 112.745 401.059 108.55C377.785 104.496 373.744 100.721 373.744 100.721C373.744 100.721 371.514 111.067 370.26 114.283C369.005 117.499 374.719 140.708 372.489 143.644C370.26 146.72 364.546 145.462 361.898 144.763C359.25 144.064 360.086 141.547 361.898 139.031C363.709 136.514 359.11 123.93 358.135 125.748C356.88 128.265 357.159 134.836 355.905 137.073C354.651 139.31 350.47 144.064 345.174 144.204C342.387 144.204 339.878 143.924 340.157 142.666C340.435 141.407 347.404 136.374 349.215 131.9C351.167 127.426 355.208 110.368 352.978 108.55C350.748 106.593 348.24 103.517 345.453 107.572C342.665 111.626 329.704 126.447 292.912 116.66C292.912 116.66 293.191 114.283 295.839 112.885C298.487 111.487 297.232 110.788 296.396 111.207C295.56 111.626 291.518 114.702 289.428 114.423C287.198 114.143 281.205 105.195 281.205 103.377C281.205 101.56 284.968 99.4624 289.01 96.8059C293.191 94.1493 300.438 87.0187 300.298 85.4807C300.159 83.9427 299.88 82.4047 296.257 81.8455C292.633 81.426 285.386 82.6844 283.296 78.6297C281.066 74.4352 278.976 70.7999 278 69.2619C278 69.2619 291.518 68.1434 296.954 69.1221C296.954 69.1221 296.117 69.4018 299.323 64.5082C302.528 59.7544 317.719 33.0494 345.592 24.5206C362.734 19.2075 402.313 14.8732 422.382 15.5723C441.893 16.2714 451.927 17.8094 466.282 22.8428C475.341 26.0585 493.04 40.4597 495.27 40.7393C497.5 41.0189 500.566 35.1466 504.886 34.1679C509.067 33.1892 512.83 31.9309 514.502 37.943C516.035 43.8153 516.174 47.4505 512.969 56.259C509.764 65.0674 509.764 65.0674 509.764 65.0674C509.764 65.0674 502.795 59.0553 503.632 56.1192C504.468 53.183 507.255 51.9247 506.698 48.2894C506.28 44.5144 507.534 39.481 504.468 41.2986C501.262 43.5357 499.311 48.9885 495.967 46.7514Z" fill="#80B7C6"/>
<path fill-rule="evenodd" clip-rule="evenodd" d="M448.829 56.8141C449.244 52.0639 441.749 47.528 432.088 46.6827C426.099 46.1587 420.682 47.1763 417.332 49.1574C413.86 48.6041 409.432 48.9611 404.854 50.3608C401.491 51.3888 398.511 52.8377 396.147 54.4856C395.257 54.916 394.474 55.5568 393.811 56.3647C391.212 58.8021 389.955 61.4647 390.659 63.7675C390.807 64.2525 391.037 64.7021 391.339 65.115C391.39 66.5289 391.607 68.0026 392.006 69.4899C393.94 76.7081 399.417 81.5122 404.239 80.2201C408.582 79.0564 410.913 73.3437 409.919 66.946L409.924 66.9445C414.245 65.6234 417.935 63.6073 420.497 61.3668C423.284 62.6396 426.764 63.5505 430.583 63.8846C440.244 64.7298 448.413 61.5642 448.829 56.8141Z" fill="#F7FCFD"/>
<path d="M289.836 162.611C290.265 162.183 291.014 162.076 291.549 162.611C292.084 163.146 292.084 163.788 291.549 164.324V164.324C291.121 164.752 290.372 164.859 289.836 164.324C289.301 163.788 289.408 163.039 289.836 162.611Z" fill="#80B7C6"/>
<path d="M285.84 166.607C286.268 166.179 287.018 166.072 287.553 166.607C288.088 167.143 288.088 167.785 287.553 168.32V168.32C287.125 168.748 286.375 168.856 285.84 168.32C285.305 167.785 285.412 167.036 285.84 166.607Z" fill="#80B7C6"/>
<path d="M281.844 170.604C282.272 170.176 283.021 170.069 283.557 170.604C284.092 171.139 284.092 171.782 283.557 172.317V172.317C283.128 172.745 282.379 172.852 281.844 172.317C281.308 171.782 281.416 171.032 281.844 170.604Z" fill="#80B7C6"/>
<path d="M277.847 174.601C278.276 174.173 279.025 174.066 279.56 174.601C280.095 175.136 280.095 175.778 279.56 176.314V176.314C279.132 176.742 278.383 176.849 277.847 176.314C277.312 175.778 277.312 175.136 277.847 174.601Z" fill="#80B7C6"/>
<path d="M273.851 178.597C274.279 178.169 275.028 178.062 275.564 178.597C276.099 179.133 276.099 179.775 275.564 180.31V180.31C275.135 180.738 274.386 180.846 273.851 180.31C273.316 179.775 273.423 179.026 273.851 178.597Z" fill="#80B7C6"/>
<path d="M269.854 182.594C270.282 182.166 271.031 182.059 271.567 182.594C272.102 183.129 272.102 183.772 271.567 184.307V184.307C271.138 184.735 270.389 184.842 269.854 184.307C269.318 183.772 269.426 183.022 269.854 182.594Z" fill="#80B7C6"/>
<path d="M265.857 186.591C266.286 186.163 267.035 186.055 267.57 186.591C268.105 187.126 268.105 187.768 267.57 188.304V188.304C267.142 188.732 266.393 188.839 265.857 188.304C265.322 187.768 265.322 187.126 265.857 186.591Z" fill="#80B7C6"/>
<path d="M281.844 162.61C282.272 162.182 283.021 162.075 283.557 162.61C284.092 163.146 284.092 163.788 283.557 164.323V164.323C283.128 164.751 282.379 164.858 281.844 164.323C281.308 163.788 281.416 163.039 281.844 162.61Z" fill="#80B7C6"/>
<path d="M277.847 166.607C278.275 166.179 279.024 166.072 279.559 166.607C280.095 167.143 280.095 167.785 279.559 168.32V168.32C279.131 168.748 278.382 168.855 277.847 168.32C277.311 167.785 277.418 167.036 277.847 166.607Z" fill="#80B7C6"/>
<path d="M273.85 170.604C274.278 170.176 275.028 170.069 275.563 170.604C276.098 171.139 276.098 171.781 275.563 172.317V172.317C275.135 172.745 274.385 172.852 273.85 172.317C273.315 171.781 273.315 171.139 273.85 170.604Z" fill="#80B7C6"/>
<path d="M269.854 174.6C270.282 174.172 271.031 174.065 271.567 174.6C272.102 175.136 272.102 175.778 271.567 176.313V176.313C271.138 176.741 270.389 176.848 269.854 176.313C269.318 175.778 269.426 175.029 269.854 174.6Z" fill="#80B7C6"/>
<path d="M265.857 178.597C266.285 178.169 267.034 178.062 267.57 178.597C268.105 179.132 268.105 179.775 267.57 180.31V180.31C267.141 180.738 266.392 180.845 265.857 180.31C265.321 179.775 265.428 179.025 265.857 178.597Z" fill="#80B7C6"/>
<path d="M273.851 162.611C274.279 162.183 275.028 162.076 275.564 162.611C276.099 163.146 276.099 163.788 275.564 164.324V164.324C275.135 164.752 274.386 164.859 273.851 164.324C273.423 163.895 273.423 163.039 273.851 162.611Z" fill="#80B7C6"/>
<path d="M269.854 166.607C270.282 166.179 271.031 166.072 271.567 166.607C272.102 167.143 272.102 167.785 271.567 168.32V168.32C271.138 168.748 270.389 168.856 269.854 168.32C269.426 167.892 269.318 167.143 269.854 166.607Z" fill="#80B7C6"/>
<path d="M265.857 170.604C266.286 170.176 267.035 170.069 267.57 170.604C268.105 171.139 268.105 171.782 267.57 172.317V172.317C267.142 172.745 266.393 172.852 265.857 172.317C265.536 171.782 265.429 171.032 265.857 170.604Z" fill="#80B7C6"/>
<path d="M261.86 174.601C262.289 174.173 263.038 174.066 263.573 174.601C264.108 175.136 264.108 175.778 263.573 176.314V176.314C263.145 176.742 262.396 176.849 261.86 176.314C261.432 175.885 261.432 175.029 261.86 174.601Z" fill="#80B7C6"/>
<path d="M266.255 163.008C266.683 162.58 267.432 162.473 267.967 163.008C268.503 163.543 268.503 164.186 267.967 164.721V164.721C267.539 165.149 266.79 165.256 266.255 164.721C265.719 164.186 265.719 163.543 266.255 163.008Z" fill="#80B7C6"/>
<path d="M262.258 167.005C262.686 166.576 263.436 166.469 263.971 167.005C264.506 167.54 264.506 168.182 263.971 168.718V168.718C263.543 169.146 262.793 169.253 262.258 168.718C261.723 168.182 261.83 167.433 262.258 167.005Z" fill="#80B7C6"/>
<path d="M258.261 171.001C258.689 170.573 259.439 170.466 259.974 171.001C260.509 171.537 260.509 172.179 259.974 172.714V172.714C259.546 173.142 258.796 173.249 258.261 172.714C257.726 172.179 257.833 171.43 258.261 171.001Z" fill="#80B7C6"/>
<path d="M258.261 163.008C258.689 162.58 259.439 162.473 259.974 163.008C260.509 163.543 260.509 164.186 259.974 164.721V164.721C259.546 165.149 258.796 165.256 258.261 164.721C257.726 164.186 257.833 163.436 258.261 163.008Z" fill="#80B7C6"/>
<path d="M254.265 167.005C254.693 166.577 255.442 166.47 255.977 167.005C256.513 167.54 256.513 168.182 255.977 168.718V168.718C255.549 169.146 254.8 169.253 254.265 168.718C253.729 168.182 253.836 167.433 254.265 167.005Z" fill="#80B7C6"/>
<path d="M250.268 163.008C250.696 162.58 251.445 162.473 251.981 163.008C252.516 163.543 252.516 164.186 251.981 164.721V164.721C251.552 165.149 250.803 165.256 250.268 164.721C249.733 164.186 249.84 163.436 250.268 163.008Z" fill="#80B7C6"/>
<path d="M289.836 170.604C290.265 170.176 291.014 170.069 291.549 170.604C292.084 171.139 292.084 171.782 291.549 172.317V172.317C291.121 172.745 290.372 172.852 289.836 172.317C289.301 171.782 289.408 171.032 289.836 170.604Z" fill="#80B7C6"/>
<path d="M285.84 174.601C286.268 174.173 287.018 174.066 287.553 174.601C288.088 175.136 288.088 175.778 287.553 176.314V176.314C287.125 176.742 286.375 176.849 285.84 176.314C285.305 175.778 285.412 175.029 285.84 174.601Z" fill="#80B7C6"/>
<path d="M281.844 178.597C282.272 178.169 283.021 178.062 283.557 178.597C284.092 179.133 284.092 179.775 283.557 180.31V180.31C283.128 180.738 282.379 180.846 281.844 180.31C281.308 179.775 281.308 179.133 281.844 178.597Z" fill="#80B7C6"/>
<path d="M277.847 182.594C278.275 182.166 279.025 182.059 279.56 182.594C280.095 183.129 280.095 183.772 279.56 184.307V184.307C279.132 184.735 278.382 184.842 277.847 184.307C277.312 183.772 277.419 183.022 277.847 182.594Z" fill="#80B7C6"/>
<path d="M273.85 186.591C274.278 186.163 275.028 186.055 275.563 186.591C276.098 187.126 276.098 187.768 275.563 188.304V188.304C275.135 188.732 274.385 188.839 273.85 188.304C273.315 187.768 273.422 187.019 273.85 186.591Z" fill="#80B7C6"/>
<path d="M289.836 178.597C290.265 178.169 291.014 178.062 291.549 178.597C292.084 179.132 292.084 179.775 291.549 180.31V180.31C291.121 180.738 290.372 180.845 289.836 180.31C289.301 179.775 289.408 179.025 289.836 178.597Z" fill="#80B7C6"/>
<path d="M285.84 182.594C286.268 182.165 287.018 182.058 287.553 182.594C288.088 183.129 288.088 183.771 287.553 184.306V184.306C287.125 184.735 286.375 184.842 285.84 184.306C285.305 183.771 285.305 183.129 285.84 182.594Z" fill="#80B7C6"/>
<path d="M281.844 186.59C282.272 186.162 283.021 186.055 283.557 186.59C284.092 187.125 284.092 187.768 283.557 188.303V188.303C283.128 188.731 282.379 188.838 281.844 188.303C281.308 187.768 281.416 187.018 281.844 186.59Z" fill="#80B7C6"/>
<path d="M277.847 190.587C278.275 190.159 279.024 190.052 279.559 190.587C280.095 191.122 280.095 191.765 279.559 192.3V192.3C279.131 192.728 278.382 192.835 277.847 192.3C277.311 191.765 277.418 191.015 277.847 190.587Z" fill="#80B7C6"/>
<path d="M289.266 186.02C289.694 185.591 290.444 185.484 290.979 186.02C291.407 186.448 291.514 187.197 290.979 187.733V187.733C290.551 188.161 289.801 188.268 289.266 187.733C288.731 187.197 288.731 186.555 289.266 186.02Z" fill="#80B7C6"/>
<path d="M285.27 190.016C285.698 189.588 286.447 189.481 286.983 190.016C287.411 190.444 287.518 191.194 286.983 191.729V191.729C286.554 192.157 285.805 192.264 285.27 191.729C284.842 191.087 284.842 190.444 285.27 190.016Z" fill="#80B7C6"/>
<path d="M281.273 194.013C281.701 193.585 282.45 193.478 282.986 194.013C283.414 194.441 283.521 195.191 282.986 195.726V195.726C282.557 196.154 281.808 196.261 281.273 195.726C280.737 195.191 280.844 194.441 281.273 194.013Z" fill="#80B7C6"/>
<path d="M289.265 194.013C289.694 193.584 290.443 193.477 290.978 194.013C291.513 194.548 291.513 195.19 290.978 195.725V195.725C290.55 196.154 289.801 196.261 289.265 195.725C288.73 195.19 288.837 194.441 289.265 194.013Z" fill="#80B7C6"/>
<path d="M285.269 198.009C285.697 197.581 286.447 197.474 286.982 198.009C287.517 198.544 287.517 199.187 286.982 199.722V199.722C286.554 200.15 285.805 200.257 285.269 199.722C284.734 199.187 284.841 198.437 285.269 198.009Z" fill="#80B7C6"/>
<path d="M289.266 202.006C289.694 201.578 290.444 201.471 290.979 202.006C291.514 202.541 291.514 203.183 290.979 203.719V203.719C290.551 204.147 289.801 204.254 289.266 203.719C288.731 203.183 288.838 202.434 289.266 202.006Z" fill="#80B7C6"/>
<path d="M261.86 190.587C262.289 190.159 263.038 190.052 263.573 190.587C264.108 191.122 264.108 191.765 263.573 192.3V192.3C263.145 192.728 262.396 192.835 261.86 192.3C261.325 191.765 261.432 191.015 261.86 190.587Z" fill="#80B7C6"/>
<path d="M253.966 198.482C254.394 198.054 255.143 197.947 255.678 198.482C256.214 199.017 256.214 199.66 255.678 200.195V200.195C255.25 200.623 254.501 200.73 253.966 200.195C253.43 199.66 253.537 198.91 253.966 198.482Z" fill="#80B7C6"/>
<path d="M246.245 206.203C246.673 205.775 247.423 205.668 247.958 206.203C248.493 206.738 248.493 207.38 247.958 207.916V207.916C247.53 208.344 246.78 208.451 246.245 207.916C245.71 207.38 245.817 206.631 246.245 206.203Z" fill="#80B7C6"/>
<path d="M257.89 194.558C258.319 194.13 259.068 194.023 259.603 194.558C260.138 195.093 260.138 195.735 259.603 196.271V196.271C259.175 196.699 258.426 196.806 257.89 196.271C257.355 195.735 257.462 194.986 257.89 194.558Z" fill="#80B7C6"/>
<path d="M250.169 202.279C250.598 201.85 251.347 201.743 251.882 202.279C252.418 202.814 252.418 203.456 251.882 203.991V203.991C251.454 204.42 250.705 204.527 250.169 203.991C249.634 203.456 249.741 202.707 250.169 202.279Z" fill="#80B7C6"/>
<path d="M269.854 190.587C270.282 190.159 271.031 190.052 271.567 190.587C272.102 191.123 272.102 191.765 271.567 192.3V192.3C271.138 192.728 270.389 192.835 269.854 192.3C269.318 191.765 269.318 191.123 269.854 190.587Z" fill="#80B7C6"/>
<path d="M265.857 194.584C266.286 194.156 267.035 194.049 267.57 194.584C268.105 195.119 268.105 195.761 267.57 196.297V196.297C267.142 196.725 266.393 196.832 265.857 196.297C265.322 195.761 265.429 195.012 265.857 194.584Z" fill="#80B7C6"/>
<path d="M257.962 202.479C258.39 202.05 259.139 201.943 259.674 202.479C260.21 203.014 260.21 203.656 259.674 204.191V204.191C259.246 204.62 258.497 204.727 257.962 204.191C257.426 203.656 257.533 202.907 257.962 202.479Z" fill="#80B7C6"/>
<path d="M250.242 210.199C250.67 209.771 251.419 209.664 251.955 210.199C252.49 210.735 252.49 211.377 251.955 211.912V211.912C251.526 212.341 250.777 212.448 250.242 211.912C249.706 211.377 249.813 210.628 250.242 210.199Z" fill="#80B7C6"/>
<path d="M261.887 198.554C262.315 198.126 263.064 198.019 263.6 198.554C264.135 199.09 264.135 199.732 263.6 200.267V200.267C263.171 200.695 262.422 200.802 261.887 200.267C261.351 199.732 261.458 198.983 261.887 198.554Z" fill="#80B7C6"/>
<path d="M254.166 206.275C254.594 205.847 255.343 205.74 255.879 206.275C256.414 206.81 256.414 207.453 255.879 207.988V207.988C255.45 208.416 254.701 208.523 254.166 207.988C253.63 207.453 253.738 206.703 254.166 206.275Z" fill="#80B7C6"/>
<path d="M261.86 182.594C262.288 182.166 263.037 182.059 263.572 182.594C264.108 183.129 264.108 183.771 263.572 184.307V184.307C263.144 184.735 262.395 184.842 261.86 184.307C261.324 183.771 261.324 183.129 261.86 182.594Z" fill="#80B7C6"/>
<path d="M257.863 186.59C258.291 186.162 259.041 186.055 259.576 186.59C260.111 187.125 260.111 187.768 259.576 188.303V188.303C259.148 188.731 258.399 188.838 257.863 188.303C257.328 187.768 257.435 187.018 257.863 186.59Z" fill="#80B7C6"/>
<path d="M249.969 194.485C250.397 194.057 251.147 193.95 251.682 194.485C252.217 195.02 252.217 195.663 251.682 196.198V196.198C251.254 196.626 250.504 196.733 249.969 196.198C249.434 195.663 249.541 194.913 249.969 194.485Z" fill="#80B7C6"/>
<path d="M242.248 202.206C242.676 201.778 243.425 201.671 243.961 202.206C244.496 202.741 244.496 203.384 243.961 203.919V203.919C243.532 204.347 242.783 204.454 242.248 203.919C241.713 203.384 241.82 202.634 242.248 202.206Z" fill="#80B7C6"/>
<path d="M253.893 190.561C254.321 190.133 255.071 190.026 255.606 190.561C256.141 191.096 256.141 191.738 255.606 192.274V192.274C255.178 192.702 254.429 192.809 253.893 192.274C253.358 191.738 253.465 190.989 253.893 190.561Z" fill="#80B7C6"/>
<path d="M246.172 198.282C246.601 197.853 247.35 197.746 247.885 198.282C248.42 198.817 248.42 199.459 247.885 199.994V199.994C247.457 200.423 246.708 200.53 246.172 199.994C245.637 199.459 245.744 198.71 246.172 198.282Z" fill="#80B7C6"/>
<path d="M451.972 211.544C452.412 211.96 452.541 212.706 452.021 213.256C451.501 213.807 450.859 213.825 450.309 213.306V213.306C449.869 212.89 449.74 212.144 450.26 211.593C450.779 211.043 451.531 211.128 451.972 211.544Z" fill="#80B7C6"/>
<path d="M447.862 207.665C448.302 208.08 448.431 208.826 447.911 209.377C447.392 209.927 446.75 209.946 446.199 209.426V209.426C445.759 209.01 445.63 208.264 446.15 207.714C446.669 207.163 447.422 207.249 447.862 207.665Z" fill="#80B7C6"/>
<path d="M443.752 203.785C444.192 204.201 444.321 204.947 443.801 205.497C443.282 206.047 442.639 206.066 442.089 205.546V205.546C441.649 205.131 441.52 204.385 442.04 203.834C442.559 203.284 443.311 203.369 443.752 203.785Z" fill="#80B7C6"/>
<path d="M439.642 199.905C440.082 200.321 440.211 201.067 439.691 201.618C439.171 202.168 438.529 202.186 437.979 201.667V201.667C437.539 201.251 437.41 200.505 437.93 199.955C438.449 199.404 439.091 199.386 439.642 199.905Z" fill="#80B7C6"/>
<path d="M435.532 196.025C435.972 196.441 436.101 197.187 435.581 197.738C435.061 198.288 434.419 198.307 433.869 197.787V197.787C433.428 197.371 433.3 196.625 433.819 196.075C434.339 195.524 435.091 195.61 435.532 196.025Z" fill="#80B7C6"/>
<path d="M431.421 192.145C431.862 192.561 431.99 193.307 431.471 193.857C430.951 194.408 430.309 194.426 429.759 193.907V193.907C429.318 193.491 429.19 192.745 429.709 192.195C430.229 191.644 430.981 191.73 431.421 192.145Z" fill="#80B7C6"/>
<path d="M427.312 188.266C427.752 188.681 427.881 189.427 427.361 189.978C426.841 190.528 426.199 190.547 425.649 190.027V190.027C425.208 189.611 425.08 188.865 425.6 188.315C426.119 187.764 426.761 187.746 427.312 188.266Z" fill="#80B7C6"/>
<path d="M451.742 203.555C452.183 203.97 452.311 204.716 451.792 205.267C451.272 205.817 450.63 205.836 450.079 205.316V205.316C449.639 204.9 449.511 204.154 450.03 203.604C450.55 203.054 451.302 203.139 451.742 203.555Z" fill="#80B7C6"/>
<path d="M447.632 199.674C448.072 200.09 448.201 200.836 447.681 201.387C447.162 201.937 446.52 201.955 445.969 201.436V201.436C445.529 201.02 445.4 200.274 445.92 199.724C446.439 199.173 447.192 199.259 447.632 199.674Z" fill="#80B7C6"/>
<path d="M443.522 195.795C443.962 196.21 444.091 196.956 443.571 197.507C443.052 198.057 442.41 198.076 441.859 197.556V197.556C441.419 197.14 441.29 196.394 441.81 195.844C442.33 195.293 442.972 195.275 443.522 195.795Z" fill="#80B7C6"/>
<path d="M439.412 191.915C439.852 192.331 439.981 193.077 439.461 193.627C438.942 194.178 438.3 194.196 437.749 193.677V193.677C437.309 193.261 437.18 192.515 437.7 191.964C438.219 191.414 438.972 191.499 439.412 191.915Z" fill="#80B7C6"/>
<path d="M435.302 188.035C435.742 188.45 435.871 189.196 435.351 189.747C434.832 190.297 434.19 190.316 433.639 189.796V189.796C433.199 189.38 433.07 188.634 433.59 188.084C434.109 187.534 434.862 187.619 435.302 188.035Z" fill="#80B7C6"/>
<path d="M451.512 195.565C451.952 195.981 452.081 196.727 451.561 197.277C451.041 197.828 450.399 197.846 449.849 197.327V197.327C449.408 196.911 449.28 196.165 449.799 195.614C450.215 195.174 451.071 195.149 451.512 195.565Z" fill="#80B7C6"/>
<path d="M447.401 191.685C447.842 192.101 447.97 192.847 447.451 193.397C446.931 193.947 446.289 193.966 445.739 193.446V193.446C445.298 193.031 445.17 192.285 445.689 191.734C446.105 191.294 446.851 191.165 447.401 191.685Z" fill="#80B7C6"/>
<path d="M443.292 187.805C443.732 188.221 443.861 188.967 443.341 189.517C442.821 190.068 442.179 190.086 441.629 189.567V189.567C441.188 189.151 441.06 188.405 441.579 187.855C442.105 187.518 442.851 187.39 443.292 187.805Z" fill="#80B7C6"/>
<path d="M439.181 183.925C439.622 184.34 439.75 185.086 439.231 185.637C438.711 186.187 438.069 186.206 437.518 185.686V185.686C437.078 185.271 436.95 184.525 437.469 183.974C437.885 183.534 438.741 183.509 439.181 183.925Z" fill="#80B7C6"/>
<path d="M450.896 187.984C451.336 188.399 451.465 189.145 450.945 189.696C450.426 190.246 449.784 190.265 449.233 189.745V189.745C448.793 189.329 448.664 188.583 449.184 188.033C449.703 187.482 450.345 187.464 450.896 187.984Z" fill="#80B7C6"/>
<path d="M446.786 184.104C447.226 184.519 447.355 185.265 446.835 185.816C446.316 186.366 445.674 186.385 445.123 185.865V185.865C444.683 185.449 444.554 184.704 445.074 184.153C445.593 183.603 446.346 183.688 446.786 184.104Z" fill="#80B7C6"/>
<path d="M442.676 180.223C443.116 180.639 443.245 181.385 442.725 181.936C442.205 182.486 441.563 182.505 441.013 181.985V181.985C440.572 181.569 440.444 180.823 440.964 180.273C441.483 179.722 442.235 179.808 442.676 180.223Z" fill="#80B7C6"/>
<path d="M450.666 179.993C451.106 180.409 451.235 181.155 450.715 181.706C450.195 182.256 449.553 182.274 449.003 181.755V181.755C448.562 181.339 448.434 180.593 448.954 180.043C449.473 179.492 450.225 179.578 450.666 179.993Z" fill="#80B7C6"/>
<path d="M446.556 176.114C446.996 176.529 447.124 177.275 446.605 177.826C446.085 178.376 445.443 178.395 444.893 177.875V177.875C444.452 177.459 444.324 176.713 444.843 176.163C445.363 175.612 446.115 175.698 446.556 176.114Z" fill="#80B7C6"/>
<path d="M450.435 172.003C450.876 172.419 451.004 173.165 450.485 173.715C449.965 174.266 449.323 174.284 448.773 173.765V173.765C448.332 173.349 448.204 172.603 448.723 172.053C449.243 171.502 449.995 171.588 450.435 172.003Z" fill="#80B7C6"/>
<path d="M443.982 211.774C444.422 212.19 444.551 212.936 444.031 213.487C443.512 214.037 442.87 214.055 442.319 213.536V213.536C441.879 213.12 441.75 212.374 442.27 211.824C442.79 211.273 443.542 211.359 443.982 211.774Z" fill="#80B7C6"/>
<path d="M439.872 207.895C440.312 208.31 440.441 209.056 439.921 209.607C439.401 210.157 438.759 210.176 438.209 209.656V209.656C437.769 209.241 437.64 208.495 438.16 207.944C438.679 207.394 439.431 207.479 439.872 207.895Z" fill="#80B7C6"/>
<path d="M435.762 204.015C436.202 204.431 436.331 205.177 435.811 205.727C435.292 206.278 434.649 206.296 434.099 205.776V205.776C433.659 205.361 433.53 204.615 434.05 204.064C434.569 203.514 435.211 203.495 435.762 204.015Z" fill="#80B7C6"/>
<path d="M431.652 200.135C432.092 200.551 432.221 201.297 431.701 201.847C431.181 202.398 430.539 202.416 429.989 201.897V201.897C429.549 201.481 429.42 200.735 429.94 200.185C430.459 199.634 431.211 199.72 431.652 200.135Z" fill="#80B7C6"/>
<path d="M427.542 196.255C427.982 196.671 428.111 197.417 427.591 197.967C427.071 198.517 426.429 198.536 425.879 198.016V198.016C425.438 197.601 425.31 196.855 425.829 196.304C426.349 195.754 427.101 195.839 427.542 196.255Z" fill="#80B7C6"/>
<path d="M435.992 212.004C436.433 212.42 436.561 213.166 436.042 213.717C435.522 214.267 434.88 214.286 434.329 213.766V213.766C433.889 213.35 433.761 212.604 434.28 212.054C434.8 211.503 435.552 211.589 435.992 212.004Z" fill="#80B7C6"/>
<path d="M431.882 208.125C432.323 208.541 432.451 209.287 431.932 209.837C431.412 210.387 430.77 210.406 430.22 209.886V209.886C429.779 209.471 429.651 208.725 430.17 208.174C430.69 207.624 431.332 207.605 431.882 208.125Z" fill="#80B7C6"/>
<path d="M427.772 204.245C428.213 204.661 428.341 205.407 427.822 205.957C427.302 206.508 426.66 206.526 426.11 206.007V206.007C425.669 205.591 425.541 204.845 426.06 204.294C426.58 203.744 427.332 203.829 427.772 204.245Z" fill="#80B7C6"/>
<path d="M423.662 200.365C424.103 200.781 424.231 201.527 423.712 202.077C423.192 202.628 422.55 202.646 421.999 202.126V202.126C421.559 201.711 421.43 200.965 421.95 200.414C422.47 199.864 423.222 199.949 423.662 200.365Z" fill="#80B7C6"/>
<path d="M428.556 211.648C428.997 212.064 429.125 212.81 428.606 213.36C428.19 213.801 427.444 213.929 426.893 213.41V213.41C426.453 212.994 426.325 212.248 426.844 211.697C427.364 211.147 428.006 211.128 428.556 211.648Z" fill="#80B7C6"/>
<path d="M424.446 207.769C424.887 208.184 425.015 208.93 424.496 209.481C424.08 209.921 423.334 210.05 422.784 209.53V209.53C422.343 209.114 422.215 208.368 422.734 207.818C423.364 207.371 424.006 207.353 424.446 207.769Z" fill="#80B7C6"/>
<path d="M420.336 203.888C420.777 204.304 420.905 205.05 420.386 205.6C419.97 206.041 419.224 206.169 418.673 205.649V205.649C418.233 205.234 418.105 204.488 418.624 203.937C419.144 203.387 419.896 203.472 420.336 203.888Z" fill="#80B7C6"/>
<path d="M420.567 211.878C421.007 212.293 421.136 213.039 420.616 213.59C420.096 214.14 419.454 214.159 418.904 213.639V213.639C418.464 213.223 418.335 212.477 418.855 211.927C419.374 211.377 420.126 211.462 420.567 211.878Z" fill="#80B7C6"/>
<path d="M416.457 207.998C416.897 208.414 417.026 209.16 416.506 209.71C415.986 210.261 415.344 210.279 414.794 209.76V209.76C414.353 209.344 414.225 208.598 414.745 208.047C415.264 207.497 416.016 207.582 416.457 207.998Z" fill="#80B7C6"/>
<path d="M412.577 212.108C413.017 212.524 413.146 213.27 412.626 213.82C412.106 214.371 411.464 214.389 410.914 213.87V213.87C410.474 213.454 410.345 212.708 410.865 212.158C411.384 211.607 412.136 211.693 412.577 212.108Z" fill="#80B7C6"/>
<path d="M423.202 184.385C423.642 184.801 423.771 185.547 423.251 186.097C422.731 186.648 422.089 186.666 421.539 186.147V186.147C421.099 185.731 420.97 184.985 421.49 184.434C422.009 183.884 422.761 183.969 423.202 184.385Z" fill="#80B7C6"/>
<path d="M415.083 176.721C415.523 177.137 415.652 177.883 415.132 178.433C414.613 178.984 413.971 179.002 413.42 178.483V178.483C412.98 178.067 412.851 177.321 413.371 176.77C413.89 176.22 414.643 176.305 415.083 176.721Z" fill="#80B7C6"/>
<path d="M407.143 169.226C407.583 169.642 407.712 170.388 407.192 170.938C406.673 171.489 406.031 171.507 405.48 170.988V170.988C405.04 170.572 404.911 169.826 405.431 169.275C405.95 168.725 406.703 168.81 407.143 169.226Z" fill="#80B7C6"/>
<path d="M419.119 180.531C419.559 180.947 419.687 181.693 419.168 182.243C418.648 182.794 418.006 182.812 417.456 182.293V182.293C417.015 181.877 416.887 181.131 417.406 180.581C417.926 180.03 418.678 180.116 419.119 180.531Z" fill="#80B7C6"/>
<path d="M411.178 173.036C411.619 173.451 411.747 174.197 411.228 174.748C410.708 175.298 410.066 175.317 409.516 174.797V174.797C409.075 174.381 408.947 173.636 409.466 173.085C409.986 172.535 410.738 172.62 411.178 173.036Z" fill="#80B7C6"/>
<path d="M423.432 192.375C423.872 192.791 424.001 193.537 423.481 194.088C422.961 194.638 422.319 194.657 421.769 194.137V194.137C421.329 193.721 421.2 192.975 421.72 192.425C422.239 191.874 422.881 191.856 423.432 192.375Z" fill="#80B7C6"/>
<path d="M419.322 188.496C419.762 188.911 419.891 189.657 419.371 190.208C418.851 190.758 418.209 190.777 417.659 190.257V190.257C417.218 189.841 417.09 189.095 417.61 188.545C418.129 187.995 418.881 188.08 419.322 188.496Z" fill="#80B7C6"/>
<path d="M411.203 180.831C411.643 181.246 411.772 181.992 411.252 182.543C410.733 183.093 410.091 183.112 409.54 182.592V182.592C409.1 182.176 408.971 181.43 409.491 180.88C410.01 180.33 410.763 180.415 411.203 180.831Z" fill="#80B7C6"/>
<path d="M403.263 173.336C403.703 173.752 403.832 174.498 403.312 175.048C402.793 175.599 402.151 175.617 401.6 175.098V175.098C401.16 174.682 401.031 173.936 401.551 173.385C402.071 172.835 402.823 172.92 403.263 173.336Z" fill="#80B7C6"/>
<path d="M415.239 184.641C415.679 185.057 415.808 185.803 415.288 186.353C414.768 186.904 414.126 186.922 413.576 186.402V186.402C413.135 185.987 413.007 185.241 413.527 184.69C414.046 184.14 414.798 184.225 415.239 184.641Z" fill="#80B7C6"/>
<path d="M407.298 177.146C407.739 177.561 407.867 178.307 407.348 178.858C406.828 179.408 406.186 179.427 405.636 178.907V178.907C405.195 178.491 405.067 177.745 405.586 177.195C406.106 176.644 406.858 176.73 407.298 177.146Z" fill="#80B7C6"/>
<path d="M431.192 184.154C431.632 184.57 431.76 185.316 431.241 185.866C430.721 186.417 430.079 186.435 429.529 185.916V185.916C429.088 185.5 428.96 184.754 429.479 184.204C429.999 183.653 430.641 183.635 431.192 184.154Z" fill="#80B7C6"/>
<path d="M427.082 180.275C427.522 180.69 427.651 181.436 427.131 181.987C426.612 182.537 425.97 182.556 425.419 182.036V182.036C424.979 181.621 424.85 180.875 425.37 180.324C425.889 179.774 426.642 179.859 427.082 180.275Z" fill="#80B7C6"/>
<path d="M418.963 172.611C419.403 173.027 419.532 173.773 419.012 174.323C418.493 174.874 417.851 174.892 417.3 174.372V174.372C416.86 173.957 416.731 173.211 417.251 172.66C417.77 172.11 418.523 172.195 418.963 172.611Z" fill="#80B7C6"/>
<path d="M411.023 165.115C411.463 165.531 411.592 166.277 411.072 166.828C410.553 167.378 409.911 167.397 409.36 166.877V166.877C408.92 166.461 408.791 165.715 409.311 165.165C409.831 164.614 410.583 164.7 411.023 165.115Z" fill="#80B7C6"/>
<path d="M422.999 176.421C423.439 176.836 423.568 177.582 423.048 178.133C422.528 178.683 421.886 178.702 421.336 178.182V178.182C420.895 177.767 420.767 177.021 421.287 176.47C421.806 175.92 422.558 176.005 422.999 176.421Z" fill="#80B7C6"/>
<path d="M415.059 168.925C415.499 169.341 415.628 170.087 415.108 170.638C414.588 171.188 413.946 171.206 413.396 170.687V170.687C412.956 170.271 412.827 169.525 413.347 168.975C413.866 168.424 414.618 168.51 415.059 168.925Z" fill="#80B7C6"/>
<path d="M137.218 208.79C137.658 209.205 137.787 209.951 137.267 210.502C136.747 211.052 136.105 211.071 135.555 210.551V210.551C135.114 210.135 134.986 209.389 135.506 208.839C136.025 208.288 136.777 208.374 137.218 208.79Z" fill="#80B7C6"/>
<path d="M133.108 204.91C133.548 205.326 133.677 206.072 133.157 206.622C132.637 207.172 131.995 207.191 131.445 206.671V206.671C131.005 206.256 130.876 205.51 131.396 204.959C131.915 204.409 132.667 204.494 133.108 204.91Z" fill="#80B7C6"/>
<path d="M128.998 201.03C129.438 201.446 129.567 202.192 129.047 202.742C128.527 203.293 127.885 203.311 127.335 202.792V202.792C126.894 202.376 126.766 201.63 127.286 201.08C127.805 200.529 128.557 200.615 128.998 201.03Z" fill="#80B7C6"/>
<path d="M124.888 197.151C125.328 197.566 125.457 198.312 124.937 198.863C124.417 199.413 123.775 199.432 123.225 198.912V198.912C122.784 198.496 122.656 197.751 123.175 197.2C123.695 196.65 124.337 196.631 124.888 197.151Z" fill="#80B7C6"/>
<path d="M120.777 193.271C121.218 193.687 121.346 194.433 120.827 194.983C120.307 195.533 119.665 195.552 119.115 195.032V195.032C118.674 194.617 118.546 193.871 119.065 193.32C119.585 192.77 120.337 192.855 120.777 193.271Z" fill="#80B7C6"/>
<path d="M116.667 189.391C117.108 189.806 117.236 190.552 116.717 191.103C116.197 191.653 115.555 191.672 115.005 191.152V191.152C114.564 190.736 114.436 189.99 114.955 189.44C115.475 188.889 116.227 188.975 116.667 189.391Z" fill="#80B7C6"/>
<path d="M112.557 185.511C112.998 185.927 113.126 186.673 112.607 187.223C112.087 187.774 111.445 187.792 110.895 187.272V187.272C110.454 186.857 110.326 186.111 110.845 185.56C111.365 185.01 112.007 184.991 112.557 185.511Z" fill="#80B7C6"/>
<path d="M136.988 200.8C137.429 201.216 137.557 201.962 137.037 202.512C136.518 203.063 135.876 203.081 135.325 202.561V202.561C134.885 202.146 134.756 201.4 135.276 200.849C135.796 200.299 136.548 200.384 136.988 200.8Z" fill="#80B7C6"/>
<path d="M132.878 196.92C133.318 197.335 133.447 198.081 132.927 198.632C132.407 199.182 131.765 199.201 131.215 198.681V198.681C130.775 198.266 130.646 197.52 131.166 196.969C131.685 196.419 132.437 196.504 132.878 196.92Z" fill="#80B7C6"/>
<path d="M128.768 193.04C129.208 193.456 129.337 194.202 128.817 194.752C128.298 195.302 127.656 195.321 127.105 194.801V194.801C126.665 194.386 126.536 193.64 127.056 193.089C127.575 192.539 128.217 192.52 128.768 193.04Z" fill="#80B7C6"/>
<path d="M124.658 189.161C125.098 189.576 125.227 190.322 124.707 190.873C124.188 191.423 123.545 191.442 122.995 190.922V190.922C122.555 190.506 122.426 189.76 122.946 189.21C123.465 188.659 124.217 188.745 124.658 189.161Z" fill="#80B7C6"/>
<path d="M120.548 185.28C120.988 185.696 121.117 186.442 120.597 186.992C120.077 187.543 119.435 187.561 118.885 187.041V187.041C118.445 186.626 118.316 185.88 118.836 185.329C119.355 184.779 120.107 184.864 120.548 185.28Z" fill="#80B7C6"/>
<path d="M136.757 192.811C137.198 193.226 137.326 193.972 136.807 194.523C136.287 195.073 135.645 195.092 135.095 194.572V194.572C134.654 194.156 134.526 193.41 135.045 192.86C135.461 192.419 136.317 192.395 136.757 192.811Z" fill="#80B7C6"/>
<path d="M132.647 188.93C133.088 189.346 133.216 190.092 132.697 190.642C132.177 191.193 131.535 191.211 130.985 190.692V190.692C130.544 190.276 130.416 189.53 130.935 188.98C131.351 188.539 132.097 188.411 132.647 188.93Z" fill="#80B7C6"/>
<path d="M128.537 185.051C128.978 185.466 129.106 186.212 128.587 186.763C128.067 187.313 127.425 187.332 126.875 186.812V186.812C126.434 186.396 126.306 185.65 126.825 185.1C127.351 184.764 128.097 184.635 128.537 185.051Z" fill="#80B7C6"/>
<path d="M124.427 181.17C124.867 181.586 124.996 182.332 124.476 182.882C123.957 183.433 123.315 183.451 122.764 182.932V182.932C122.324 182.516 122.195 181.77 122.715 181.219C123.131 180.779 123.987 180.754 124.427 181.17Z" fill="#80B7C6"/>
<path d="M136.142 185.229C136.582 185.645 136.711 186.391 136.191 186.941C135.671 187.492 135.029 187.51 134.479 186.99V186.99C134.039 186.575 133.91 185.829 134.43 185.278C134.949 184.728 135.591 184.709 136.142 185.229Z" fill="#80B7C6"/>
<path d="M132.032 181.349C132.472 181.765 132.601 182.511 132.081 183.061C131.562 183.612 130.919 183.63 130.369 183.111V183.111C129.929 182.695 129.8 181.949 130.32 181.398C130.839 180.848 131.591 180.933 132.032 181.349Z" fill="#80B7C6"/>
<path d="M127.921 177.469C128.362 177.885 128.49 178.631 127.971 179.181C127.451 179.731 126.809 179.75 126.259 179.23V179.23C125.818 178.815 125.69 178.069 126.209 177.518C126.729 176.968 127.481 177.053 127.921 177.469Z" fill="#80B7C6"/>
<path d="M135.911 177.239C136.352 177.654 136.48 178.4 135.961 178.951C135.441 179.501 134.799 179.52 134.249 179V179C133.808 178.584 133.68 177.839 134.199 177.288C134.719 176.738 135.471 176.823 135.911 177.239Z" fill="#80B7C6"/>
<path d="M131.801 173.359C132.242 173.775 132.37 174.521 131.851 175.071C131.331 175.622 130.689 175.64 130.139 175.12V175.12C129.698 174.705 129.57 173.959 130.089 173.408C130.609 172.858 131.361 172.943 131.801 173.359Z" fill="#80B7C6"/>
<path d="M135.681 169.249C136.122 169.664 136.25 170.41 135.731 170.961C135.211 171.511 134.569 171.53 134.018 171.01V171.01C133.578 170.594 133.45 169.848 133.969 169.298C134.489 168.748 135.241 168.833 135.681 169.249Z" fill="#80B7C6"/>
<path d="M129.228 209.02C129.668 209.435 129.797 210.181 129.277 210.732C128.758 211.282 128.116 211.301 127.565 210.781V210.781C127.125 210.366 126.996 209.62 127.516 209.069C128.035 208.519 128.788 208.604 129.228 209.02Z" fill="#80B7C6"/>
<path d="M125.118 205.14C125.558 205.556 125.686 206.302 125.167 206.852C124.647 207.403 124.005 207.421 123.455 206.902V206.902C123.014 206.486 122.886 205.74 123.405 205.189C123.925 204.639 124.677 204.724 125.118 205.14Z" fill="#80B7C6"/>
<path d="M121.008 201.26C121.448 201.676 121.577 202.422 121.057 202.972C120.537 203.523 119.895 203.541 119.345 203.022V203.022C118.905 202.606 118.776 201.86 119.296 201.31C119.815 200.759 120.457 200.741 121.008 201.26Z" fill="#80B7C6"/>
<path d="M116.898 197.381C117.338 197.796 117.467 198.542 116.947 199.093C116.427 199.643 115.785 199.662 115.235 199.142V199.142C114.794 198.726 114.666 197.98 115.185 197.43C115.705 196.88 116.457 196.965 116.898 197.381Z" fill="#80B7C6"/>
<path d="M112.787 193.5C113.228 193.916 113.356 194.662 112.837 195.212C112.317 195.763 111.675 195.781 111.125 195.262V195.262C110.684 194.846 110.556 194.1 111.075 193.55C111.595 192.999 112.347 193.085 112.787 193.5Z" fill="#80B7C6"/>
<path d="M121.238 209.25C121.679 209.666 121.807 210.412 121.287 210.962C120.768 211.512 120.126 211.531 119.575 211.011V211.011C119.135 210.596 119.006 209.85 119.526 209.299C120.046 208.749 120.798 208.834 121.238 209.25Z" fill="#80B7C6"/>
<path d="M117.128 205.37C117.569 205.786 117.697 206.532 117.178 207.082C116.658 207.633 116.016 207.651 115.465 207.132V207.132C115.025 206.716 114.897 205.97 115.416 205.42C115.936 204.869 116.578 204.851 117.128 205.37Z" fill="#80B7C6"/>
<path d="M113.018 201.49C113.459 201.906 113.587 202.652 113.067 203.203C112.548 203.753 111.906 203.772 111.355 203.252V203.252C110.915 202.836 110.786 202.09 111.306 201.54C111.826 200.989 112.578 201.075 113.018 201.49Z" fill="#80B7C6"/>
<path d="M108.908 197.61C109.348 198.026 109.477 198.772 108.957 199.322C108.438 199.873 107.796 199.891 107.245 199.372V199.372C106.805 198.956 106.676 198.21 107.196 197.66C107.716 197.109 108.468 197.195 108.908 197.61Z" fill="#80B7C6"/>
<path d="M113.802 208.893C114.242 209.309 114.371 210.055 113.851 210.606C113.436 211.046 112.69 211.174 112.139 210.655V210.655C111.699 210.239 111.57 209.493 112.09 208.943C112.61 208.392 113.252 208.374 113.802 208.893Z" fill="#80B7C6"/>
<path d="M109.692 205.014C110.133 205.43 110.261 206.176 109.742 206.726C109.326 207.166 108.58 207.295 108.029 206.775V206.775C107.589 206.36 107.46 205.614 107.98 205.063C108.61 204.617 109.252 204.598 109.692 205.014Z" fill="#80B7C6"/>
<path d="M105.582 201.133C106.023 201.549 106.151 202.295 105.631 202.846C105.216 203.286 104.47 203.414 103.919 202.895V202.895C103.479 202.479 103.35 201.733 103.87 201.183C104.39 200.632 105.142 200.718 105.582 201.133Z" fill="#80B7C6"/>
<path d="M105.813 209.123C106.253 209.539 106.382 210.285 105.862 210.835C105.342 211.386 104.7 211.404 104.15 210.884V210.884C103.709 210.469 103.581 209.723 104.1 209.172C104.62 208.622 105.372 208.707 105.813 209.123Z" fill="#80B7C6"/>
<path d="M101.703 205.244C102.143 205.659 102.271 206.405 101.752 206.956C101.232 207.506 100.59 207.525 100.04 207.005V207.005C99.5993 206.589 99.4707 205.843 99.9904 205.293C100.51 204.742 101.262 204.828 101.703 205.244Z" fill="#80B7C6"/>
<path d="M97.8226 209.354C98.263 209.769 98.3916 210.515 97.8719 211.066C97.3523 211.616 96.7103 211.635 96.1598 211.115V211.115C95.7194 210.699 95.5909 209.953 96.1105 209.403C96.6301 208.852 97.3823 208.938 97.8226 209.354Z" fill="#80B7C6"/>
<path d="M108.448 181.63C108.888 182.046 109.017 182.792 108.497 183.343C107.977 183.893 107.335 183.912 106.785 183.392V183.392C106.344 182.976 106.216 182.23 106.735 181.68C107.255 181.129 108.007 181.215 108.448 181.63Z" fill="#80B7C6"/>
<path d="M100.329 173.967C100.769 174.382 100.898 175.128 100.378 175.679C99.8584 176.229 99.2164 176.248 98.6659 175.728V175.728C98.2256 175.312 98.097 174.566 98.6166 174.016C99.1362 173.465 99.8884 173.551 100.329 173.967Z" fill="#80B7C6"/>
<path d="M92.3888 166.472C92.8291 166.887 92.9577 167.633 92.4381 168.184C91.9185 168.734 91.2764 168.753 90.726 168.233V168.233C90.2856 167.817 90.157 167.071 90.6767 166.521C91.1963 165.97 91.9484 166.056 92.3888 166.472Z" fill="#80B7C6"/>
<path d="M104.364 177.777C104.805 178.192 104.933 178.938 104.414 179.489C103.894 180.039 103.252 180.058 102.702 179.538V179.538C102.261 179.122 102.133 178.376 102.652 177.826C103.172 177.276 103.924 177.361 104.364 177.777Z" fill="#80B7C6"/>
<path d="M96.4242 170.281C96.8645 170.697 96.9931 171.443 96.4735 171.993C95.9539 172.544 95.3118 172.562 94.7614 172.043V172.043C94.321 171.627 94.1924 170.881 94.7121 170.33C95.2317 169.78 95.9838 169.865 96.4242 170.281Z" fill="#80B7C6"/>
<path d="M108.678 189.621C109.118 190.037 109.247 190.783 108.727 191.333C108.207 191.883 107.565 191.902 107.015 191.382V191.382C106.574 190.967 106.446 190.221 106.965 189.67C107.485 189.12 108.127 189.101 108.678 189.621Z" fill="#80B7C6"/>
<path d="M104.567 185.741C105.008 186.157 105.136 186.903 104.617 187.453C104.097 188.004 103.455 188.022 102.905 187.503V187.503C102.464 187.087 102.336 186.341 102.855 185.79C103.375 185.24 104.127 185.325 104.567 185.741Z" fill="#80B7C6"/>
<path d="M96.4488 178.076C96.8892 178.492 97.0178 179.238 96.4982 179.788C95.9785 180.339 95.3365 180.357 94.786 179.837V179.837C94.3457 179.422 94.2171 178.676 94.7367 178.125C95.2563 177.575 96.0085 177.66 96.4488 178.076Z" fill="#80B7C6"/>
<path d="M88.5089 170.582C88.9493 170.997 89.0778 171.743 88.5582 172.294C88.0386 172.844 87.3965 172.863 86.8461 172.343V172.343C86.4057 171.927 86.2771 171.181 86.7968 170.631C87.3164 170.08 88.0685 170.166 88.5089 170.582Z" fill="#80B7C6"/>
<path d="M100.484 181.886C100.925 182.302 101.053 183.048 100.534 183.598C100.014 184.149 99.3721 184.167 98.8217 183.648V183.648C98.3813 183.232 98.2527 182.486 98.7724 181.936C99.292 181.385 100.044 181.471 100.484 181.886Z" fill="#80B7C6"/>
<path d="M92.5443 174.391C92.9847 174.807 93.1132 175.553 92.5936 176.103C92.074 176.654 91.4319 176.672 90.8815 176.152V176.152C90.4411 175.737 90.3125 174.991 90.8322 174.44C91.3518 173.89 92.1039 173.975 92.5443 174.391Z" fill="#80B7C6"/>
<path d="M116.437 181.4C116.878 181.815 117.006 182.561 116.487 183.112C115.967 183.662 115.325 183.681 114.775 183.161V183.161C114.334 182.745 114.206 181.999 114.725 181.449C115.245 180.899 115.887 180.88 116.437 181.4Z" fill="#80B7C6"/>
<path d="M112.328 177.52C112.768 177.936 112.897 178.682 112.377 179.232C111.857 179.783 111.215 179.801 110.665 179.282V179.282C110.225 178.866 110.096 178.12 110.616 177.569C111.135 177.019 111.887 177.104 112.328 177.52Z" fill="#80B7C6"/>
<path d="M104.209 169.856C104.649 170.272 104.778 171.018 104.258 171.568C103.739 172.119 103.096 172.137 102.546 171.618V171.618C102.106 171.202 101.977 170.456 102.497 169.906C103.016 169.355 103.768 169.441 104.209 169.856Z" fill="#80B7C6"/>
<path d="M96.2689 162.361C96.7093 162.777 96.8379 163.522 96.3182 164.073C95.7986 164.623 95.1566 164.642 94.6061 164.122V164.122C94.1657 163.707 94.0372 162.961 94.5568 162.41C95.0764 161.86 95.8285 161.945 96.2689 162.361Z" fill="#80B7C6"/>
<path d="M108.244 173.666C108.685 174.082 108.813 174.828 108.294 175.378C107.774 175.929 107.132 175.947 106.582 175.428V175.428C106.141 175.012 106.013 174.266 106.532 173.715C107.052 173.165 107.804 173.25 108.244 173.666Z" fill="#80B7C6"/>
<path d="M100.305 166.171C100.745 166.586 100.873 167.332 100.354 167.883C99.8342 168.433 99.1922 168.452 98.6417 167.932V167.932C98.2014 167.517 98.0728 166.771 98.5924 166.22C99.1121 165.67 99.8642 165.755 100.305 166.171Z" fill="#80B7C6"/>
<path fill-rule="evenodd" clip-rule="evenodd" d="M280.568 251.031C280.35 249.437 278.986 248.245 277.462 248.315C277.13 248.33 276.801 248.405 276.485 248.54C274.77 249.264 273.81 250.445 273.78 251.866C273.745 253.461 274.88 255.06 276.683 255.977C278.299 255.165 280.873 253.266 280.568 251.031M292.017 254.806C290.413 258.525 285.469 260.933 282.335 261.724C279.971 264.829 276.794 266.926 274.52 268.147C273.812 268.528 273.058 268.923 272.262 269.286C272.644 270.203 272.982 271.124 273.266 272.035C275.11 277.908 275.072 283.748 274.794 288.685C274.113 300.751 270.989 318.151 259.993 332.623C259.67 334.411 259.577 336.245 259.487 338.018C259.356 340.607 259.223 343.284 258.385 345.952C258.018 347.119 257.593 348.294 257.186 349.431C256.275 351.952 255.334 354.563 254.979 357.206C254.822 358.384 254.756 359.595 254.692 360.766C254.523 363.884 254.36 366.834 252.608 369.213C252.206 374.305 250.783 377.647 248.264 379.42C247.513 379.949 246.409 380.726 245.249 380.778C244.683 380.802 244.177 380.653 243.745 380.332C242.486 379.401 242.146 377.914 241.843 376.604C241.811 376.457 241.776 376.314 241.742 376.173C241.154 376.42 240.368 376.561 239.373 376.606C238.888 376.627 238.438 376.623 238.1 376.616C237.148 376.597 235.161 376.556 234.248 375.049C233.528 373.859 234.059 372.366 235.704 370.954C236.271 370.469 236.873 370.022 237.46 369.589C237.937 369.237 238.395 368.898 238.83 368.544C238.495 366.503 239.636 364.41 240.569 362.701C240.707 362.448 240.841 362.202 240.967 361.962C242.307 359.418 242.377 356.898 241.199 353.794C240.455 351.831 240.054 349.821 239.667 347.876C239.61 347.598 239.556 347.319 239.499 347.04C238.564 346.697 237.669 346.195 236.834 345.54C233.343 342.8 231.005 338.67 230.076 333.595C229.906 332.674 229.769 331.717 229.664 330.73C228.224 333.008 227.718 335.238 228.072 337.624L228.167 338.239C228.482 340.262 228.808 342.355 227.892 344.421C225.728 349.298 222.74 353.853 218.488 358.743C217.358 362.536 215.586 366.991 211.926 368.343C211.475 368.511 211.041 368.605 210.635 368.624C209.673 368.666 208.847 368.28 208.309 367.538C207.726 366.738 207.526 365.575 207.722 364.38C206.801 364.639 205.588 364.884 204.526 364.932C203.216 364.99 202.302 364.757 201.735 364.22C201.361 363.864 201.163 363.391 201.161 362.849C201.154 361.272 202.6 360.13 203.464 359.448C204.426 358.69 205.457 358.033 206.315 357.519C206.491 356.024 207.243 354.525 208.601 352.952L208.668 352.874C209.949 351.391 212.333 348.627 211.075 346.943C210.597 346.3 209.926 345.782 208.968 345.309C208.189 344.974 207.255 344.674 206.27 344.355C205.44 344.088 204.588 343.812 203.764 343.492C203.049 343.242 202.452 342.993 201.933 342.722C197.67 343.946 193.87 344.617 190.328 344.775C189.081 344.83 187.853 344.821 186.664 344.747C186.924 346.294 186.952 347.811 186.155 349.611C185.422 351.267 184.445 352.789 183.5 354.26C182.618 355.632 181.705 357.052 181.029 358.538C179.718 361.426 178.968 364.439 178.8 367.494C178.785 367.753 178.774 368.016 178.76 368.288C178.647 370.628 178.519 373.268 177.427 375.38C177.499 376.373 177.54 377.352 177.58 378.274C177.67 380.409 177.601 382.854 176.417 384.801C175.713 385.955 174.248 387.904 172.341 387.989C172.029 388.004 171.715 387.964 171.41 387.877C169.574 387.343 168.283 385.934 167.645 383.776C166.337 384.52 163.97 385.569 161.958 385.659C159.349 385.775 158.65 384.228 158.466 383.296C158.185 381.876 159.201 380.465 159.87 379.53L159.971 379.387C160.272 378.968 160.614 378.541 160.943 378.126C161.418 377.53 161.904 376.92 162.299 376.3C161.733 375.651 161.434 375.005 161.405 374.37C161.38 373.826 161.683 373.226 162.111 372.437C162.23 372.215 162.354 371.987 162.403 371.861L162.449 371.749C163.026 370.312 163.68 368.683 163.585 367.207C163.502 365.921 163.052 364.8 162.572 363.612C162.28 362.881 161.973 362.125 161.743 361.298C161.41 360.099 161.49 358.922 161.568 357.786C161.644 356.643 161.717 355.563 161.353 354.586C159.746 350.283 156.923 347.012 152.497 344.329C150.976 345.808 149.571 347.526 148.11 349.69C147.284 350.917 146.292 351.95 145.335 352.949C144.623 353.692 143.952 354.393 143.334 355.173C142.053 356.795 141.35 358.148 140.915 359.843C140.392 361.89 139.698 363.8 138.793 365.678C138.719 365.824 138.616 365.94 138.494 366.029L138.095 366.831C136.899 370.691 134.827 375.957 130.661 377.455C130.17 377.632 129.693 377.734 129.249 377.751C128.172 377.801 127.252 377.373 126.656 376.547C126.017 375.657 125.812 374.352 126.068 373.026C125.059 373.32 123.623 373.632 122.284 373.691C120.818 373.756 119.807 373.503 119.192 372.919C118.798 372.545 118.588 372.043 118.586 371.472C118.58 369.762 120.139 368.564 121.172 367.77C122.264 366.931 123.419 366.213 124.536 365.566C124.513 365.507 124.49 365.448 124.468 365.389C124.3 364.951 124.399 364.44 124.726 364.064C125.686 362.959 126.171 360.846 126.523 359.303L126.603 358.954C126.923 357.57 127.229 356.09 127.303 354.635C127.453 351.743 127.082 349.211 126.175 346.897C125.952 346.333 125.714 345.769 125.474 345.205C124.806 343.639 124.116 342.017 123.778 340.294C123.511 338.919 123.431 337.523 123.352 336.174C123.305 335.304 123.252 334.402 123.151 333.533C123.138 333.437 123.147 333.336 123.171 333.235C118.593 331.53 113.902 328.8 108.49 324.695C108.478 324.688 108.47 324.679 108.458 324.67C103.231 324.595 98.5745 322.385 94.6728 320.199C89.98 317.566 84.4523 314.775 78.1935 314.92C77.3346 315.177 76.4399 315.327 75.5349 315.367C70.4905 315.592 65.9101 312.519 64.4421 307.999C62.1033 307.375 60.6991 304.775 60.1927 302.614C59.3538 299.046 61.4064 296.555 63.3903 294.145C63.6032 293.888 63.8137 293.632 64.0187 293.375C64.1104 293.266 64.2332 293.174 64.3704 293.12C64.9676 289.698 67.4922 286.877 70.6683 286.161C71.1475 286.054 71.6236 285.987 72.0789 285.967C72.8293 285.934 73.5589 286.02 74.251 286.225C80.1479 285.144 85.6708 281.944 89.1132 277.623C89.1188 277.069 89.2025 276.478 89.3628 275.856C88.8325 275.592 88.2065 275.139 87.65 274.356C87.449 274.069 87.4498 273.687 87.6547 273.402C87.8054 273.195 88.0399 273.073 88.2871 273.062C88.3772 273.058 88.4713 273.069 88.5606 273.097C88.567 273.097 88.8907 273.193 89.3652 273.271C90.2567 272.251 91.6681 271.489 93.0771 271.265C93.109 271.19 93.1497 271.117 93.1999 271.049C93.9854 270.024 94.7684 269.027 95.5411 268.072C94.9981 267.898 94.4846 267.662 93.9886 267.364C93.613 267.136 93.3427 266.877 93.1266 266.67C92.7653 266.323 92.6314 266.194 92.1777 266.209C91.1817 266.241 90.2702 266.223 89.3891 266.153C86.9259 265.961 83.8304 265.451 81.7308 263.203C80.0993 261.458 79.3672 259.411 78.6599 257.431C78.1935 256.122 77.7517 254.887 77.0651 253.718C76.5715 252.881 75.5189 252.261 74.5022 251.662C74.0685 251.406 73.6195 251.14 73.22 250.86C71.5797 249.714 72.0821 248.199 72.4848 246.983L72.5797 246.693C72.724 246.243 73.1172 245.939 73.5796 245.918C73.6793 245.914 73.7734 245.922 73.8675 245.942C73.9736 245.896 74.0876 245.869 74.2032 245.863C74.3109 245.858 74.4185 245.873 74.5182 245.914C80.6487 248.369 86.9785 248.423 93.6784 248.479C95.1034 248.493 96.5762 248.505 98.0275 248.544C98.671 248.56 99.3328 248.538 99.9747 248.514C101.01 248.479 102.081 248.442 103.164 248.562C103.327 248.581 103.552 248.591 103.808 248.604C105.471 248.687 106.893 248.829 107.495 249.728C108.391 251.075 109.107 252.602 109.59 254.202C111.394 252.88 113.237 251.702 115.085 250.688C124.018 245.791 134.987 242.893 147.685 242.076C148.48 242.024 149.271 241.983 150.062 241.947C160.525 241.482 170.922 242.365 181.845 244.649L182.705 244.83C187.652 245.865 192.766 246.935 197.851 247.495C202.812 248.04 207.679 247.926 211.785 247.744C212.933 247.693 214.081 247.632 215.239 247.569C215.413 247.562 215.576 247.599 215.72 247.671C215.797 247.63 215.884 247.599 215.973 247.582C221.802 246.486 226.592 245.884 231.048 245.685C233.07 245.595 235.047 245.59 236.921 245.674C248.859 246.199 258.859 250.808 265.839 259C266.024 259.217 266.202 259.435 266.382 259.657C266.937 259.679 267.485 259.677 268.016 259.654C269.055 259.607 270.054 259.474 271 259.256C268.887 257.599 267.45 255.379 266.89 252.864C266.316 250.301 266.954 247.573 268.642 245.378C270.408 243.078 273.115 241.631 275.876 241.507C276.983 241.458 278.076 241.616 279.131 241.976C282.187 243.019 284.47 245.207 285.559 248.143C286.429 250.477 286.436 253.026 285.622 255.397C287.845 254.073 289.436 252.047 289.899 249.852C289.852 249.635 289.885 249.406 289.999 249.208C290.154 248.939 290.443 248.762 290.751 248.748C291.081 248.733 291.389 248.902 291.561 249.184C292.656 251.025 292.812 252.968 292.017 254.806" fill="#CBE2E9"/>
<mask id="mask0_1650_3282" style="mask-type:alpha" maskUnits="userSpaceOnUse" x="148" y="289" width="45" height="26">
<path fill-rule="evenodd" clip-rule="evenodd" d="M148.043 289.349H192.596V314.353H148.043V289.349Z" fill="white"/>
</mask>
<g mask="url(#mask0_1650_3282)">
<path fill-rule="evenodd" clip-rule="evenodd" d="M187.785 298.792C187.969 298.877 188.153 298.961 188.338 299.046C188.413 298.863 188.591 298.63 188.533 298.511C188.467 298.369 188.196 298.327 188.013 298.241C187.936 298.425 187.861 298.608 187.785 298.792M192.596 299.155C191.591 300.341 190.678 299.236 189.78 299.742C189.78 299.982 189.714 300.305 189.789 300.587C190.359 302.711 190.973 304.824 191.543 306.948C192.177 309.319 190.561 313.427 188.426 314.178C186.552 314.839 185.273 313.531 184.604 311.927C183.974 310.415 183.731 308.747 183.234 307.176C182.13 303.698 180.573 302.765 177.059 303.229C174.673 303.544 172.274 303.743 169.877 303.964C168.713 304.073 168.111 304.769 167.877 305.827C167.623 306.973 168.426 307.367 169.294 307.695C170.493 308.151 172.417 308.612 171.329 310.208C170.426 311.532 169.057 313.367 166.829 312.756C163.788 311.922 161.386 310.228 160.803 306.902C160.27 303.861 158.954 304.319 157.438 306.014C155.49 308.191 153.167 309.011 150.353 308.49C148.942 308.228 147.934 307.629 148.053 305.867C148.441 300.044 150.866 295.301 155.324 291.598C155.987 291.048 156.958 290.178 157.527 291.272C158.724 293.573 160.242 292.38 161.727 291.973C168.401 290.142 175.07 288.343 182.083 290.008C185.103 290.726 187.655 291.81 188.505 295.302C188.968 297.202 190.647 298.261 192.596 299.155" fill="#80B7C6"/>
</g>
<mask id="mask1_1650_3282" style="mask-type:alpha" maskUnits="userSpaceOnUse" x="182" y="263" width="45" height="26">
<path fill-rule="evenodd" clip-rule="evenodd" d="M182.112 263.797H226.664V288.802H182.112V263.797Z" fill="white"/>
</mask>
<g mask="url(#mask1_1650_3282)">
<path fill-rule="evenodd" clip-rule="evenodd" d="M221.853 273.241C222.037 273.326 222.221 273.41 222.406 273.495C222.481 273.312 222.659 273.079 222.601 272.96C222.535 272.818 222.264 272.776 222.081 272.69C222.004 272.874 221.929 273.057 221.853 273.241M226.664 273.604C225.66 274.79 224.746 273.685 223.848 274.191C223.848 274.43 223.782 274.754 223.857 275.036C224.427 277.16 225.041 279.273 225.611 281.397C226.246 283.768 224.629 287.875 222.495 288.627C220.62 289.288 219.341 287.98 218.672 286.376C218.042 284.864 217.8 283.196 217.302 281.625C216.199 278.147 214.641 277.214 211.127 277.678C208.741 277.993 206.342 278.192 203.945 278.413C202.781 278.522 202.179 279.217 201.945 280.276C201.691 281.422 202.494 281.815 203.362 282.144C204.561 282.6 206.485 283.061 205.397 284.657C204.494 285.981 203.125 287.816 200.897 287.205C197.856 286.37 195.454 284.677 194.871 281.35C194.338 278.31 193.022 278.768 191.506 280.463C189.558 282.639 187.235 283.46 184.421 282.939C183.01 282.677 182.003 282.078 182.121 280.316C182.509 274.493 184.935 269.75 189.393 266.047C190.055 265.497 191.027 264.626 191.595 265.721C192.792 268.022 194.31 266.828 195.795 266.422C202.469 264.591 209.138 262.791 216.151 264.457C219.171 265.175 221.723 266.259 222.574 269.751C223.036 271.651 224.716 272.709 226.664 273.604" fill="#80B7C6"/>
</g>
<mask id="mask2_1650_3282" style="mask-type:alpha" maskUnits="userSpaceOnUse" x="200" y="291" width="46" height="26">
<path fill-rule="evenodd" clip-rule="evenodd" d="M200.848 291.052H245.4V316.057H200.848V291.052Z" fill="white"/>
</mask>
<g mask="url(#mask2_1650_3282)">
<path fill-rule="evenodd" clip-rule="evenodd" d="M240.587 300.495C240.771 300.58 240.956 300.665 241.14 300.75C241.215 300.567 241.393 300.334 241.335 300.214C241.269 300.073 240.998 300.03 240.815 299.944C240.739 300.128 240.664 300.311 240.587 300.495M245.4 300.858C244.396 302.044 243.482 300.939 242.584 301.445C242.584 301.685 242.518 302.008 242.593 302.291C243.163 304.414 243.777 306.528 244.347 308.651C244.982 311.023 243.365 315.13 241.231 315.881C239.356 316.542 238.077 315.235 237.409 313.63C236.778 312.119 236.536 310.45 236.038 308.879C234.935 305.401 233.377 304.469 229.863 304.932C227.477 305.248 225.079 305.446 222.681 305.668C221.517 305.776 220.915 306.472 220.681 307.53C220.427 308.676 221.23 309.07 222.098 309.399C223.297 309.854 225.221 310.315 224.133 311.912C223.23 313.235 221.861 315.07 219.633 314.46C216.592 313.625 214.19 311.932 213.607 308.605C213.074 305.564 211.759 306.023 210.242 307.717C208.295 309.894 205.971 310.714 203.157 310.193C201.746 309.931 200.739 309.332 200.857 307.57C201.246 301.747 203.671 297.004 208.129 293.301C208.791 292.751 209.763 291.881 210.331 292.975C211.528 295.277 213.046 294.083 214.531 293.676C221.205 291.845 227.874 290.046 234.887 291.711C237.908 292.43 240.459 293.513 241.31 297.006C241.772 298.906 243.452 299.964 245.4 300.858" fill="#80B7C6"/>
</g>
<mask id="mask3_1650_3282" style="mask-type:alpha" maskUnits="userSpaceOnUse" x="450" y="193" width="150" height="198">
<path fill-rule="evenodd" clip-rule="evenodd" d="M450 193.498H599.731V390.144H450V193.498Z" fill="white"/>
</mask>
<g mask="url(#mask3_1650_3282)">
<path fill-rule="evenodd" clip-rule="evenodd" d="M450 372.126C451.599 349.514 453.197 326.903 454.796 304.29C455.4 302.205 456.903 298.07 460.657 294.222C464.05 290.744 467.699 289.122 469.715 288.392C481.794 284.152 493.871 279.912 505.949 275.672L504.884 261.363C500.088 261.01 495.293 260.657 490.497 260.304C490.184 257.055 489.981 253.51 489.964 249.705C489.945 245.49 490.156 241.587 490.497 238.045C488.365 236.809 486.234 235.571 484.102 234.335C487.478 230.448 490.852 226.563 494.227 222.676C494.049 220.38 493.871 218.083 493.694 215.787C494.969 212.758 496.688 209.318 499.023 205.717C500.44 203.531 501.887 201.59 503.285 199.888C505.796 198.066 512.229 193.922 521.401 193.528C533.363 193.015 541.646 199.237 543.781 200.947C546.164 204.224 548.91 209.032 550.176 215.257C553.992 234.027 540.973 249.071 538.986 251.294C539.164 255.357 539.341 259.42 539.519 263.483L543.249 276.202C557.102 280.972 570.957 285.742 584.811 290.511C586.453 291.941 588.343 293.856 590.14 296.341C593.167 300.53 594.679 304.609 595.468 307.47C596.889 327.962 598.31 348.454 599.731 368.946C592.094 369.829 584.456 370.713 576.818 371.596C574.763 345.764 573.165 332.869 572.023 332.909C570.703 332.955 569.993 350.268 569.891 384.845C538.453 386.612 507.015 388.378 475.576 390.144C475.399 369.476 475.221 348.807 475.044 328.139C474.156 343.508 473.268 358.877 472.38 374.246C464.92 373.54 457.46 372.832 450 372.126" fill="#CBE2E9"/>
</g>
<path fill-rule="evenodd" clip-rule="evenodd" d="M548.5 359.963C548.856 355.896 542.592 352.026 534.509 351.319C529.456 350.877 524.889 351.776 522.087 353.505C519.178 353.029 515.484 353.317 511.67 354.483C508.746 355.377 506.17 356.659 504.16 358.12C503.572 358.441 503.044 358.877 502.581 359.409C500.306 361.515 499.2 363.84 499.815 365.854C499.94 366.261 500.13 366.639 500.379 366.988C500.423 368.219 500.612 369.505 500.96 370.803C502.614 376.974 507.228 381.099 511.267 380.017C514.916 379.04 516.846 374.147 515.967 368.662L516.002 368.651C519.624 367.543 522.714 365.84 524.854 363.94C527.172 365.008 530.057 365.769 533.221 366.046C541.303 366.753 548.144 364.03 548.5 359.963Z" fill="#F7FCFD"/>
<path opacity="0.6" d="M54.2996 120.124C83.7346 120.124 107.596 108.423 107.596 93.9885C107.596 79.5543 83.7346 67.853 54.2996 67.853C24.8647 67.853 1.00293 79.5543 1.00293 93.9885C1.00293 108.423 24.8647 120.124 54.2996 120.124Z" fill="#7FA2B2" fill-opacity="0.1" stroke="#8B9FA7" stroke-width="1.31153"/>
<path fill-rule="evenodd" clip-rule="evenodd" d="M46.312 69.6821C46.1647 69.6556 45.2077 69.5006 44.4321 70.1479C43.7284 70.7353 43.4589 71.7465 43.7584 72.7002C42.875 72.7714 42.1181 73.3284 41.8194 74.1267C41.4372 75.1514 42.0051 76.0529 42.0672 76.1483C41.9981 76.1864 41.1633 76.6694 41.0874 77.6398C41.029 78.3942 41.4528 79.1311 42.1598 79.4947C41.6378 79.8798 41.5092 80.5377 41.7748 80.9532C42.0383 81.3659 42.5888 81.3821 42.638 81.3834C42.6597 81.5107 42.898 82.7642 44.0742 83.3372C44.9615 83.7692 45.7974 83.5292 45.9918 83.4676C46.466 83.7646 47.0646 83.7769 47.5457 83.4996C48.0273 83.2219 48.3158 82.6981 48.2945 82.14C48.4965 82.1762 49.0855 82.2549 49.7144 81.94C50.4898 81.5515 50.7681 80.8445 50.8282 80.6793C50.8623 80.8331 50.9773 81.2542 51.3644 81.6067C51.7032 81.9156 52.069 82.007 52.2271 82.0371C52.3979 82.6356 52.8976 83.0792 53.4921 83.1624C54.1596 83.2562 54.8252 82.8783 55.1041 82.233C55.1302 82.2742 55.6149 83.0079 56.4649 82.9937C57.1325 82.983 57.7359 82.5162 57.943 81.8328C58.4134 82.7041 59.3212 83.2525 60.3005 83.2554C61.8014 83.2605 62.5709 81.9836 62.6032 81.9278C62.8913 82.0124 63.8853 82.2651 64.9818 81.793C66.3242 81.2158 66.8003 79.9926 66.8825 79.7699C67.0767 79.6452 68.2722 78.8469 68.515 77.2829C68.7121 76.0169 68.1585 75.0543 68 74.7981C68.0291 74.6252 68.1361 73.8712 67.6566 73.1415C67.2667 72.5498 66.7175 72.3187 66.5255 72.2478C66.9029 71.5538 66.7876 70.7203 66.278 70.2267C65.7004 69.6684 64.896 69.8153 64.8208 69.8308C64.8226 69.6644 64.8169 68.6348 63.9788 67.8431C63.171 67.081 62.1937 67.1083 62.0231 67.1162C61.9732 67.005 61.4512 65.8809 60.2599 65.6596C59.594 65.5358 59.0562 65.7559 58.84 65.8596C58.8218 65.7982 58.4925 64.788 57.4414 64.5022C56.3902 64.2163 55.6073 64.9248 55.5612 64.9676C55.4419 64.9029 54.6087 64.4688 53.6436 64.8372C52.6671 65.2098 52.3427 66.1042 52.2996 66.23C51.6319 65.8049 50.7856 65.8066 50.1514 66.232C49.2689 66.8249 49.303 67.8979 49.306 67.9559C49.189 67.9149 48.206 67.5886 47.2915 68.1901C46.5071 68.7056 46.3401 69.5313 46.312 69.6821Z" fill="#80B7C6" stroke="#E1F3F6" stroke-width="0.786916"/>
<path fill-rule="evenodd" clip-rule="evenodd" d="M25.3733 90.5904C25.226 90.5639 24.269 90.4089 23.4934 91.0563C22.7897 91.6436 22.5202 92.6549 22.8197 93.6085C21.9363 93.6797 21.1794 94.2368 20.8807 95.0351C20.4985 96.0597 21.0664 96.9613 21.1285 97.0566C21.0594 97.0947 20.2246 97.5778 20.1487 98.5482C20.0903 99.3025 20.5141 100.039 21.2211 100.403C20.6991 100.788 20.5705 101.446 20.8361 101.862C21.0995 102.274 21.6501 102.29 21.6993 102.292C21.721 102.419 21.9593 103.673 23.1355 104.245C24.0227 104.677 24.8587 104.438 25.053 104.376C25.5273 104.673 26.1258 104.685 26.607 104.408C27.0885 104.13 27.3771 103.606 27.3558 103.048C27.5577 103.085 28.1468 103.163 28.7756 102.848C29.5511 102.46 29.8293 101.753 29.8894 101.588C29.9236 101.741 30.0386 102.163 30.4256 102.515C30.7645 102.824 31.1303 102.915 31.2884 102.945C31.4591 103.544 31.9588 103.988 32.5533 104.071C33.2209 104.165 33.8865 103.787 34.1653 103.141C34.1915 103.183 34.6762 103.916 35.5262 103.902C36.1938 103.891 36.7971 103.425 37.0043 102.741C37.4747 103.612 38.3825 104.161 39.3617 104.164C40.8627 104.169 41.6322 102.892 41.6645 102.836C41.9526 102.921 42.9466 103.173 44.0431 102.701C45.3855 102.124 45.8616 100.901 45.9438 100.678C46.138 100.554 47.3335 99.7552 47.5763 98.1913C47.7734 96.9252 47.2197 95.9626 47.0612 95.7064C47.0904 95.5335 47.1974 94.7795 46.7179 94.0498C46.328 93.4582 45.7788 93.227 45.5867 93.1561C45.9642 92.4621 45.8489 91.6286 45.3392 91.135C44.7617 90.5767 43.9573 90.7236 43.8821 90.7391C43.8839 90.5727 43.8782 89.5431 43.0401 88.7515C42.2323 87.9893 41.255 88.0166 41.0843 88.0245C41.0345 87.9134 40.5125 86.7892 39.3211 86.5679C38.6553 86.4441 38.1174 86.6642 37.9013 86.7679C37.8831 86.7065 37.5538 85.6963 36.5026 85.4105C35.4515 85.1247 34.6686 85.8331 34.6224 85.8759C34.5032 85.8112 33.67 85.3771 32.7049 85.7455C31.7284 86.1182 31.404 87.0125 31.3609 87.1384C30.6932 86.7132 29.8469 86.7149 29.2127 87.1403C28.3301 87.7333 28.3643 88.8062 28.3673 88.8642C28.2502 88.8232 27.2673 88.4969 26.3528 89.0984C25.5684 89.6139 25.4014 90.4396 25.3733 90.5904Z" fill="#80B7C6" stroke="#E1F3F6" stroke-width="0.786916"/>
<path fill-rule="evenodd" clip-rule="evenodd" d="M64.265 94.4221C64.1221 94.3779 63.191 94.1076 62.3422 94.6557C61.5721 95.153 61.1812 96.124 61.3621 97.1069C60.4766 97.0701 59.6574 97.5309 59.2635 98.2869C58.759 99.2574 59.2127 100.221 59.2627 100.324C59.1895 100.353 58.3019 100.731 58.1082 101.685C57.9582 102.426 58.2888 103.209 58.9462 103.656C58.3811 103.975 58.1732 104.612 58.3861 105.057C58.5972 105.499 59.1417 105.582 59.1903 105.589C59.1964 105.718 59.2799 106.991 60.3774 107.703C61.2053 108.24 62.0643 108.103 62.2647 108.066C62.6992 108.418 63.2918 108.504 63.8032 108.287C64.315 108.07 64.6653 107.585 64.7124 107.028C64.9084 107.089 65.4834 107.239 66.146 107.003C66.9631 106.711 67.3255 106.044 67.4054 105.887C67.4205 106.044 67.4832 106.476 67.8244 106.873C68.123 107.221 68.4749 107.356 68.6281 107.405C68.7246 108.02 69.1665 108.521 69.7464 108.676C70.3975 108.85 71.1043 108.556 71.4598 107.949C71.4807 107.994 71.8722 108.781 72.7176 108.87C73.3816 108.941 74.0374 108.551 74.3264 107.898C74.6869 108.82 75.5211 109.475 76.4927 109.597C77.9818 109.784 78.9014 108.611 78.9403 108.559C79.2159 108.678 80.1716 109.05 81.3176 108.715C82.7204 108.305 83.3423 107.149 83.4511 106.938C83.659 106.838 84.943 106.191 85.3749 104.668C85.725 103.436 85.293 102.413 85.1669 102.139C85.217 101.971 85.4152 101.236 85.0283 100.453C84.7135 99.8186 84.1966 99.5224 84.0147 99.4286C84.474 98.7857 84.4612 97.9444 84.0157 97.3924C83.5106 96.768 82.6942 96.8159 82.6177 96.8222C82.6398 96.6572 82.7598 95.6346 82.0246 94.7469C81.3158 93.8921 80.3424 93.8003 80.1721 93.7873C80.1362 93.671 79.7553 92.4916 78.5998 92.127C77.954 91.9231 77.3933 92.0761 77.1661 92.1528C77.1555 92.0896 76.952 91.0469 75.9436 90.6352C74.9351 90.2236 74.0716 90.8315 74.0206 90.8684C73.9101 90.7897 73.1361 90.2573 72.1332 90.5056C71.1185 90.7566 70.6874 91.6048 70.6293 91.7245C70.0184 91.2213 69.1782 91.1199 68.4968 91.465C67.5485 91.9461 67.4515 93.0152 67.4474 93.0732C67.3362 93.0182 66.4004 92.5747 65.4193 93.0604C64.5778 93.4766 64.3113 94.2758 64.265 94.4221Z" fill="#80B7C6" stroke="#E1F3F6" stroke-width="0.786916"/>
<path opacity="0.6" fill-rule="evenodd" clip-rule="evenodd" d="M54.3706 55.498C70.2952 55.498 86.8813 59.3101 96.5757 66.174C100.435 68.9066 103.981 71.7847 105.602 75.2611C107.336 78.9797 107.508 83.7391 107.507 87.9194C107.507 88.7039 107.529 89.5074 107.551 90.3202C107.652 94.0763 107.792 98.0511 105.641 101.201C97.6435 112.909 76.2572 120.124 54.3706 120.124C41.7611 120.124 29.8058 117.851 20.3465 113.748C11.3355 109.839 4.58578 104.273 1.76405 97.4071C0.902048 95.3095 0.97979 91.727 1.02456 89.0154C1.03396 88.4461 1.04272 87.9139 1.04272 87.4394C1.04272 84.3561 1.19243 79.9011 2.62605 76.4994C3.61485 74.1532 5.98172 71.0124 7.76859 69.3526C13.8942 63.6625 20.9852 61.1029 28.0675 58.937C36.4506 56.3732 43.1923 55.498 54.3706 55.498Z" fill="#7FA2B2" fill-opacity="0.08" stroke="#8B9FA7" stroke-width="1.31153"/>
<path opacity="0.6" d="M54.2996 106.819C83.2089 106.819 106.645 95.3301 106.645 81.1583C106.645 66.9866 83.2089 55.498 54.2996 55.498C25.3902 55.498 1.95459 66.9866 1.95459 81.1583C1.95459 95.3301 25.3902 106.819 54.2996 106.819Z" stroke="#8B9FA7" stroke-width="1.31153"/>
</svg>
