<svg width="600" height="500" viewBox="0 0 600 500" fill="none" xmlns="http://www.w3.org/2000/svg">
<circle cx="435.5" cy="250.5" r="138.5" fill="white"/>
<path fill-rule="evenodd" clip-rule="evenodd" d="M288.921 166.702C271.82 153.413 250.334 145.5 227 145.5C171.219 145.5 126 190.719 126 246.5C126 302.281 171.219 347.5 227 347.5C249.118 347.5 269.575 340.391 286.211 328.332C273.941 304.917 267 278.269 267 250C267 219.712 274.967 191.286 288.921 166.702Z" fill="white"/>
<path fill-rule="evenodd" clip-rule="evenodd" d="M110.203 189.623C102.308 185.704 93.4115 183.5 84 183.5C51.4152 183.5 25 209.915 25 242.5C25 275.085 51.4152 301.5 84 301.5C92.2169 301.5 100.042 299.82 107.149 296.785C99.3805 281.542 95 264.282 95 246C95 225.444 100.538 206.182 110.203 189.623Z" fill="white"/>
<path d="M51.6229 194.048H75.6709L125.063 269.792H125.351V194.048H143.495V296H120.455L70.0549 217.808H69.7669V296H51.6229V194.048ZM209.432 194.048H276.968V210.464H227.576V235.52H274.376V251.936H227.576V279.584H279.56V296H209.432V194.048ZM365.576 242.72L331.592 194.048H354.488L378.536 231.776L402.296 194.048H424.328L390.92 242.72L427.928 296H404.888L377.96 252.944L351.176 296H329.288L365.576 242.72ZM503.322 210.464H472.074V194.048H552.714V210.464H521.466V296H503.322V210.464Z" fill="#23A2C5"/>
</svg>
