<svg width="600" height="500" viewBox="0 0 600 500" fill="none" xmlns="http://www.w3.org/2000/svg">
<circle cx="327.5" cy="265.002" r="217.5" fill="white"/>
<path fill-rule="evenodd" clip-rule="evenodd" d="M446.781 485.794C453.423 487.694 460.067 489.593 466.708 491.493C468.606 490.543 470.503 489.593 472.401 488.644V433.076C474.774 414.555 477.148 396.031 479.521 377.509C477.621 370.385 475.723 363.26 473.826 356.136C476.052 346.082 478.027 335.134 479.521 323.365C481.83 305.133 482.541 288.366 482.365 273.497H490.906C490.481 287.098 490.762 302.415 492.328 319.09C493.648 333.12 495.674 345.994 498.024 357.562C496.599 363.734 495.174 369.911 493.753 376.083C495.03 389.185 496.449 402.486 498.024 415.978C499.371 427.544 500.798 438.941 502.294 450.175V492.919H512.258C516.05 490.07 519.848 487.218 523.643 484.371V468.696C521.746 462.048 519.848 455.4 517.948 448.749C522.63 436.025 527.735 418.038 529.336 396.031C530.801 375.917 528.876 358.811 526.49 346.162C529.205 338.783 531.661 330.704 533.607 321.939C542.181 283.323 536.891 249.325 530.76 226.477C527.997 217.111 525.028 202.672 526.49 185.159C527.396 174.297 529.764 165.137 532.185 158.087C535.031 167.587 537.875 177.085 540.724 186.585C540.248 189.908 539.775 193.233 539.3 196.559C544.519 207.956 549.736 219.355 554.958 230.752C554.483 232.652 554.01 234.551 553.534 236.451C554.483 248.324 555.431 260.2 556.38 272.073L563.497 282.047C566.344 281.571 569.19 281.097 572.037 280.621C572.985 277.772 573.934 274.923 574.886 272.073C574.41 265.422 573.934 258.774 573.461 252.126C575.359 255.449 577.256 258.774 579.154 262.1H582C581.995 259.818 581.703 256.829 580.578 253.549C577.772 245.381 571.673 240.916 569.19 239.303C568.493 229.977 568.036 222.55 567.768 217.929C566.587 197.519 566.606 189.036 562.073 178.034C560.504 174.227 558.868 171.282 557.805 169.487C555.431 151.912 553.061 134.341 550.688 116.766C547.841 112.97 544.995 109.168 542.146 105.369C529.336 99.6705 516.526 93.9693 503.716 88.2708C504.189 80.6728 504.665 73.0721 505.138 65.4741C507.461 63.8555 510.761 61.132 513.68 56.9263C517.587 51.2947 518.883 45.7861 519.372 42.6774C519.867 39.3679 520.364 32.9926 517.948 25.5791C515.281 17.3899 510.459 12.2291 507.987 9.90689C503.89 8.40601 497.428 6.659 489.482 7.05763C474.766 7.79603 464.656 15.4101 461.016 18.4547L458.169 38.4021L448.206 51.2251C448.679 52.1749 449.155 53.1246 449.628 54.0744H455.323V69.7493L458.169 72.5986H468.133V89.6968C453.898 94.9191 439.664 100.144 425.432 105.369C423.134 114.447 421.055 124.961 419.737 136.716C418.508 147.699 418.168 157.761 418.315 166.637C417.158 168.984 415.592 172.389 414.044 176.611C411.209 184.343 409.688 191.393 408.352 200.831C407.098 209.679 405.714 222.716 405.505 239.303C402.948 240.919 399.911 243.217 396.964 246.425C390.675 253.276 388.109 260.66 387 264.949C387.949 265.422 388.898 265.899 389.846 266.372C393.644 262.1 397.439 257.824 401.234 253.549C400.286 262.573 399.337 271.597 398.388 280.621L405.505 287.746C409.3 283.47 413.096 279.195 416.891 274.923C417.839 265.899 418.788 256.875 419.737 247.851C419.264 245.951 418.788 244.052 418.315 242.152C422.172 235.137 426.384 226.063 429.701 215.08C433.343 203.025 434.832 192.233 435.396 183.733C437.293 178.984 439.191 174.235 441.089 169.487V156.664H442.51C442.986 161.886 443.459 167.111 443.935 172.336C444.884 174.712 445.832 177.085 446.781 179.46C446.308 191.807 445.832 204.157 445.359 216.503C443.935 220.305 442.51 224.104 441.089 227.903C440.613 236.927 440.14 245.951 439.664 254.975C437.954 263.665 436.542 274.802 436.818 287.746C437.093 300.756 438.993 311.877 441.089 320.516C442.986 328.59 444.884 336.665 446.781 344.739C445.359 349.014 443.935 353.287 442.51 357.562V394.607C446.781 409.804 451.052 425.002 455.323 440.201V454.447C452.474 462.998 449.628 471.548 446.781 480.096V485.794Z" fill="#D6EDF3"/>
<path d="M356.579 222.78C357.172 222.188 358.208 222.04 358.949 222.78C359.689 223.521 359.689 224.409 358.949 225.15V225.15C358.356 225.742 357.32 225.89 356.579 225.15C355.839 224.409 355.987 223.372 356.579 222.78Z" fill="#80B7C6"/>
<path d="M351.051 228.309C351.643 227.716 352.68 227.568 353.42 228.309C354.161 229.049 354.161 229.938 353.42 230.678V230.678C352.828 231.27 351.791 231.419 351.051 230.678C350.31 229.938 350.459 228.901 351.051 228.309Z" fill="#80B7C6"/>
<path d="M345.523 233.837C346.115 233.245 347.152 233.097 347.892 233.837C348.632 234.578 348.632 235.466 347.892 236.207V236.207C347.3 236.799 346.263 236.947 345.523 236.207C344.782 235.466 344.93 234.43 345.523 233.837Z" fill="#80B7C6"/>
<path d="M339.995 239.366C340.587 238.774 341.624 238.626 342.364 239.366C343.105 240.107 343.105 240.995 342.364 241.735V241.735C341.772 242.328 340.735 242.476 339.995 241.735C339.254 240.995 339.254 240.107 339.995 239.366Z" fill="#80B7C6"/>
<path d="M334.466 244.895C335.058 244.302 336.095 244.154 336.835 244.895C337.576 245.635 337.576 246.524 336.835 247.264V247.264C336.243 247.856 335.206 248.004 334.466 247.264C333.726 246.524 333.874 245.487 334.466 244.895Z" fill="#80B7C6"/>
<path d="M328.937 250.423C329.529 249.831 330.566 249.683 331.306 250.423C332.047 251.164 332.047 252.052 331.306 252.793V252.793C330.714 253.385 329.677 253.533 328.937 252.793C328.196 252.052 328.345 251.016 328.937 250.423Z" fill="#80B7C6"/>
<path d="M323.409 255.952C324.001 255.359 325.038 255.211 325.778 255.952C326.518 256.692 326.518 257.581 325.778 258.321V258.321C325.186 258.914 324.149 259.062 323.409 258.321C322.668 257.581 322.668 256.692 323.409 255.952Z" fill="#80B7C6"/>
<path d="M345.523 222.78C346.115 222.187 347.152 222.039 347.892 222.78C348.632 223.52 348.632 224.409 347.892 225.149V225.149C347.3 225.741 346.263 225.889 345.523 225.149C344.782 224.409 344.93 223.372 345.523 222.78Z" fill="#80B7C6"/>
<path d="M339.994 228.308C340.586 227.716 341.623 227.568 342.363 228.308C343.103 229.049 343.103 229.937 342.363 230.678V230.678C341.771 231.27 340.734 231.418 339.994 230.678C339.253 229.937 339.401 228.901 339.994 228.308Z" fill="#80B7C6"/>
<path d="M334.465 233.837C335.057 233.245 336.094 233.097 336.834 233.837C337.575 234.577 337.575 235.466 336.834 236.206V236.206C336.242 236.799 335.205 236.947 334.465 236.206C333.725 235.466 333.725 234.577 334.465 233.837Z" fill="#80B7C6"/>
<path d="M328.937 239.365C329.529 238.773 330.566 238.625 331.306 239.365C332.047 240.106 332.047 240.994 331.306 241.735V241.735C330.714 242.327 329.677 242.475 328.937 241.735C328.196 240.994 328.345 239.958 328.937 239.365Z" fill="#80B7C6"/>
<path d="M323.408 244.894C324 244.302 325.037 244.154 325.777 244.894C326.517 245.635 326.517 246.523 325.777 247.264V247.264C325.185 247.856 324.148 248.004 323.408 247.264C322.667 246.523 322.815 245.487 323.408 244.894Z" fill="#80B7C6"/>
<path d="M334.466 222.78C335.058 222.188 336.095 222.04 336.835 222.78C337.576 223.521 337.576 224.409 336.835 225.15V225.15C336.243 225.742 335.206 225.89 334.466 225.15C333.874 224.557 333.874 223.373 334.466 222.78Z" fill="#80B7C6"/>
<path d="M328.937 228.309C329.529 227.716 330.566 227.568 331.306 228.309C332.047 229.049 332.047 229.938 331.306 230.678V230.678C330.714 231.27 329.677 231.419 328.937 230.678C328.345 230.086 328.196 229.049 328.937 228.309Z" fill="#80B7C6"/>
<path d="M323.409 233.837C324.001 233.245 325.038 233.097 325.778 233.837C326.518 234.578 326.518 235.466 325.778 236.207V236.207C325.186 236.799 324.149 236.947 323.409 236.207C322.964 235.466 322.816 234.43 323.409 233.837Z" fill="#80B7C6"/>
<path d="M317.879 239.366C318.472 238.774 319.508 238.626 320.249 239.366C320.989 240.107 320.989 240.995 320.249 241.735V241.735C319.656 242.328 318.62 242.476 317.879 241.735C317.287 241.143 317.287 239.958 317.879 239.366Z" fill="#80B7C6"/>
<path d="M323.958 223.33C324.55 222.737 325.587 222.589 326.328 223.33C327.068 224.07 327.068 224.959 326.328 225.699V225.699C325.735 226.291 324.699 226.44 323.958 225.699C323.218 224.959 323.218 224.07 323.958 223.33Z" fill="#80B7C6"/>
<path d="M318.43 228.858C319.022 228.266 320.059 228.118 320.799 228.858C321.539 229.598 321.539 230.487 320.799 231.227V231.227C320.207 231.82 319.17 231.968 318.43 231.227C317.689 230.487 317.837 229.45 318.43 228.858Z" fill="#80B7C6"/>
<path d="M312.901 234.387C313.493 233.794 314.529 233.646 315.27 234.387C316.01 235.127 316.01 236.016 315.27 236.756V236.756C314.678 237.349 313.641 237.497 312.901 236.756C312.16 236.016 312.308 234.979 312.901 234.387Z" fill="#80B7C6"/>
<path d="M312.901 223.33C313.493 222.737 314.529 222.589 315.27 223.33C316.01 224.07 316.01 224.959 315.27 225.699V225.699C314.678 226.291 313.641 226.44 312.901 225.699C312.16 224.959 312.308 223.922 312.901 223.33Z" fill="#80B7C6"/>
<path d="M307.372 228.858C307.965 228.266 309.001 228.118 309.742 228.858C310.482 229.599 310.482 230.487 309.742 231.228V231.228C309.149 231.82 308.113 231.968 307.372 231.228C306.632 230.487 306.78 229.451 307.372 228.858Z" fill="#80B7C6"/>
<path d="M301.843 223.33C302.435 222.737 303.472 222.589 304.213 223.33C304.953 224.07 304.953 224.959 304.213 225.699V225.699C303.62 226.291 302.584 226.44 301.843 225.699C301.103 224.959 301.251 223.922 301.843 223.33Z" fill="#80B7C6"/>
<path d="M356.579 233.837C357.172 233.245 358.208 233.097 358.949 233.837C359.689 234.578 359.689 235.466 358.949 236.207V236.207C358.356 236.799 357.32 236.947 356.579 236.207C355.839 235.466 355.987 234.43 356.579 233.837Z" fill="#80B7C6"/>
<path d="M351.051 239.366C351.643 238.774 352.68 238.626 353.421 239.366C354.161 240.107 354.161 240.995 353.421 241.735V241.735C352.828 242.328 351.792 242.476 351.051 241.735C350.311 240.995 350.459 239.958 351.051 239.366Z" fill="#80B7C6"/>
<path d="M345.523 244.895C346.115 244.302 347.152 244.154 347.892 244.895C348.632 245.635 348.632 246.524 347.892 247.264V247.264C347.3 247.856 346.263 248.004 345.523 247.264C344.782 246.524 344.782 245.635 345.523 244.895Z" fill="#80B7C6"/>
<path d="M339.994 250.423C340.587 249.831 341.623 249.683 342.364 250.423C343.104 251.164 343.104 252.052 342.364 252.793V252.793C341.771 253.385 340.735 253.533 339.994 252.793C339.254 252.052 339.402 251.016 339.994 250.423Z" fill="#80B7C6"/>
<path d="M334.465 255.952C335.057 255.359 336.094 255.211 336.834 255.952C337.575 256.692 337.575 257.581 336.834 258.321V258.321C336.242 258.914 335.205 259.062 334.465 258.321C333.725 257.581 333.873 256.544 334.465 255.952Z" fill="#80B7C6"/>
<path d="M356.579 244.894C357.172 244.302 358.208 244.154 358.949 244.894C359.689 245.635 359.689 246.523 358.949 247.264V247.264C358.356 247.856 357.32 248.004 356.579 247.264C355.839 246.523 355.987 245.487 356.579 244.894Z" fill="#80B7C6"/>
<path d="M351.051 250.423C351.643 249.83 352.68 249.682 353.42 250.423C354.161 251.163 354.161 252.052 353.42 252.792V252.792C352.828 253.384 351.791 253.533 351.051 252.792C350.31 252.052 350.31 251.163 351.051 250.423Z" fill="#80B7C6"/>
<path d="M345.523 255.951C346.115 255.359 347.152 255.211 347.892 255.951C348.632 256.691 348.632 257.58 347.892 258.32V258.32C347.3 258.913 346.263 259.061 345.523 258.32C344.782 257.58 344.93 256.543 345.523 255.951Z" fill="#80B7C6"/>
<path d="M339.994 261.48C340.586 260.888 341.623 260.74 342.363 261.48C343.103 262.221 343.103 263.109 342.363 263.849V263.849C341.771 264.442 340.734 264.59 339.994 263.849C339.253 263.109 339.401 262.072 339.994 261.48Z" fill="#80B7C6"/>
<path d="M355.79 255.162C356.382 254.57 357.419 254.422 358.16 255.162C358.752 255.754 358.9 256.791 358.16 257.531V257.531C357.567 258.124 356.531 258.272 355.79 257.531C355.05 256.791 355.05 255.902 355.79 255.162Z" fill="#80B7C6"/>
<path d="M350.262 260.691C350.854 260.098 351.891 259.95 352.631 260.691C353.224 261.283 353.372 262.32 352.631 263.06V263.06C352.039 263.652 351.003 263.8 350.262 263.06C349.67 262.171 349.67 261.283 350.262 260.691Z" fill="#80B7C6"/>
<path d="M344.733 266.219C345.325 265.627 346.362 265.479 347.102 266.219C347.695 266.811 347.843 267.848 347.102 268.589V268.589C346.51 269.181 345.473 269.329 344.733 268.589C343.992 267.848 344.14 266.811 344.733 266.219Z" fill="#80B7C6"/>
<path d="M355.789 266.219C356.382 265.627 357.418 265.478 358.159 266.219C358.899 266.959 358.899 267.848 358.159 268.588V268.588C357.566 269.181 356.53 269.329 355.789 268.588C355.049 267.848 355.197 266.811 355.789 266.219Z" fill="#80B7C6"/>
<path d="M350.261 271.747C350.854 271.155 351.89 271.007 352.631 271.747C353.371 272.488 353.371 273.376 352.631 274.117V274.117C352.038 274.709 351.002 274.857 350.261 274.117C349.521 273.376 349.669 272.34 350.261 271.747Z" fill="#80B7C6"/>
<path d="M355.79 277.276C356.383 276.684 357.419 276.536 358.16 277.276C358.9 278.017 358.9 278.905 358.16 279.646V279.646C357.567 280.238 356.531 280.386 355.79 279.646C355.05 278.905 355.198 277.869 355.79 277.276Z" fill="#80B7C6"/>
<path d="M317.879 261.48C318.472 260.888 319.508 260.74 320.249 261.48C320.989 262.221 320.989 263.109 320.249 263.849V263.849C319.656 264.442 318.62 264.59 317.879 263.849C317.139 263.109 317.287 262.072 317.879 261.48Z" fill="#80B7C6"/>
<path d="M306.959 272.401C307.551 271.809 308.588 271.661 309.328 272.401C310.068 273.142 310.068 274.03 309.328 274.771V274.771C308.736 275.363 307.699 275.511 306.959 274.771C306.218 274.03 306.366 272.994 306.959 272.401Z" fill="#80B7C6"/>
<path d="M296.279 283.082C296.871 282.489 297.908 282.341 298.648 283.082C299.389 283.822 299.389 284.711 298.648 285.451V285.451C298.056 286.043 297.019 286.191 296.279 285.451C295.538 284.711 295.686 283.674 296.279 283.082Z" fill="#80B7C6"/>
<path d="M312.388 266.973C312.98 266.38 314.017 266.232 314.757 266.973C315.498 267.713 315.498 268.602 314.757 269.342V269.342C314.165 269.935 313.128 270.083 312.388 269.342C311.647 268.602 311.795 267.565 312.388 266.973Z" fill="#80B7C6"/>
<path d="M301.707 277.653C302.3 277.061 303.336 276.913 304.077 277.653C304.817 278.394 304.817 279.282 304.077 280.023V280.023C303.484 280.615 302.448 280.763 301.707 280.023C300.967 279.282 301.115 278.246 301.707 277.653Z" fill="#80B7C6"/>
<path d="M328.937 261.48C329.529 260.888 330.566 260.74 331.306 261.48C332.047 262.221 332.047 263.109 331.306 263.85V263.85C330.714 264.442 329.677 264.59 328.937 263.85C328.196 263.109 328.196 262.221 328.937 261.48Z" fill="#80B7C6"/>
<path d="M323.409 267.009C324.001 266.417 325.038 266.268 325.778 267.009C326.519 267.749 326.519 268.638 325.778 269.378V269.378C325.186 269.971 324.149 270.119 323.409 269.378C322.668 268.638 322.816 267.601 323.409 267.009Z" fill="#80B7C6"/>
<path d="M312.486 277.93C313.079 277.338 314.115 277.19 314.856 277.93C315.596 278.67 315.596 279.559 314.856 280.299V280.299C314.264 280.892 313.227 281.04 312.486 280.299C311.746 279.559 311.894 278.522 312.486 277.93Z" fill="#80B7C6"/>
<path d="M301.807 288.61C302.4 288.018 303.436 287.87 304.177 288.61C304.917 289.351 304.917 290.239 304.177 290.98V290.98C303.584 291.572 302.548 291.72 301.807 290.98C301.067 290.239 301.215 289.203 301.807 288.61Z" fill="#80B7C6"/>
<path d="M317.916 272.501C318.508 271.909 319.545 271.761 320.285 272.501C321.025 273.242 321.025 274.13 320.285 274.871V274.871C319.693 275.463 318.656 275.611 317.916 274.871C317.175 274.13 317.323 273.094 317.916 272.501Z" fill="#80B7C6"/>
<path d="M307.235 283.182C307.828 282.59 308.864 282.442 309.605 283.182C310.345 283.922 310.345 284.811 309.605 285.551V285.551C309.013 286.144 307.976 286.292 307.235 285.551C306.495 284.811 306.643 283.774 307.235 283.182Z" fill="#80B7C6"/>
<path d="M317.878 250.423C318.47 249.831 319.507 249.683 320.247 250.423C320.988 251.163 320.988 252.052 320.247 252.792V252.792C319.655 253.385 318.618 253.533 317.878 252.792C317.138 252.052 317.138 251.163 317.878 250.423Z" fill="#80B7C6"/>
<path d="M312.35 255.951C312.943 255.359 313.979 255.211 314.72 255.951C315.46 256.691 315.46 257.58 314.72 258.32V258.32C314.127 258.913 313.091 259.061 312.35 258.32C311.61 257.58 311.758 256.543 312.35 255.951Z" fill="#80B7C6"/>
<path d="M301.43 266.872C302.022 266.28 303.059 266.132 303.799 266.872C304.54 267.613 304.54 268.501 303.799 269.242V269.242C303.207 269.834 302.17 269.982 301.43 269.242C300.689 268.501 300.837 267.465 301.43 266.872Z" fill="#80B7C6"/>
<path d="M290.749 277.553C291.341 276.96 292.378 276.812 293.119 277.553C293.859 278.293 293.859 279.182 293.119 279.922V279.922C292.526 280.514 291.49 280.662 290.749 279.922C290.009 279.182 290.157 278.145 290.749 277.553Z" fill="#80B7C6"/>
<path d="M306.858 261.444C307.451 260.851 308.487 260.703 309.228 261.444C309.968 262.184 309.968 263.073 309.228 263.813V263.813C308.635 264.405 307.599 264.554 306.858 263.813C306.118 263.073 306.266 262.036 306.858 261.444Z" fill="#80B7C6"/>
<path d="M296.178 272.124C296.77 271.532 297.807 271.384 298.548 272.124C299.288 272.865 299.288 273.753 298.548 274.494V274.494C297.955 275.086 296.919 275.234 296.178 274.494C295.438 273.753 295.586 272.716 296.178 272.124Z" fill="#80B7C6"/>
<path fill-rule="evenodd" clip-rule="evenodd" d="M512.033 177.756C512.421 173.33 505.604 169.119 496.808 168.349C491.309 167.868 486.338 168.846 483.29 170.729C480.124 170.211 476.104 170.524 471.953 171.793C468.772 172.766 465.968 174.161 463.78 175.75C463.141 176.1 462.566 176.575 462.062 177.154C459.587 179.446 458.382 181.976 459.052 184.167C459.188 184.61 459.394 185.022 459.666 185.402C459.714 186.741 459.919 188.14 460.298 189.554C462.098 196.269 467.119 200.758 471.515 199.581C475.486 198.517 477.587 193.192 476.629 187.223L476.667 187.211C480.609 186.006 483.972 184.152 486.3 182.084C488.824 183.247 491.963 184.075 495.406 184.376C504.202 185.146 511.646 182.182 512.033 177.756Z" fill="#23A2C5"/>
<path fill-rule="evenodd" clip-rule="evenodd" d="M480.078 189.443C480.153 191.952 479.764 194.366 478.909 196.461C477.749 199.304 475.588 201.831 472.35 202.699C468.759 203.661 465.318 202.202 462.781 199.934C460.219 197.644 458.218 194.266 457.18 190.389C456.819 189.044 456.591 187.7 456.489 186.386C456.277 185.983 456.101 185.558 455.965 185.111C454.753 181.148 457.049 177.443 459.747 174.899C460.402 174.171 461.166 173.532 462.038 173.027C464.519 171.254 467.595 169.75 471.009 168.706C475.078 167.462 479.148 167.02 482.651 167.388C486.436 165.452 491.681 164.66 497.089 165.134C501.881 165.553 506.293 166.917 509.561 168.935C512.65 170.844 515.606 173.961 515.249 178.038C514.893 182.114 511.441 184.671 508.067 186.014C504.498 187.435 499.916 188.012 495.124 187.592C492.141 187.331 489.32 186.706 486.836 185.794C484.909 187.209 482.613 188.455 480.078 189.443ZM486.3 182.084C483.972 184.152 480.609 186.006 476.667 187.212L476.629 187.223C477.586 193.193 475.485 198.517 471.515 199.581C467.119 200.759 462.097 196.269 460.298 189.554C459.919 188.141 459.714 186.741 459.666 185.402C459.394 185.022 459.187 184.611 459.052 184.167C458.382 181.976 459.587 179.446 462.062 177.154C462.566 176.575 463.141 176.1 463.78 175.75C465.968 174.161 468.772 172.766 471.953 171.794C476.104 170.525 480.123 170.211 483.29 170.729C486.338 168.847 491.309 167.868 496.808 168.349C505.604 169.119 512.421 173.331 512.033 177.756C511.646 182.182 504.202 185.146 495.406 184.376C491.963 184.075 488.823 183.247 486.3 182.084Z" fill="#23A2C5" fill-opacity="0.24"/>
<path d="M264.122 322.386C264.122 322.386 269.96 337.109 266.962 352.939C264.595 365.604 259.862 376.685 255.917 378.427C253.076 379.851 252.287 382.859 253.708 384.284C255.128 385.709 255.128 388.242 253.708 391.724C252.287 395.365 254.497 409.613 251.498 413.887C248.343 418.162 242.031 431.776 242.031 431.776L232.721 430.035C232.721 430.035 241.557 413.887 242.346 410.721C243.135 407.555 240.295 394.099 240.295 394.099C240.295 394.099 233.825 408.347 232.721 413.254C231.616 418.32 227.04 437 227.04 437H211.892L218.046 421.961C218.046 421.961 223.411 406.447 221.991 404.231C220.571 402.014 207 386.817 207.316 381.118C207.316 381.118 183.016 397.107 156.664 392.358C130.312 387.767 125.736 383.493 125.736 383.493C125.736 383.493 123.212 395.207 121.791 398.848C120.371 402.489 126.841 428.768 124.316 432.093C121.791 435.575 115.322 434.15 112.324 433.359C109.326 432.567 110.272 429.718 112.324 426.868C114.375 424.019 109.168 409.771 108.063 411.829C106.643 414.679 106.959 422.119 105.539 424.652C104.118 427.185 99.3846 432.567 93.3884 432.726C90.2326 432.726 87.3922 432.409 87.7078 430.984C88.0234 429.56 95.9131 423.861 97.9645 418.795C100.174 413.729 104.75 394.416 102.225 392.358C99.7002 390.141 96.8599 386.659 93.704 391.25C90.5481 395.84 75.8733 412.621 34.2155 401.539C34.2155 401.539 34.5311 398.848 37.5292 397.265C40.5273 395.682 39.1072 394.891 38.1604 395.365C37.2136 395.84 32.6376 399.323 30.2707 399.007C27.746 398.69 20.9608 388.558 20.9608 386.5C20.9608 384.442 25.2213 382.068 29.7973 379.06C34.5311 376.052 42.7364 367.979 42.5786 366.237C42.4209 364.496 42.1053 362.754 38.0026 362.121C33.9 361.646 25.6946 363.071 23.3277 358.48C20.803 353.731 18.4361 349.615 17.3315 347.874C17.3315 347.874 32.6376 346.607 38.7916 347.715C38.7916 347.715 37.8448 348.032 41.4741 342.491C45.1034 337.109 62.3029 306.872 93.8618 297.216C113.271 291.2 158.084 286.293 180.807 287.084C202.898 287.876 214.259 289.617 230.512 295.316C240.768 298.957 260.808 315.263 263.333 315.579C265.858 315.896 269.329 309.247 274.221 308.139C278.955 307.031 283.215 305.606 285.109 312.413C286.844 319.062 287.002 323.178 283.373 333.151C279.744 343.124 279.744 343.124 279.744 343.124C279.744 343.124 271.854 336.317 272.801 332.993C273.747 329.668 276.903 328.244 276.272 324.128C275.799 319.853 277.219 314.154 273.747 316.212C270.118 318.745 267.909 324.919 264.122 322.386Z" fill="#23A2C5"/>
<mask id="path-60-outside-1_1665_5495" maskUnits="userSpaceOnUse" x="137.67" y="316.154" width="80" height="51" fill="black">
<rect fill="white" x="137.67" y="316.154" width="80" height="51"/>
<path fill-rule="evenodd" clip-rule="evenodd" d="M210.751 333.78C211.221 328.401 202.735 323.266 191.797 322.309C185.015 321.715 178.882 322.868 175.089 325.111C171.157 324.484 166.144 324.888 160.96 326.473C157.155 327.637 153.781 329.277 151.105 331.142C150.096 331.629 149.207 332.356 148.455 333.273C145.514 336.032 144.092 339.046 144.889 341.653C145.056 342.202 145.316 342.711 145.659 343.179C145.717 344.779 145.963 346.448 146.414 348.131C148.604 356.304 154.805 361.744 160.264 360.281C165.182 358.963 167.82 352.495 166.696 345.252L166.701 345.25C171.594 343.754 175.772 341.471 178.672 338.935C181.828 340.376 185.769 341.407 190.093 341.785C201.031 342.742 210.28 339.158 210.751 333.78Z"/>
</mask>
<path fill-rule="evenodd" clip-rule="evenodd" d="M210.751 333.78C211.221 328.401 202.735 323.266 191.797 322.309C185.015 321.715 178.882 322.868 175.089 325.111C171.157 324.484 166.144 324.888 160.96 326.473C157.155 327.637 153.781 329.277 151.105 331.142C150.096 331.629 149.207 332.356 148.455 333.273C145.514 336.032 144.092 339.046 144.889 341.653C145.056 342.202 145.316 342.711 145.659 343.179C145.717 344.779 145.963 346.448 146.414 348.131C148.604 356.304 154.805 361.744 160.264 360.281C165.182 358.963 167.82 352.495 166.696 345.252L166.701 345.25C171.594 343.754 175.772 341.471 178.672 338.935C181.828 340.376 185.769 341.407 190.093 341.785C201.031 342.742 210.28 339.158 210.751 333.78Z" fill="#F7FBFC"/>
<path d="M191.797 322.309L192.32 316.332L191.797 322.309ZM210.751 333.78L216.728 334.303L216.728 334.303L210.751 333.78ZM175.089 325.111L174.145 331.036L176.281 331.376L178.143 330.275L175.089 325.111ZM160.96 326.473L159.206 320.735L159.206 320.735L160.96 326.473ZM151.105 331.142L153.715 336.544L154.145 336.337L154.536 336.064L151.105 331.142ZM148.455 333.273L152.56 337.648L152.846 337.38L153.095 337.077L148.455 333.273ZM144.889 341.653L139.151 343.407L139.151 343.407L144.889 341.653ZM145.659 343.179L151.655 342.961L151.588 341.119L150.499 339.632L145.659 343.179ZM146.414 348.131L140.618 349.684L140.618 349.684L146.414 348.131ZM160.264 360.281L158.711 354.485L158.711 354.485L160.264 360.281ZM166.696 345.252L164.943 339.513L159.969 341.033L160.767 346.172L166.696 345.252ZM166.701 345.25L168.454 350.988L168.455 350.988L166.701 345.25ZM178.672 338.935L181.164 333.477L177.639 331.867L174.721 334.419L178.672 338.935ZM190.093 341.785L190.616 335.808L190.616 335.808L190.093 341.785ZM191.274 328.286C196.03 328.702 199.957 330.013 202.446 331.519C205.304 333.249 204.699 334.104 204.774 333.257L216.728 334.303C217.273 328.077 212.66 323.675 208.659 321.253C204.287 318.607 198.502 316.872 192.32 316.332L191.274 328.286ZM178.143 330.275C180.513 328.874 185.27 327.761 191.274 328.286L192.32 316.332C184.759 315.67 177.252 316.861 172.035 319.946L178.143 330.275ZM176.033 319.186C171.024 318.388 165.077 318.941 159.206 320.735L162.715 332.211C167.212 330.836 171.29 330.581 174.145 331.036L176.033 319.186ZM159.206 320.735C154.864 322.063 150.913 323.962 147.674 326.219L154.536 336.064C156.649 334.592 159.445 333.211 162.715 332.211L159.206 320.735ZM148.495 325.739C146.613 326.649 145.054 327.958 143.816 329.468L153.095 337.077C153.36 336.754 153.578 336.61 153.715 336.544L148.495 325.739ZM144.35 328.897C140.912 332.122 137.318 337.412 139.151 343.407L150.626 339.899C150.739 340.267 150.578 340.357 150.766 339.927C150.975 339.45 151.494 338.649 152.56 337.648L144.35 328.897ZM139.151 343.407C139.525 344.63 140.098 345.741 140.819 346.725L150.499 339.632C150.534 339.681 150.588 339.774 150.626 339.899L139.151 343.407ZM139.663 343.396C139.737 345.456 140.052 347.572 140.618 349.684L152.209 346.578C151.873 345.323 151.696 344.103 151.655 342.961L139.663 343.396ZM140.618 349.684C141.978 354.758 144.642 359.247 148.156 362.33C151.634 365.381 156.552 367.487 161.817 366.076L158.711 354.485C158.517 354.537 157.605 354.655 156.069 353.309C154.571 351.995 153.04 349.678 152.209 346.578L140.618 349.684ZM161.817 366.076C166.546 364.809 169.639 361.194 171.274 357.321C172.909 353.445 173.329 348.865 172.625 344.331L160.767 346.172C161.187 348.882 160.85 351.157 160.218 352.656C159.584 354.157 158.9 354.435 158.711 354.485L161.817 366.076ZM168.448 350.99L168.454 350.988L164.948 339.512L164.943 339.513L168.448 350.99ZM168.455 350.988C174.007 349.29 178.976 346.64 182.623 343.45L174.721 334.419C172.568 336.303 169.18 338.218 164.947 339.512L168.455 350.988ZM190.616 335.808C186.887 335.482 183.624 334.6 181.164 333.477L176.18 344.392C180.031 346.151 184.65 347.332 189.57 347.762L190.616 335.808ZM204.774 333.257C204.848 332.41 205.295 333.356 202.179 334.564C199.467 335.615 195.372 336.224 190.616 335.808L189.57 347.762C195.752 348.303 201.75 347.599 206.515 345.753C210.877 344.063 216.183 340.528 216.728 334.303L204.774 333.257Z" fill="white" fill-opacity="0.16" mask="url(#path-60-outside-1_1665_5495)"/>
</svg>
