<svg width="300" height="52" viewBox="0 0 300 52" fill="none" xmlns="http://www.w3.org/2000/svg">
<path fill-rule="evenodd" clip-rule="evenodd" d="M0 0H18.8516C27.2062 0 33.917 5.51451 35.6676 13.0453C29.8688 17.5275 26.1287 24.5444 26.1076 32.4357C23.9174 33.4077 21.4649 33.9473 18.8516 33.9473H9.96752V50.5598H0V0ZM9.96752 24.6299H18.8516C23.113 24.6299 26.2189 21.3074 26.2189 16.9737C26.2189 12.5677 23.113 9.31745 18.8516 9.31745H9.96752V24.6299Z" fill="#1D7998"/>
<path fill-rule="evenodd" clip-rule="evenodd" d="M195.618 0V16.1854C192.742 14.4445 189.369 13.4425 185.762 13.4425C175.235 13.4425 166.702 21.9761 166.702 32.5027C166.702 43.0294 175.235 51.563 185.762 51.563C196.28 51.563 204.809 43.043 204.822 32.5278C204.822 32.5222 204.822 32.5167 204.822 32.5111V9.35457H210.291V50.5097H219.645V9.35457L233.538 9.35457V0H195.618ZM195.604 32.6273C195.604 37.9938 191.253 42.3443 185.887 42.3443C180.52 42.3443 176.17 37.9938 176.17 32.6273C176.17 27.2607 180.52 22.9103 185.887 22.9103C191.253 22.9103 195.604 27.2607 195.604 32.6273Z" fill="#1D7998"/>
<path d="M300 42.1938C296.696 47.8571 290.555 51.6626 283.525 51.6626C272.999 51.6626 264.465 43.1291 264.465 32.6024C264.465 22.0757 272.999 13.5421 283.525 13.5421C290.555 13.5421 296.696 17.3476 300 23.0109L291.943 27.6594C290.235 24.8706 287.16 23.0099 283.65 23.0099C278.283 23.0099 273.933 27.3604 273.933 32.7269C273.933 38.0934 278.283 42.4439 283.65 42.4439C287.237 42.4439 290.37 40.5005 292.053 37.6091L300 42.1938Z" fill="#1D7998"/>
<path d="M86.4014 13.518C86.3673 13.5178 86.3332 13.5177 86.2991 13.5177C76.9358 13.5177 69.3455 21.1081 69.3455 30.4713C69.3455 30.5383 69.3459 30.6052 69.3466 30.672H69.3442V50.5598H78.6988V31.0481H78.7007C78.7544 26.8837 82.1469 23.5244 86.3241 23.5244C86.3572 23.5244 86.3902 23.5246 86.4232 23.525V13.5182L86.4014 13.518Z" fill="#1D7998"/>
<path d="M101.288 0L115.409 23.3698C115.604 23.6927 116.073 23.6927 116.268 23.3698L130.388 0H140.52V8.8837C130.854 11.6699 123.635 20.2291 122.836 30.5871L116.695 40.7508C116.305 41.3966 115.368 41.3966 114.978 40.7508L110.372 33.1275L110.374 33.1246L100.394 16.6074V50.5598H91.0389V0H101.288Z" fill="#1D7998"/>
<path fill-rule="evenodd" clip-rule="evenodd" d="M147.345 13.5421C154.081 13.5421 160.001 17.0363 163.391 22.3109C161.974 25.4158 161.184 28.8671 161.184 32.5027C161.184 33.8165 161.288 35.1063 161.486 36.3643H138.456C139.896 39.9288 143.389 42.4439 147.47 42.4439C150.588 42.4439 153.363 40.9751 155.141 38.6917L163.124 43.2973C159.695 48.3459 153.907 51.6626 147.345 51.6626C136.818 51.6626 128.285 43.1291 128.285 32.6024C128.285 22.0757 136.818 13.5421 147.345 13.5421ZM156.483 29.0913C155.044 25.5258 151.551 23.0099 147.47 23.0099C143.388 23.0099 139.895 25.5258 138.456 29.0913H156.483Z" fill="#1D7998"/>
<path fill-rule="evenodd" clip-rule="evenodd" d="M244.276 13.5421C251.33 13.5421 257.489 17.3742 260.785 23.0702C259.551 26.0016 258.868 29.2226 258.868 32.6031C258.868 33.882 258.966 35.138 259.154 36.3643H235.388C236.827 39.9288 240.32 42.4439 244.401 42.4439C247.519 42.4439 250.294 40.9751 252.072 38.6917L260.055 43.2973C256.627 48.3459 250.839 51.6626 244.276 51.6626C233.75 51.6626 225.216 43.1291 225.216 32.6024C225.216 22.0757 233.75 13.5421 244.276 13.5421ZM253.415 29.0913C251.975 25.5258 248.482 23.0099 244.401 23.0099C240.32 23.0099 236.826 25.5258 235.387 29.0913H253.415Z" fill="#1D7998"/>
<path fill-rule="evenodd" clip-rule="evenodd" d="M50.6852 13.4425C56.9574 13.4425 62.522 16.4721 65.9955 21.1478C64.8112 23.8568 64.1542 26.8491 64.1542 29.9947C64.1542 30.0821 64.1547 30.1693 64.1557 30.2564H64.1528V45.9904C60.7044 49.4337 55.9434 51.563 50.6852 51.563C40.1585 51.563 31.625 43.0294 31.625 32.5027C31.625 21.9761 40.1585 13.4425 50.6852 13.4425ZM50.8099 42.3443C56.1764 42.3443 60.5269 37.9938 60.5269 32.6273C60.5269 27.2607 56.1764 22.9103 50.8099 22.9103C45.4433 22.9103 41.0929 27.2607 41.0929 32.6273C41.0929 37.9938 45.4433 42.3443 50.8099 42.3443Z" fill="#1D7998"/>
</svg>
