<svg width="300" height="300" viewBox="0 0 300 300" fill="none" xmlns="http://www.w3.org/2000/svg">
<path d="M164.506 225.74C162.238 220.121 156.733 216.157 150.302 216.157C143.871 216.157 138.366 220.121 136.097 225.74H164.506Z" fill="#F7FBFC"/>
<path d="M165.611 163.218C163.343 157.6 157.838 153.635 151.406 153.635C144.975 153.635 139.47 157.6 137.202 163.218H165.611Z" fill="#F7FBFC"/>
<path d="M152.429 122.609C160.886 122.609 167.742 115.753 167.742 107.297C167.742 98.84 160.886 91.9845 152.429 91.9845C143.973 91.9845 137.117 98.84 137.117 107.297C137.117 115.753 143.973 122.609 152.429 122.609Z" fill="#F7FBFC"/>
<path d="M80.5601 87.9362H94.5599C101.275 87.9362 106.169 82.7006 106.169 75.8714C106.169 68.9285 101.275 63.8066 94.5599 63.8066H80.5601V87.9362Z" fill="#F7FBFC"/>
<path fill-rule="evenodd" clip-rule="evenodd" d="M150 300C232.843 300 300 232.843 300 150C300 102.891 278.284 60.8546 244.316 33.355V168.634C244.301 180.139 237.817 190.129 228.306 195.161C223.957 193.471 219.228 192.544 214.282 192.544C209.335 192.544 204.605 193.471 200.256 195.162C190.733 190.124 184.244 180.117 184.244 168.594C184.244 152.006 197.692 138.559 214.28 138.559C219.964 138.559 225.28 140.138 229.812 142.881V22.9724C206.697 8.41902 179.332 0 150 0C67.1573 0 0 67.1573 0 150C0 214.044 40.1363 268.713 96.6276 290.227V194.638H88.0516V179.897H114.214C115.917 185.444 118.832 190.461 122.651 194.638H111.369V294.978C123.694 298.254 136.643 300 150 300ZM150.105 201.237C162.286 201.237 172.774 208.488 177.486 218.909C176.179 222.792 175.471 226.95 175.471 231.274C175.471 233.289 175.625 235.268 175.922 237.201H136.098C138.367 242.818 143.872 246.781 150.302 246.781C155.215 246.781 159.589 244.467 162.39 240.868L174.97 248.126C169.568 256.082 160.447 261.308 150.105 261.308C133.517 261.308 120.07 247.861 120.07 231.273C120.07 214.684 133.517 201.237 150.105 201.237ZM214.32 261.308C225.397 261.308 235.074 255.311 240.281 246.387L227.758 239.162C225.105 243.719 220.168 246.781 214.516 246.781C206.059 246.781 199.204 239.926 199.204 231.469C199.204 223.012 206.059 216.157 214.516 216.157C220.047 216.157 224.893 219.089 227.584 223.483L240.281 216.158C235.074 207.234 225.397 201.237 214.32 201.237C197.731 201.237 184.284 214.684 184.284 231.273C184.284 247.861 197.731 261.308 214.32 261.308ZM151.21 138.716C162.808 138.716 172.871 145.289 177.875 154.914C176.269 159.168 175.39 163.778 175.39 168.594C175.39 170.665 175.552 172.697 175.865 174.679H137.203C139.472 180.296 144.976 184.26 151.406 184.26C156.32 184.26 160.693 181.945 163.495 178.347L176.075 185.605C173.293 189.701 169.526 193.074 165.114 195.382C160.613 193.552 155.691 192.544 150.534 192.544C145.672 192.544 141.02 193.439 136.734 195.074C127.458 189.962 121.174 180.091 121.174 168.751C121.174 152.163 134.622 138.716 151.21 138.716ZM210.855 77.1838L210.921 77.1842V92.9532C210.869 92.9525 210.817 92.9522 210.765 92.9522C204.182 92.9522 198.836 98.2459 198.752 104.808H198.749V133.035C192.969 135.537 187.919 139.406 184.007 144.236V104.216H184.011C184.01 104.11 184.009 104.005 184.009 103.899C184.009 89.1446 195.97 77.1835 210.725 77.1835C210.769 77.1835 210.812 77.1836 210.855 77.1838ZM152.233 77.0649C163.073 77.0649 172.572 82.8077 177.854 91.4169C176.543 95.0826 175.829 99.0321 175.829 103.148C175.829 103.286 175.83 103.423 175.831 103.561H175.827V125.689C173.39 128.778 170.36 131.376 166.909 133.312C162.079 131.147 156.723 129.943 151.087 129.943C145.962 129.943 141.069 130.939 136.592 132.747C127.959 127.471 122.197 117.959 122.197 107.101C122.197 90.5123 135.645 77.0649 152.233 77.0649ZM64.8531 194.678V126.387H86.449L103.256 154.203C103.564 154.711 104.302 154.711 104.609 154.203L119.992 128.744C122.233 132.065 124.976 135.019 128.112 137.498C118.621 144.557 112.473 155.858 112.473 168.594C112.473 168.953 112.478 169.311 112.488 169.667L112.444 169.74H95.4161L95.3184 169.579L95.3212 169.574L79.5943 143.546V194.678H64.8531ZM64.8531 49.124H94.5599C109.925 49.124 121.763 60.9611 121.763 75.8714C121.763 90.7817 109.925 102.619 94.5599 102.619H80.5601V117.376H64.8531V49.124Z" fill="#F7FBFC"/>
<path d="M214.477 184.103C222.933 184.103 229.789 177.247 229.789 168.791C229.789 160.334 222.933 153.478 214.477 153.478C206.02 153.478 199.164 160.334 199.164 168.791C199.164 177.247 206.02 184.103 214.477 184.103Z" fill="#F7FBFC"/>
</svg>
